{"glyphs":{"0":{"ha":836,"x_min":38,"x_max":799,"o":"m 418 967 q 700 838 601 967 q 799 471 799 710 q 700 102 799 232 q 418 -28 601 -28 q 136 102 235 -28 q 38 471 38 232 q 136 838 38 710 q 418 967 235 967 m 418 768 q 358 742 379 768 q 327 653 336 717 q 318 471 318 589 q 327 288 318 351 q 358 199 336 225 q 418 172 379 172 q 479 197 458 172 q 509 285 500 221 q 518 471 518 349 q 509 658 518 594 q 479 744 500 721 q 418 768 458 768 z "},"1":{"ha":669,"x_min":0,"x_max":579,"o":"m 579 0 l 313 0 l 313 683 l 119 565 l 0 744 l 335 944 l 579 944 l 579 0 z "},"2":{"ha":736,"x_min":-7,"x_max":708,"o":"m 339 967 q 531 929 451 967 q 649 828 610 892 q 689 690 689 765 q 663 558 689 619 q 563 414 638 497 q 343 206 489 331 l 708 206 l 681 0 l 32 0 l 32 189 q 270 424 193 342 q 378 558 347 506 q 408 660 408 611 q 382 734 408 707 q 308 761 356 761 q 226 738 263 761 q 150 667 189 715 l -7 792 q 140 919 53 872 q 339 967 228 967 z "},"3":{"ha":739,"x_min":-21,"x_max":711,"o":"m 343 967 q 526 936 450 967 q 640 851 601 906 q 679 728 679 797 q 632 585 679 643 q 493 499 585 526 q 650 430 589 488 q 711 263 711 372 q 667 117 711 183 q 537 12 624 51 q 328 -28 450 -28 q -21 125 104 -28 l 122 265 q 213 198 171 218 q 308 178 256 178 q 397 206 363 178 q 431 286 431 233 q 398 374 431 346 q 296 401 365 401 l 213 401 l 243 585 l 300 585 q 386 610 357 585 q 415 681 415 636 q 387 745 415 722 q 308 768 358 768 q 131 689 213 768 l -4 831 q 343 967 136 967 z "},"4":{"ha":813,"x_min":28,"x_max":792,"o":"m 792 186 l 694 186 l 694 0 l 425 0 l 424 186 l 28 186 l 28 365 l 288 974 l 522 890 l 310 389 l 426 389 l 458 594 l 694 594 l 694 389 l 792 389 l 792 186 z "},"5":{"ha":774,"x_min":7,"x_max":739,"o":"m 660 753 l 333 753 l 333 601 q 465 631 397 631 q 605 594 543 631 q 703 486 667 557 q 739 318 739 415 q 690 137 739 215 q 551 15 642 58 q 342 -28 461 -28 q 7 129 132 -28 l 158 267 q 329 175 228 175 q 425 210 392 175 q 458 314 458 246 q 430 417 458 386 q 349 449 401 449 q 249 415 303 449 l 69 415 l 69 944 l 689 944 l 660 753 z "},"6":{"ha":808,"x_min":38,"x_max":788,"o":"m 511 644 q 656 606 593 644 q 753 494 718 567 q 788 324 788 422 q 744 149 788 229 q 618 21 701 69 q 421 -28 535 -28 q 133 93 229 -28 q 38 425 38 214 q 92 710 38 588 q 246 899 146 832 q 482 967 346 967 q 608 949 550 967 q 708 903 665 932 l 610 743 q 552 769 579 760 q 490 778 525 778 q 381 728 424 778 q 326 578 339 678 q 511 644 410 644 m 424 164 q 491 206 469 164 q 513 322 513 247 q 492 431 513 400 q 425 463 472 463 q 326 421 376 463 q 335 267 326 322 q 365 188 344 213 q 424 164 386 164 z "},"7":{"ha":669,"x_min":7,"x_max":656,"o":"m 656 764 l 313 -28 l 64 56 l 367 742 l 7 742 l 7 944 l 656 944 l 656 764 z "},"8":{"ha":832,"x_min":28,"x_max":804,"o":"m 622 507 q 760 397 717 458 q 804 257 804 335 q 758 115 804 181 q 624 11 713 50 q 410 -28 535 -28 q 204 10 290 -28 q 73 113 118 49 q 28 253 28 176 q 72 388 28 331 q 196 481 115 446 q 64 707 64 567 q 107 840 64 781 q 231 933 150 899 q 417 967 311 967 q 673 901 578 967 q 768 721 768 835 q 732 606 768 663 q 622 507 696 549 m 418 788 q 353 766 376 788 q 329 703 329 744 q 347 640 329 667 q 407 592 365 613 l 440 578 q 490 638 478 607 q 503 706 503 668 q 481 765 503 743 q 418 788 460 788 m 419 164 q 503 192 475 164 q 532 261 532 219 q 507 333 532 307 q 422 385 482 360 l 369 404 q 317 346 335 381 q 300 269 300 311 q 333 193 300 222 q 419 164 365 164 z "},"9":{"ha":808,"x_min":21,"x_max":781,"o":"m 400 967 q 608 920 522 967 q 738 791 694 874 q 781 601 781 708 q 713 281 781 411 q 503 71 644 150 q 142 -44 363 -8 l 88 144 q 285 201 210 171 q 406 277 360 232 q 481 393 453 322 q 399 336 442 354 q 296 318 357 318 q 158 356 221 318 q 58 466 96 394 q 21 633 21 538 q 70 806 21 731 q 206 924 119 882 q 400 967 293 967 m 388 504 q 447 519 418 504 q 499 567 476 535 q 491 692 500 647 q 460 758 482 738 q 397 778 439 778 q 324 744 351 778 q 296 647 296 711 q 388 504 296 504 z "},"\r":{"ha":306,"x_min":0,"x_max":0,"o":""}," ":{"ha":306,"x_min":0,"x_max":0,"o":""},"A":{"ha":835,"x_min":-35,"x_max":869,"o":"m 529 188 l 300 188 l 264 0 l -35 0 l 247 967 l 589 967 l 869 0 l 567 0 l 529 188 m 489 388 l 414 767 l 340 388 l 489 388 z "},"Á":{"ha":835,"x_min":-35,"x_max":869,"o":"m 529 188 l 300 188 l 264 0 l -35 0 l 247 967 l 589 967 l 869 0 l 567 0 l 529 188 m 489 388 l 414 767 l 340 388 l 489 388 m 629 1167 l 276 1040 l 207 1178 l 532 1367 l 629 1167 z "},"Ă":{"ha":835,"x_min":-35,"x_max":869,"o":"m 529 188 l 300 188 l 264 0 l -35 0 l 247 967 l 589 967 l 869 0 l 567 0 l 529 188 m 489 388 l 414 767 l 340 388 l 489 388 m 418 1036 q 236 1112 301 1036 q 161 1294 171 1188 l 304 1318 q 345 1249 317 1276 q 418 1222 374 1222 q 491 1249 463 1222 q 532 1318 519 1276 l 675 1294 q 600 1112 665 1188 q 418 1036 535 1036 z "},"Ắ":{"ha":835,"x_min":-35,"x_max":869,"o":"m 529 188 l 300 188 l 264 0 l -35 0 l 247 967 l 589 967 l 869 0 l 567 0 l 529 188 m 489 388 l 414 767 l 340 388 l 489 388 z "},"Ặ":{"ha":835,"x_min":-35,"x_max":869,"o":"m 529 188 l 300 188 l 264 0 l -35 0 l 247 967 l 589 967 l 869 0 l 567 0 l 529 188 m 489 388 l 414 767 l 340 388 l 489 388 m 418 1036 q 236 1112 301 1036 q 161 1294 171 1188 l 304 1318 q 345 1249 317 1276 q 418 1222 374 1222 q 491 1249 463 1222 q 532 1318 519 1276 l 675 1294 q 600 1112 665 1188 q 418 1036 535 1036 m 418 -367 q 308 -324 351 -367 q 264 -219 264 -282 q 308 -115 264 -157 q 418 -72 351 -72 q 528 -115 485 -72 q 572 -219 572 -157 q 528 -324 572 -282 q 418 -367 485 -367 z "},"Ằ":{"ha":835,"x_min":-35,"x_max":869,"o":"m 529 188 l 300 188 l 264 0 l -35 0 l 247 967 l 589 967 l 869 0 l 567 0 l 529 188 m 489 388 l 414 767 l 340 388 l 489 388 z "},"Ẳ":{"ha":835,"x_min":-35,"x_max":869,"o":"m 529 188 l 300 188 l 264 0 l -35 0 l 247 967 l 589 967 l 869 0 l 567 0 l 529 188 m 489 388 l 414 767 l 340 388 l 489 388 z "},"Ẵ":{"ha":835,"x_min":-35,"x_max":869,"o":"m 529 188 l 300 188 l 264 0 l -35 0 l 247 967 l 589 967 l 869 0 l 567 0 l 529 188 m 489 388 l 414 767 l 340 388 l 489 388 z "},"Ǎ":{"ha":835,"x_min":-35,"x_max":869,"o":"m 529 188 l 300 188 l 264 0 l -35 0 l 247 967 l 589 967 l 869 0 l 567 0 l 529 188 m 489 388 l 414 767 l 340 388 l 489 388 m 701 1233 l 500 1038 l 336 1038 l 135 1233 l 228 1340 l 418 1221 l 608 1340 l 701 1233 z "},"Â":{"ha":835,"x_min":-35,"x_max":869,"o":"m 529 188 l 300 188 l 264 0 l -35 0 l 247 967 l 589 967 l 869 0 l 567 0 l 529 188 m 489 388 l 414 767 l 340 388 l 489 388 m 135 1151 l 336 1347 l 500 1347 l 701 1151 l 608 1044 l 418 1164 l 228 1044 l 135 1151 z "},"Ấ":{"ha":835,"x_min":-35,"x_max":908,"o":"m 529 188 l 300 188 l 264 0 l -35 0 l 247 967 l 589 967 l 869 0 l 567 0 l 529 188 m 489 388 l 414 767 l 340 388 l 489 388 z "},"Ậ":{"ha":835,"x_min":-35,"x_max":869,"o":"m 529 188 l 300 188 l 264 0 l -35 0 l 247 967 l 589 967 l 869 0 l 567 0 l 529 188 m 489 388 l 414 767 l 340 388 l 489 388 m 135 1151 l 336 1347 l 500 1347 l 701 1151 l 608 1044 l 418 1164 l 228 1044 l 135 1151 m 418 -367 q 308 -324 351 -367 q 264 -219 264 -282 q 308 -115 264 -157 q 418 -72 351 -72 q 528 -115 485 -72 q 572 -219 572 -157 q 528 -324 572 -282 q 418 -367 485 -367 z "},"Ầ":{"ha":835,"x_min":-71,"x_max":869,"o":"m 529 188 l 300 188 l 264 0 l -35 0 l 247 967 l 589 967 l 869 0 l 567 0 l 529 188 m 489 388 l 414 767 l 340 388 l 489 388 z "},"Ẩ":{"ha":835,"x_min":-35,"x_max":871,"o":"m 529 188 l 300 188 l 264 0 l -35 0 l 247 967 l 589 967 l 869 0 l 567 0 l 529 188 m 489 388 l 414 767 l 340 388 l 489 388 z "},"Ẫ":{"ha":835,"x_min":-35,"x_max":869,"o":"m 529 188 l 300 188 l 264 0 l -35 0 l 247 967 l 589 967 l 869 0 l 567 0 l 529 188 m 489 388 l 414 767 l 340 388 l 489 388 z "},"Ȁ":{"ha":835,"x_min":-35,"x_max":869,"o":"m 529 188 l 300 188 l 264 0 l -35 0 l 247 967 l 589 967 l 869 0 l 567 0 l 529 188 m 489 388 l 414 767 l 340 388 l 489 388 z "},"Ä":{"ha":835,"x_min":-35,"x_max":869,"o":"m 529 188 l 300 188 l 264 0 l -35 0 l 247 967 l 589 967 l 869 0 l 567 0 l 529 188 m 489 388 l 414 767 l 340 388 l 489 388 z "},"Ǟ":{"ha":835,"x_min":-35,"x_max":869,"o":"m 529 188 l 300 188 l 264 0 l -35 0 l 247 967 l 589 967 l 869 0 l 567 0 l 529 188 m 489 388 l 414 767 l 340 388 l 489 388 z "},"Ȧ":{"ha":835,"x_min":-35,"x_max":869,"o":"m 529 188 l 300 188 l 264 0 l -35 0 l 247 967 l 589 967 l 869 0 l 567 0 l 529 188 m 489 388 l 414 767 l 340 388 l 489 388 z "},"Ạ":{"ha":835,"x_min":-35,"x_max":869,"o":"m 529 188 l 300 188 l 264 0 l -35 0 l 247 967 l 589 967 l 869 0 l 567 0 l 529 188 m 489 388 l 414 767 l 340 388 l 489 388 m 418 -367 q 308 -324 351 -367 q 264 -219 264 -282 q 308 -115 264 -157 q 418 -72 351 -72 q 528 -115 485 -72 q 572 -219 572 -157 q 528 -324 572 -282 q 418 -367 485 -367 z "},"Ǡ":{"ha":835,"x_min":-35,"x_max":869,"o":"m 529 188 l 300 188 l 264 0 l -35 0 l 247 967 l 589 967 l 869 0 l 567 0 l 529 188 m 489 388 l 414 767 l 340 388 l 489 388 z "},"À":{"ha":835,"x_min":-35,"x_max":869,"o":"m 529 188 l 300 188 l 264 0 l -35 0 l 247 967 l 589 967 l 869 0 l 567 0 l 529 188 m 489 388 l 414 767 l 340 388 l 489 388 m 629 1178 l 560 1040 l 207 1167 l 306 1367 l 629 1178 z "},"Ả":{"ha":835,"x_min":-35,"x_max":869,"o":"m 529 188 l 300 188 l 264 0 l -35 0 l 247 967 l 589 967 l 869 0 l 567 0 l 529 188 m 489 388 l 414 767 l 340 388 l 489 388 m 342 1190 q 417 1203 394 1192 q 440 1239 440 1214 q 426 1267 440 1257 q 389 1278 413 1278 q 347 1274 365 1278 q 303 1260 328 1269 l 263 1363 q 426 1401 328 1401 q 564 1360 515 1401 q 613 1251 613 1318 q 582 1161 613 1196 q 493 1115 551 1126 l 493 1061 l 342 1061 l 342 1190 z "},"Ȃ":{"ha":835,"x_min":-35,"x_max":869,"o":"m 529 188 l 300 188 l 264 0 l -35 0 l 247 967 l 589 967 l 869 0 l 567 0 l 529 188 m 489 388 l 414 767 l 340 388 l 489 388 m 418 1346 q 601 1268 536 1346 q 675 1074 665 1190 l 532 1050 q 491 1131 519 1101 q 418 1160 463 1160 q 345 1131 374 1160 q 304 1050 317 1101 l 161 1074 q 235 1268 171 1190 q 418 1346 300 1346 z "},"Ɑ":{"ha":956,"x_min":28,"x_max":943,"o":"m 886 279 q 899 211 886 235 q 943 171 911 188 l 865 -28 q 739 8 789 -17 q 656 75 689 32 q 410 -28 563 -28 q 207 33 293 -28 q 74 206 121 93 q 28 471 28 318 q 77 750 28 632 q 213 931 126 868 q 413 994 300 994 q 534 969 482 994 q 631 900 586 944 l 644 967 l 886 967 l 886 279 m 325 471 q 362 236 325 304 q 476 168 399 168 q 600 217 547 168 l 600 739 q 476 792 550 792 q 362 718 399 792 q 325 471 325 644 z "},"Ā":{"ha":835,"x_min":-35,"x_max":869,"o":"m 529 188 l 300 188 l 264 0 l -35 0 l 247 967 l 589 967 l 869 0 l 567 0 l 529 188 m 489 388 l 414 767 l 340 388 l 489 388 z "},"Ą":{"ha":835,"x_min":-35,"x_max":869,"o":"m 717 0 q 592 -65 626 -31 q 557 -132 557 -100 q 628 -193 557 -193 q 713 -182 664 -193 l 696 -342 q 593 -353 647 -353 q 433 -306 496 -353 q 371 -178 371 -258 q 557 46 371 -32 l 529 188 l 300 188 l 264 0 l -35 0 l 247 967 l 589 967 l 869 0 l 717 0 m 489 388 l 414 767 l 340 388 l 489 388 z "},"Å":{"ha":835,"x_min":-35,"x_max":869,"o":"m 529 188 l 300 188 l 264 0 l -35 0 l 247 967 l 589 967 l 869 0 l 567 0 l 529 188 m 489 388 l 414 767 l 340 388 l 489 388 z "},"Ǻ":{"ha":835,"x_min":-35,"x_max":869,"o":"m 529 188 l 300 188 l 264 0 l -35 0 l 247 967 l 589 967 l 869 0 l 567 0 l 529 188 m 489 388 l 414 767 l 340 388 l 489 388 z "},"Ⱥ":{"ha":835,"x_min":-35,"x_max":869,"o":"m 551 188 l 417 188 l 339 -107 l 247 -86 l 319 188 l 278 188 l 236 0 l -35 0 l 247 967 l 525 967 l 549 1054 l 639 1033 l 606 908 l 869 0 l 594 0 l 551 188 m 368 374 l 444 660 l 414 794 l 319 374 l 368 374 m 510 374 l 489 464 l 465 374 l 510 374 z "},"Ã":{"ha":835,"x_min":-35,"x_max":869,"o":"m 529 188 l 300 188 l 264 0 l -35 0 l 247 967 l 589 967 l 869 0 l 567 0 l 529 188 m 489 388 l 414 767 l 340 388 l 489 388 z "},"Æ":{"ha":1199,"x_min":-42,"x_max":1171,"o":"m 1171 200 l 1171 0 l 606 0 l 581 188 l 326 188 l 269 0 l -42 0 l 335 967 l 1122 967 l 1093 768 l 750 768 l 782 585 l 1110 585 l 1110 392 l 814 392 l 847 200 l 1171 200 m 553 388 l 503 763 l 388 388 l 553 388 z "},"Ǽ":{"ha":1199,"x_min":-42,"x_max":1171,"o":"m 1171 200 l 1171 0 l 606 0 l 581 188 l 326 188 l 269 0 l -42 0 l 335 967 l 1122 967 l 1093 768 l 750 768 l 782 585 l 1110 585 l 1110 392 l 814 392 l 847 200 l 1171 200 m 553 388 l 503 763 l 388 388 l 553 388 m 890 1167 l 538 1040 l 468 1178 l 793 1367 l 890 1167 z "},"Ǣ":{"ha":1199,"x_min":-42,"x_max":1171,"o":"m 1171 200 l 1171 0 l 606 0 l 581 188 l 326 188 l 269 0 l -42 0 l 335 967 l 1122 967 l 1093 768 l 750 768 l 782 585 l 1110 585 l 1110 392 l 814 392 l 847 200 l 1171 200 m 553 388 l 503 763 l 388 388 l 553 388 z "},"B":{"ha":864,"x_min":60,"x_max":843,"o":"m 628 513 q 783 441 724 493 q 843 286 843 389 q 727 63 843 126 q 399 0 611 0 l 60 0 l 60 967 l 361 967 q 690 909 576 967 q 803 717 803 851 q 753 581 803 631 q 628 513 703 532 m 346 771 l 346 593 l 394 593 q 486 615 460 593 q 513 688 513 636 q 484 751 513 731 q 388 771 456 771 l 346 771 m 401 201 q 511 224 474 201 q 549 306 549 246 q 515 387 549 361 q 413 413 481 413 l 346 413 l 346 201 l 401 201 z "},"Ḃ":{"ha":864,"x_min":60,"x_max":843,"o":"m 628 513 q 783 441 724 493 q 843 286 843 389 q 727 63 843 126 q 399 0 611 0 l 60 0 l 60 967 l 361 967 q 690 909 576 967 q 803 717 803 851 q 753 581 803 631 q 628 513 703 532 m 346 771 l 346 593 l 394 593 q 486 615 460 593 q 513 688 513 636 q 484 751 513 731 q 388 771 456 771 l 346 771 m 401 201 q 511 224 474 201 q 549 306 549 246 q 515 387 549 361 q 413 413 481 413 l 346 413 l 346 201 l 401 201 z "},"Ḅ":{"ha":864,"x_min":60,"x_max":843,"o":"m 628 513 q 783 441 724 493 q 843 286 843 389 q 727 63 843 126 q 399 0 611 0 l 60 0 l 60 967 l 361 967 q 690 909 576 967 q 803 717 803 851 q 753 581 803 631 q 628 513 703 532 m 346 771 l 346 593 l 394 593 q 486 615 460 593 q 513 688 513 636 q 484 751 513 731 q 388 771 456 771 l 346 771 m 401 201 q 511 224 474 201 q 549 306 549 246 q 515 387 549 361 q 413 413 481 413 l 346 413 l 346 201 l 401 201 m 431 -367 q 320 -324 364 -367 q 276 -219 276 -282 q 320 -115 276 -157 q 431 -72 364 -72 q 541 -115 497 -72 q 585 -219 585 -157 q 541 -324 585 -282 q 431 -367 497 -367 z "},"Ꞵ":{"ha":864,"x_min":60,"x_max":843,"o":"m 628 513 q 783 442 722 493 q 843 289 843 390 q 736 67 843 133 q 468 0 629 0 q 346 10 414 0 l 346 -299 l 60 -299 l 60 967 l 361 967 q 690 909 576 967 q 803 717 803 851 q 753 581 803 631 q 628 513 703 532 m 419 201 q 549 311 549 201 q 521 388 549 363 q 440 413 493 413 l 407 413 l 421 593 l 425 593 q 489 615 465 593 q 513 681 513 638 q 484 750 513 729 q 388 771 456 771 l 346 771 l 346 206 q 419 201 383 201 z "},"Ɓ":{"ha":1110,"x_min":0,"x_max":1089,"o":"m 874 513 q 1029 441 969 493 q 1089 286 1089 389 q 973 63 1089 126 q 644 0 857 0 l 306 0 l 306 768 l 271 768 q 214 717 214 768 q 219 678 214 697 q 235 632 224 660 l 64 560 q 17 648 35 606 q 0 736 0 690 q 78 906 0 844 q 286 967 157 967 l 607 967 q 935 909 822 967 q 1049 717 1049 851 q 999 581 1049 631 q 874 513 949 532 m 592 771 l 592 593 l 640 593 q 732 615 706 593 q 758 688 758 636 q 730 751 758 731 q 633 771 701 771 l 592 771 m 647 201 q 757 224 719 201 q 794 306 794 246 q 760 387 794 361 q 658 413 726 413 l 592 413 l 592 201 l 647 201 z "},"Ƀ":{"ha":886,"x_min":14,"x_max":865,"o":"m 650 513 q 806 441 746 493 q 865 286 865 389 q 749 63 865 126 q 421 0 633 0 l 82 0 l 82 250 l 14 250 l 14 369 l 82 369 l 82 967 l 383 967 q 712 909 599 967 q 825 717 825 851 q 775 581 825 631 q 650 513 725 532 m 368 771 l 368 593 l 417 593 q 508 615 482 593 q 535 688 535 636 q 506 751 535 731 q 410 771 478 771 l 368 771 m 424 201 q 533 224 496 201 q 571 306 571 246 q 537 387 571 361 q 435 413 503 413 l 368 413 l 368 369 l 493 369 l 493 250 l 368 250 l 368 201 l 424 201 z "},"Ƃ":{"ha":842,"x_min":60,"x_max":828,"o":"m 435 633 q 726 556 625 633 q 828 326 828 478 q 722 85 828 169 q 446 0 617 0 l 60 0 l 60 967 l 710 967 l 682 754 l 346 754 l 346 633 l 435 633 m 408 201 q 500 234 469 201 q 531 324 531 267 q 403 442 531 442 l 346 442 l 346 201 l 408 201 z "},"C":{"ha":811,"x_min":28,"x_max":811,"o":"m 489 994 q 800 881 668 994 l 668 725 q 587 772 626 756 q 503 789 547 789 q 372 713 418 789 q 325 486 325 636 q 372 262 325 336 q 507 188 419 188 q 595 207 554 188 q 686 265 636 226 l 811 107 q 670 10 753 49 q 493 -28 588 -28 q 246 31 350 -28 q 85 206 142 90 q 28 486 28 321 q 86 759 28 644 q 249 934 144 874 q 489 994 353 994 z "},"Ć":{"ha":811,"x_min":28,"x_max":811,"o":"m 489 994 q 800 881 668 994 l 668 725 q 587 772 626 756 q 503 789 547 789 q 372 713 418 789 q 325 486 325 636 q 372 262 325 336 q 507 188 419 188 q 595 207 554 188 q 686 265 636 226 l 811 107 q 670 10 753 49 q 493 -28 588 -28 q 246 31 350 -28 q 85 206 142 90 q 28 486 28 321 q 86 759 28 644 q 249 934 144 874 q 489 994 353 994 m 708 1167 l 356 1040 l 286 1178 l 611 1367 l 708 1167 z "},"Č":{"ha":811,"x_min":28,"x_max":811,"o":"m 489 994 q 800 881 668 994 l 668 725 q 587 772 626 756 q 503 789 547 789 q 372 713 418 789 q 325 486 325 636 q 372 262 325 336 q 507 188 419 188 q 595 207 554 188 q 686 265 636 226 l 811 107 q 670 10 753 49 q 493 -28 588 -28 q 246 31 350 -28 q 85 206 142 90 q 28 486 28 321 q 86 759 28 644 q 249 934 144 874 q 489 994 353 994 m 781 1233 l 579 1038 l 415 1038 l 214 1233 l 307 1340 l 497 1221 l 688 1340 l 781 1233 z "},"Ç":{"ha":811,"x_min":28,"x_max":811,"o":"m 539 -60 q 692 -210 692 -79 q 631 -333 692 -285 q 464 -382 569 -382 q 367 -369 413 -382 q 290 -335 322 -356 l 350 -215 q 439 -240 396 -240 q 501 -207 501 -240 q 471 -176 501 -185 q 371 -167 440 -167 l 389 -19 q 124 141 219 11 q 28 486 28 271 q 86 759 28 644 q 249 934 144 874 q 489 994 353 994 q 800 881 668 994 l 668 725 q 587 772 626 756 q 503 789 547 789 q 372 713 418 789 q 325 486 325 636 q 372 262 325 336 q 507 188 419 188 q 595 207 554 188 q 686 265 636 226 l 811 107 q 690 19 760 56 q 539 -25 619 -17 l 539 -60 z "},"Ĉ":{"ha":811,"x_min":28,"x_max":811,"o":"m 489 994 q 800 881 668 994 l 668 725 q 587 772 626 756 q 503 789 547 789 q 372 713 418 789 q 325 486 325 636 q 372 262 325 336 q 507 188 419 188 q 595 207 554 188 q 686 265 636 226 l 811 107 q 670 10 753 49 q 493 -28 588 -28 q 246 31 350 -28 q 85 206 142 90 q 28 486 28 321 q 86 759 28 644 q 249 934 144 874 q 489 994 353 994 m 214 1151 l 415 1347 l 579 1347 l 781 1151 l 688 1044 l 497 1164 l 307 1044 l 214 1151 z "},"Ċ":{"ha":811,"x_min":28,"x_max":811,"o":"m 489 994 q 800 881 668 994 l 668 725 q 587 772 626 756 q 503 789 547 789 q 372 713 418 789 q 325 486 325 636 q 372 262 325 336 q 507 188 419 188 q 595 207 554 188 q 686 265 636 226 l 811 107 q 670 10 753 49 q 493 -28 588 -28 q 246 31 350 -28 q 85 206 142 90 q 28 486 28 321 q 86 759 28 644 q 249 934 144 874 q 489 994 353 994 z "},"Ꭓ":{"ha":828,"x_min":-14,"x_max":842,"o":"m 842 -250 l 533 -250 l 407 207 l 289 -250 l -14 -250 l 238 388 l 4 967 l 311 967 l 410 564 l 521 967 l 822 967 l 579 396 l 842 -250 z "},"Ƈ":{"ha":811,"x_min":28,"x_max":1022,"o":"m 818 1199 q 1022 1147 932 1199 l 950 978 q 861 1001 900 1001 q 815 983 829 1001 q 800 926 800 965 l 800 881 l 679 739 q 596 776 636 764 q 500 789 556 789 q 371 713 417 789 q 325 486 325 636 q 372 262 325 336 q 508 188 419 188 q 594 208 554 188 q 686 268 635 228 l 811 107 q 670 10 753 49 q 492 -28 588 -28 q 246 31 350 -28 q 85 206 142 90 q 28 486 28 321 q 85 757 28 642 q 239 933 143 872 q 447 994 335 994 q 567 974 517 994 q 635 1140 574 1081 q 818 1199 697 1199 z "},"Ȼ":{"ha":811,"x_min":28,"x_max":811,"o":"m 811 107 q 670 10 753 49 q 493 -28 588 -28 q 390 -19 439 -28 l 367 -107 l 275 -86 l 300 6 q 99 179 169 57 q 28 486 28 301 q 86 759 28 644 q 249 934 144 874 q 489 994 353 994 q 560 990 526 994 l 576 1054 l 667 1033 l 650 968 q 800 881 733 939 l 668 725 q 597 768 624 756 l 447 197 q 507 188 472 188 q 595 207 554 188 q 686 265 636 226 l 811 107 m 325 486 q 368 268 325 343 l 507 789 l 503 789 q 372 713 418 789 q 325 486 325 636 z "},"D":{"ha":911,"x_min":60,"x_max":883,"o":"m 369 967 q 743 863 603 967 q 883 488 883 760 q 749 110 883 219 q 386 0 614 0 l 60 0 l 60 967 l 369 967 m 346 765 l 346 201 l 403 201 q 510 228 469 201 q 569 316 550 254 q 589 488 589 378 q 569 656 589 596 q 508 741 549 717 q 404 765 468 765 l 346 765 z "},"Ǳ":{"ha":1650,"x_min":60,"x_max":1629,"o":"m 369 967 q 743 863 603 967 q 883 488 883 760 q 749 110 883 219 q 386 0 614 0 l 60 0 l 60 967 l 369 967 m 346 765 l 346 201 l 403 201 q 510 228 469 201 q 569 316 550 254 q 589 488 589 378 q 569 656 589 596 q 508 741 549 717 q 404 765 468 765 l 346 765 m 1617 754 l 1232 224 l 1629 224 l 1601 0 l 890 0 l 890 210 l 1288 750 l 929 750 l 929 967 l 1617 967 l 1617 754 z "},"Ǆ":{"ha":1650,"x_min":60,"x_max":1629,"o":"m 369 967 q 743 863 603 967 q 883 488 883 760 q 749 110 883 219 q 386 0 614 0 l 60 0 l 60 967 l 369 967 m 346 765 l 346 201 l 403 201 q 510 228 469 201 q 569 316 550 254 q 589 488 589 378 q 569 656 589 596 q 508 741 549 717 q 404 765 468 765 l 346 765 z "},"Ɖ":{"ha":932,"x_min":14,"x_max":904,"o":"m 390 967 q 764 863 624 967 q 904 488 904 760 q 769 110 904 219 q 407 0 635 0 l 81 0 l 81 410 l 14 410 l 14 571 l 81 571 l 81 967 l 390 967 m 424 201 q 531 228 490 201 q 590 316 571 254 q 610 488 610 378 q 590 656 610 596 q 529 741 569 717 q 425 765 489 765 l 367 765 l 367 571 l 535 571 l 535 410 l 367 410 l 367 201 l 424 201 z "},"Ð":{"ha":932,"x_min":14,"x_max":904,"o":"m 390 967 q 764 863 624 967 q 904 488 904 760 q 769 110 904 219 q 407 0 635 0 l 81 0 l 81 410 l 14 410 l 14 571 l 81 571 l 81 967 l 390 967 m 424 201 q 531 228 490 201 q 590 316 571 254 q 610 488 610 378 q 590 656 610 596 q 529 741 569 717 q 425 765 489 765 l 367 765 l 367 571 l 535 571 l 535 410 l 367 410 l 367 201 l 424 201 z "},"Ď":{"ha":911,"x_min":60,"x_max":883,"o":"m 369 967 q 743 863 603 967 q 883 488 883 760 q 749 110 883 219 q 386 0 614 0 l 60 0 l 60 967 l 369 967 m 346 765 l 346 201 l 403 201 q 510 228 469 201 q 569 316 550 254 q 589 488 589 378 q 569 656 589 596 q 508 741 549 717 q 404 765 468 765 l 346 765 m 688 1233 l 486 1038 l 322 1038 l 121 1233 l 214 1340 l 404 1221 l 594 1340 l 688 1233 z "},"Ḓ":{"ha":911,"x_min":60,"x_max":883,"o":"m 369 967 q 743 863 603 967 q 883 488 883 760 q 749 110 883 219 q 386 0 614 0 l 60 0 l 60 967 l 369 967 m 346 765 l 346 201 l 403 201 q 510 228 469 201 q 569 316 550 254 q 589 488 589 378 q 569 656 589 596 q 508 741 549 717 q 404 765 468 765 l 346 765 m 147 -293 l 349 -83 l 513 -83 l 714 -293 l 621 -400 l 431 -267 l 240 -400 l 147 -293 z "},"Đ":{"ha":932,"x_min":14,"x_max":904,"o":"m 390 967 q 764 863 624 967 q 904 488 904 760 q 769 110 904 219 q 407 0 635 0 l 81 0 l 81 410 l 14 410 l 14 571 l 81 571 l 81 967 l 390 967 m 424 201 q 531 228 490 201 q 590 316 571 254 q 610 488 610 378 q 590 656 610 596 q 529 741 569 717 q 425 765 489 765 l 367 765 l 367 571 l 535 571 l 535 410 l 367 410 l 367 201 l 424 201 z "},"Ḋ":{"ha":911,"x_min":60,"x_max":883,"o":"m 369 967 q 743 863 603 967 q 883 488 883 760 q 749 110 883 219 q 386 0 614 0 l 60 0 l 60 967 l 369 967 m 346 765 l 346 201 l 403 201 q 510 228 469 201 q 569 316 550 254 q 589 488 589 378 q 569 656 589 596 q 508 741 549 717 q 404 765 468 765 l 346 765 z "},"Ḍ":{"ha":911,"x_min":60,"x_max":883,"o":"m 369 967 q 743 863 603 967 q 883 488 883 760 q 749 110 883 219 q 386 0 614 0 l 60 0 l 60 967 l 369 967 m 346 765 l 346 201 l 403 201 q 510 228 469 201 q 569 316 550 254 q 589 488 589 378 q 569 656 589 596 q 508 741 549 717 q 404 765 468 765 l 346 765 m 431 -367 q 320 -324 364 -367 q 276 -219 276 -282 q 320 -115 276 -157 q 431 -72 364 -72 q 541 -115 497 -72 q 585 -219 585 -157 q 541 -324 585 -282 q 431 -367 497 -367 z "},"Ɗ":{"ha":1157,"x_min":0,"x_max":1129,"o":"m 615 967 q 989 863 849 967 q 1129 488 1129 760 q 994 110 1129 219 q 632 0 860 0 l 306 0 l 306 768 l 271 768 q 214 717 214 768 q 219 678 214 697 q 235 632 224 660 l 64 560 q 17 648 35 606 q 0 736 0 690 q 78 906 0 844 q 286 967 157 967 l 615 967 m 649 201 q 756 228 715 201 q 815 316 796 254 q 835 488 835 378 q 815 656 835 596 q 754 741 794 717 q 650 765 714 765 l 592 765 l 592 201 l 649 201 z "},"Ḏ":{"ha":911,"x_min":60,"x_max":883,"o":"m 369 967 q 743 863 603 967 q 883 488 883 760 q 749 110 883 219 q 386 0 614 0 l 60 0 l 60 967 l 369 967 m 346 765 l 346 201 l 403 201 q 510 228 469 201 q 569 316 550 254 q 589 488 589 378 q 569 656 589 596 q 508 741 549 717 q 404 765 468 765 l 346 765 z "},"Ƌ":{"ha":842,"x_min":14,"x_max":782,"o":"m 782 0 l 392 0 q 117 81 219 0 q 14 319 14 161 q 117 551 14 469 q 407 633 219 633 l 496 633 l 496 754 l 143 754 l 143 967 l 782 967 l 782 0 m 496 201 l 496 442 l 439 442 q 311 319 311 442 q 342 233 311 264 q 433 201 372 201 l 496 201 z "},"ǲ":{"ha":1546,"x_min":60,"x_max":1539,"o":"m 369 967 q 743 863 603 967 q 883 488 883 760 q 749 110 883 219 q 386 0 614 0 l 60 0 l 60 967 l 369 967 m 346 765 l 346 201 l 403 201 q 510 228 469 201 q 569 316 550 254 q 589 488 589 378 q 569 656 589 596 q 508 741 549 717 q 404 765 468 765 l 346 765 m 1529 551 l 1225 203 l 1539 203 l 1515 0 l 904 0 l 904 192 l 1213 542 l 932 542 l 932 742 l 1529 742 l 1529 551 z "},"ǅ":{"ha":1546,"x_min":60,"x_max":1539,"o":"m 369 967 q 743 863 603 967 q 883 488 883 760 q 749 110 883 219 q 386 0 614 0 l 60 0 l 60 967 l 369 967 m 346 765 l 346 201 l 403 201 q 510 228 469 201 q 569 316 550 254 q 589 488 589 378 q 569 656 589 596 q 508 741 549 717 q 404 765 468 765 l 346 765 z "},"E":{"ha":722,"x_min":60,"x_max":694,"o":"m 665 768 l 346 768 l 346 588 l 626 588 l 626 394 l 346 394 l 346 200 l 688 200 l 688 0 l 60 0 l 60 967 l 694 967 l 665 768 z "},"É":{"ha":722,"x_min":60,"x_max":694,"o":"m 665 768 l 346 768 l 346 588 l 626 588 l 626 394 l 346 394 l 346 200 l 688 200 l 688 0 l 60 0 l 60 967 l 694 967 l 665 768 m 589 1167 l 236 1040 l 167 1178 l 492 1367 l 589 1167 z "},"Ĕ":{"ha":722,"x_min":60,"x_max":694,"o":"m 665 768 l 346 768 l 346 588 l 626 588 l 626 394 l 346 394 l 346 200 l 688 200 l 688 0 l 60 0 l 60 967 l 694 967 l 665 768 m 378 1036 q 196 1112 261 1036 q 121 1294 131 1188 l 264 1318 q 305 1249 276 1276 q 378 1222 333 1222 q 451 1249 422 1222 q 492 1318 479 1276 l 635 1294 q 560 1112 625 1188 q 378 1036 494 1036 z "},"Ě":{"ha":722,"x_min":60,"x_max":694,"o":"m 665 768 l 346 768 l 346 588 l 626 588 l 626 394 l 346 394 l 346 200 l 688 200 l 688 0 l 60 0 l 60 967 l 694 967 l 665 768 m 661 1233 l 460 1038 l 296 1038 l 94 1233 l 188 1340 l 378 1221 l 568 1340 l 661 1233 z "},"Ȩ":{"ha":722,"x_min":60,"x_max":694,"o":"m 346 200 l 688 200 l 688 0 l 442 0 l 442 -60 q 594 -210 594 -79 q 533 -333 594 -285 q 367 -382 472 -382 q 270 -369 315 -382 q 193 -335 225 -356 l 253 -215 q 342 -240 299 -240 q 404 -207 404 -240 q 374 -176 404 -185 q 274 -167 343 -167 l 294 0 l 60 0 l 60 967 l 694 967 l 665 768 l 346 768 l 346 588 l 626 588 l 626 394 l 346 394 l 346 200 z "},"Ê":{"ha":722,"x_min":60,"x_max":694,"o":"m 665 768 l 346 768 l 346 588 l 626 588 l 626 394 l 346 394 l 346 200 l 688 200 l 688 0 l 60 0 l 60 967 l 694 967 l 665 768 m 94 1151 l 296 1347 l 460 1347 l 661 1151 l 568 1044 l 378 1164 l 188 1044 l 94 1151 z "},"Ế":{"ha":722,"x_min":60,"x_max":868,"o":"m 665 768 l 346 768 l 346 588 l 626 588 l 626 394 l 346 394 l 346 200 l 688 200 l 688 0 l 60 0 l 60 967 l 694 967 l 665 768 z "},"Ệ":{"ha":722,"x_min":60,"x_max":694,"o":"m 665 768 l 346 768 l 346 588 l 626 588 l 626 394 l 346 394 l 346 200 l 688 200 l 688 0 l 60 0 l 60 967 l 694 967 l 665 768 m 94 1151 l 296 1347 l 460 1347 l 661 1151 l 568 1044 l 378 1164 l 188 1044 l 94 1151 m 374 -367 q 263 -324 307 -367 q 219 -219 219 -282 q 263 -115 219 -157 q 374 -72 307 -72 q 484 -115 440 -72 q 528 -219 528 -157 q 484 -324 528 -282 q 374 -367 440 -367 z "},"Ề":{"ha":722,"x_min":-111,"x_max":694,"o":"m 665 768 l 346 768 l 346 588 l 626 588 l 626 394 l 346 394 l 346 200 l 688 200 l 688 0 l 60 0 l 60 967 l 694 967 l 665 768 z "},"Ể":{"ha":722,"x_min":60,"x_max":831,"o":"m 665 768 l 346 768 l 346 588 l 626 588 l 626 394 l 346 394 l 346 200 l 688 200 l 688 0 l 60 0 l 60 967 l 694 967 l 665 768 z "},"Ễ":{"ha":722,"x_min":60,"x_max":694,"o":"m 665 768 l 346 768 l 346 588 l 626 588 l 626 394 l 346 394 l 346 200 l 688 200 l 688 0 l 60 0 l 60 967 l 694 967 l 665 768 z "},"Ȅ":{"ha":722,"x_min":18,"x_max":694,"o":"m 665 768 l 346 768 l 346 588 l 626 588 l 626 394 l 346 394 l 346 200 l 688 200 l 688 0 l 60 0 l 60 967 l 694 967 l 665 768 z "},"Ë":{"ha":722,"x_min":60,"x_max":694,"o":"m 665 768 l 346 768 l 346 588 l 626 588 l 626 394 l 346 394 l 346 200 l 688 200 l 688 0 l 60 0 l 60 967 l 694 967 l 665 768 z "},"Ė":{"ha":722,"x_min":60,"x_max":694,"o":"m 665 768 l 346 768 l 346 588 l 626 588 l 626 394 l 346 394 l 346 200 l 688 200 l 688 0 l 60 0 l 60 967 l 694 967 l 665 768 z "},"Ẹ":{"ha":722,"x_min":60,"x_max":694,"o":"m 665 768 l 346 768 l 346 588 l 626 588 l 626 394 l 346 394 l 346 200 l 688 200 l 688 0 l 60 0 l 60 967 l 694 967 l 665 768 m 374 -367 q 263 -324 307 -367 q 219 -219 219 -282 q 263 -115 219 -157 q 374 -72 307 -72 q 484 -115 440 -72 q 528 -219 528 -157 q 484 -324 528 -282 q 374 -367 440 -367 z "},"È":{"ha":722,"x_min":60,"x_max":694,"o":"m 665 768 l 346 768 l 346 588 l 626 588 l 626 394 l 346 394 l 346 200 l 688 200 l 688 0 l 60 0 l 60 967 l 694 967 l 665 768 m 589 1178 l 519 1040 l 167 1167 l 265 1367 l 589 1178 z "},"Ẻ":{"ha":722,"x_min":60,"x_max":694,"o":"m 665 768 l 346 768 l 346 588 l 626 588 l 626 394 l 346 394 l 346 200 l 688 200 l 688 0 l 60 0 l 60 967 l 694 967 l 665 768 m 301 1190 q 377 1203 354 1192 q 400 1239 400 1214 q 386 1267 400 1257 q 349 1278 372 1278 q 306 1274 325 1278 q 263 1260 288 1269 l 222 1363 q 386 1401 288 1401 q 524 1360 475 1401 q 572 1251 572 1318 q 542 1161 572 1196 q 453 1115 511 1126 l 453 1061 l 301 1061 l 301 1190 z "},"Ȇ":{"ha":722,"x_min":60,"x_max":694,"o":"m 665 768 l 346 768 l 346 588 l 626 588 l 626 394 l 346 394 l 346 200 l 688 200 l 688 0 l 60 0 l 60 967 l 694 967 l 665 768 m 378 1346 q 560 1268 496 1346 q 635 1074 625 1190 l 492 1050 q 451 1131 479 1101 q 378 1160 422 1160 q 305 1131 333 1160 q 264 1050 276 1101 l 121 1074 q 195 1268 131 1190 q 378 1346 260 1346 z "},"Ē":{"ha":722,"x_min":60,"x_max":694,"o":"m 665 768 l 346 768 l 346 588 l 626 588 l 626 394 l 346 394 l 346 200 l 688 200 l 688 0 l 60 0 l 60 967 l 694 967 l 665 768 z "},"Ę":{"ha":722,"x_min":60,"x_max":694,"o":"m 346 200 l 688 200 l 688 0 l 632 0 q 508 -65 543 -31 q 472 -132 472 -100 q 543 -193 472 -193 q 628 -182 579 -193 l 611 -342 q 508 -353 563 -353 q 349 -306 411 -353 q 286 -178 286 -258 q 388 0 286 -69 l 60 0 l 60 967 l 694 967 l 665 768 l 346 768 l 346 588 l 626 588 l 626 394 l 346 394 l 346 200 z "},"Ɛ":{"ha":768,"x_min":21,"x_max":782,"o":"m 415 994 q 599 961 518 994 q 750 861 679 928 l 618 722 q 451 794 538 794 q 340 703 340 794 q 371 631 340 656 q 461 606 401 606 l 574 606 l 542 410 l 467 410 q 356 378 393 410 q 318 290 318 347 q 354 204 318 233 q 453 175 390 175 q 544 194 503 175 q 633 256 586 214 l 782 111 q 422 -28 650 -28 q 213 8 304 -28 q 72 112 122 44 q 21 268 21 179 q 87 435 21 375 q 279 510 153 496 q 105 593 161 533 q 49 736 49 653 q 96 870 49 811 q 226 962 143 929 q 415 994 310 994 z "},"Ǝ":{"ha":722,"x_min":35,"x_max":663,"o":"m 663 967 l 663 0 l 35 0 l 35 200 l 376 200 l 376 394 l 96 394 l 96 588 l 376 588 l 376 768 l 42 768 l 42 967 l 663 967 z "},"Ʃ":{"ha":699,"x_min":14,"x_max":685,"o":"m 685 765 l 328 765 l 533 522 l 533 428 l 324 206 l 685 206 l 685 0 l 14 0 l 14 200 l 256 472 l 14 767 l 14 967 l 685 967 l 685 765 z "},"Ɇ":{"ha":722,"x_min":60,"x_max":694,"o":"m 433 200 l 688 200 l 688 0 l 381 0 l 353 -107 l 261 -86 l 283 0 l 60 0 l 60 967 l 539 967 l 563 1054 l 653 1033 l 635 967 l 694 967 l 665 768 l 583 768 l 536 588 l 626 588 l 626 394 l 485 394 l 433 200 m 346 588 l 439 588 l 488 768 l 346 768 l 346 588 m 346 235 l 388 394 l 346 394 l 346 235 z "},"Ẽ":{"ha":722,"x_min":60,"x_max":694,"o":"m 665 768 l 346 768 l 346 588 l 626 588 l 626 394 l 346 394 l 346 200 l 688 200 l 688 0 l 60 0 l 60 967 l 694 967 l 665 768 z "},"Ʒ":{"ha":785,"x_min":0,"x_max":764,"o":"m 489 564 q 692 483 619 554 q 764 292 764 411 q 715 130 764 203 q 574 15 667 57 q 353 -28 482 -28 q 148 12 233 -28 q 0 125 63 51 l 142 263 q 236 197 193 217 q 336 178 279 178 q 433 210 396 178 q 469 304 469 243 q 430 385 469 360 q 324 411 390 411 l 176 411 l 176 560 l 396 767 l 63 767 l 63 967 l 706 967 l 706 774 l 489 564 z "},"Ǯ":{"ha":785,"x_min":0,"x_max":764,"o":"m 489 564 q 692 483 619 554 q 764 292 764 411 q 715 130 764 203 q 574 15 667 57 q 353 -28 482 -28 q 148 12 233 -28 q 0 125 63 51 l 142 263 q 236 197 193 217 q 336 178 279 178 q 433 210 396 178 q 469 304 469 243 q 430 385 469 360 q 324 411 390 411 l 176 411 l 176 560 l 396 767 l 63 767 l 63 967 l 706 967 l 706 774 l 489 564 m 668 1233 l 467 1038 l 303 1038 l 101 1233 l 194 1340 l 385 1221 l 575 1340 l 668 1233 z "},"Ƹ":{"ha":785,"x_min":21,"x_max":785,"o":"m 785 125 q 633 12 719 51 q 422 -28 546 -28 q 207 14 297 -28 q 69 128 117 56 q 21 292 21 200 q 97 479 21 406 q 296 564 172 553 l 79 774 l 79 967 l 722 967 l 722 767 l 393 767 l 608 556 l 608 411 l 461 411 q 354 381 393 411 q 315 296 315 350 q 349 209 315 240 q 440 178 383 178 q 547 198 500 178 q 643 263 593 218 l 785 125 z "},"F":{"ha":674,"x_min":60,"x_max":674,"o":"m 60 967 l 674 967 l 644 768 l 346 768 l 346 557 l 608 557 l 608 358 l 346 358 l 346 0 l 60 0 l 60 967 z "},"Ḟ":{"ha":674,"x_min":60,"x_max":674,"o":"m 60 967 l 674 967 l 644 768 l 346 768 l 346 557 l 608 557 l 608 358 l 346 358 l 346 0 l 60 0 l 60 967 z "},"Ƒ":{"ha":674,"x_min":-193,"x_max":674,"o":"m 346 768 l 346 557 l 608 557 l 608 358 l 346 358 l 346 -22 q 260 -240 346 -165 q 25 -315 174 -315 q -193 -253 -107 -315 l -104 -86 q -55 -108 -74 -101 q -10 -114 -36 -114 q 42 -95 24 -114 q 60 -40 60 -76 l 60 967 l 674 967 l 644 768 l 346 768 z "},"G":{"ha":907,"x_min":28,"x_max":858,"o":"m 515 994 q 706 960 619 994 q 858 868 793 925 l 719 724 q 626 778 668 761 q 532 794 585 794 q 376 717 431 794 q 322 483 322 640 q 339 298 322 365 q 391 203 356 231 q 485 175 426 175 q 583 199 536 175 l 583 375 l 486 375 l 460 568 l 858 568 l 858 83 q 683 1 782 31 q 493 -28 585 -28 q 142 102 256 -28 q 28 485 28 232 q 90 760 28 644 q 264 935 153 875 q 515 994 375 994 z "},"Ǵ":{"ha":907,"x_min":28,"x_max":858,"o":"m 515 994 q 706 960 619 994 q 858 868 793 925 l 719 724 q 626 778 668 761 q 532 794 585 794 q 376 717 431 794 q 322 483 322 640 q 339 298 322 365 q 391 203 356 231 q 485 175 426 175 q 583 199 536 175 l 583 375 l 486 375 l 460 568 l 858 568 l 858 83 q 683 1 782 31 q 493 -28 585 -28 q 142 102 256 -28 q 28 485 28 232 q 90 760 28 644 q 264 935 153 875 q 515 994 375 994 m 697 1167 l 344 1040 l 275 1178 l 600 1367 l 697 1167 z "},"Ğ":{"ha":907,"x_min":28,"x_max":858,"o":"m 515 994 q 706 960 619 994 q 858 868 793 925 l 719 724 q 626 778 668 761 q 532 794 585 794 q 376 717 431 794 q 322 483 322 640 q 339 298 322 365 q 391 203 356 231 q 485 175 426 175 q 583 199 536 175 l 583 375 l 486 375 l 460 568 l 858 568 l 858 83 q 683 1 782 31 q 493 -28 585 -28 q 142 102 256 -28 q 28 485 28 232 q 90 760 28 644 q 264 935 153 875 q 515 994 375 994 m 486 1036 q 304 1112 369 1036 q 229 1294 239 1188 l 372 1318 q 413 1249 385 1276 q 486 1222 442 1222 q 559 1249 531 1222 q 600 1318 588 1276 l 743 1294 q 668 1112 733 1188 q 486 1036 603 1036 z "},"Ǧ":{"ha":907,"x_min":28,"x_max":858,"o":"m 515 994 q 706 960 619 994 q 858 868 793 925 l 719 724 q 626 778 668 761 q 532 794 585 794 q 376 717 431 794 q 322 483 322 640 q 339 298 322 365 q 391 203 356 231 q 485 175 426 175 q 583 199 536 175 l 583 375 l 486 375 l 460 568 l 858 568 l 858 83 q 683 1 782 31 q 493 -28 585 -28 q 142 102 256 -28 q 28 485 28 232 q 90 760 28 644 q 264 935 153 875 q 515 994 375 994 m 769 1233 l 568 1038 l 404 1038 l 203 1233 l 296 1340 l 486 1221 l 676 1340 l 769 1233 z "},"Ĝ":{"ha":907,"x_min":28,"x_max":858,"o":"m 515 994 q 706 960 619 994 q 858 868 793 925 l 719 724 q 626 778 668 761 q 532 794 585 794 q 376 717 431 794 q 322 483 322 640 q 339 298 322 365 q 391 203 356 231 q 485 175 426 175 q 583 199 536 175 l 583 375 l 486 375 l 460 568 l 858 568 l 858 83 q 683 1 782 31 q 493 -28 585 -28 q 142 102 256 -28 q 28 485 28 232 q 90 760 28 644 q 264 935 153 875 q 515 994 375 994 m 203 1151 l 404 1347 l 568 1347 l 769 1151 l 676 1044 l 486 1164 l 296 1044 l 203 1151 z "},"Ģ":{"ha":907,"x_min":28,"x_max":858,"o":"m 515 994 q 706 960 619 994 q 858 868 793 925 l 719 724 q 626 778 668 761 q 532 794 585 794 q 376 717 431 794 q 322 483 322 640 q 339 298 322 365 q 391 203 356 231 q 485 175 426 175 q 583 199 536 175 l 583 375 l 486 375 l 460 568 l 858 568 l 858 83 q 683 1 782 31 q 493 -28 585 -28 q 142 102 256 -28 q 28 485 28 232 q 90 760 28 644 q 264 935 153 875 q 515 994 375 994 z "},"Ġ":{"ha":907,"x_min":28,"x_max":858,"o":"m 515 994 q 706 960 619 994 q 858 868 793 925 l 719 724 q 626 778 668 761 q 532 794 585 794 q 376 717 431 794 q 322 483 322 640 q 339 298 322 365 q 391 203 356 231 q 485 175 426 175 q 583 199 536 175 l 583 375 l 486 375 l 460 568 l 858 568 l 858 83 q 683 1 782 31 q 493 -28 585 -28 q 142 102 256 -28 q 28 485 28 232 q 90 760 28 644 q 264 935 153 875 q 515 994 375 994 z "},"Ɠ":{"ha":869,"x_min":28,"x_max":1081,"o":"m 876 1199 q 1081 1147 990 1199 l 1008 978 q 919 1001 958 1001 q 873 983 888 1001 q 858 926 858 965 l 858 868 l 728 733 q 628 779 674 764 q 532 794 583 794 q 376 717 431 794 q 322 483 322 640 q 339 298 322 365 q 391 203 356 231 q 485 175 426 175 q 583 199 536 175 l 583 375 l 486 375 l 460 568 l 858 568 l 858 83 q 683 1 782 31 q 493 -28 585 -28 q 142 102 256 -28 q 28 485 28 232 q 90 758 28 643 q 256 934 153 874 q 483 994 360 994 q 625 968 558 994 q 692 1138 631 1078 q 876 1199 754 1199 z "},"Ɂ":{"ha":743,"x_min":0,"x_max":715,"o":"m 201 468 l 264 486 q 385 553 350 511 q 421 671 421 594 q 390 761 421 728 q 304 794 360 794 q 219 777 260 794 q 132 722 179 760 l 0 861 q 349 994 140 994 q 544 956 461 994 q 671 848 626 918 q 715 685 715 778 q 670 514 715 579 q 525 407 625 449 l 488 392 l 488 0 l 201 0 l 201 468 z "},"Ǥ":{"ha":944,"x_min":28,"x_max":944,"o":"m 944 251 l 858 251 l 858 83 q 683 1 782 31 q 493 -28 585 -28 q 142 102 256 -28 q 28 485 28 232 q 90 760 28 644 q 264 935 153 875 q 515 994 375 994 q 858 868 715 994 l 721 724 q 626 778 668 761 q 532 794 585 794 q 376 717 431 794 q 322 483 322 640 q 339 298 322 365 q 391 203 356 231 q 485 175 426 175 q 544 181 515 175 q 611 199 572 186 l 611 251 l 472 251 l 472 397 l 611 397 l 611 444 l 482 444 l 460 603 l 858 603 l 858 397 l 944 397 l 944 251 z "},"Ȝ":{"ha":736,"x_min":-14,"x_max":715,"o":"m 335 994 q 520 961 440 994 q 644 868 600 928 q 688 729 688 808 q 631 581 688 642 q 457 496 575 519 q 651 428 586 482 q 715 269 715 374 q 566 8 715 122 q 97 -167 417 -107 l 75 36 q 290 115 215 76 q 392 192 365 153 q 418 285 418 232 q 269 396 418 396 l 163 396 l 194 592 l 275 592 q 396 696 396 592 q 292 794 396 794 q 114 722 206 794 l -14 861 q 335 994 126 994 z "},"H":{"ha":913,"x_min":60,"x_max":853,"o":"m 567 390 l 346 390 l 346 0 l 60 0 l 60 967 l 346 967 l 346 610 l 567 610 l 567 967 l 853 967 l 853 0 l 567 0 l 567 390 z "},"Ħ":{"ha":932,"x_min":0,"x_max":932,"o":"m 932 688 l 863 688 l 863 0 l 576 0 l 576 390 l 356 390 l 356 0 l 69 0 l 69 688 l 0 688 l 0 835 l 69 835 l 69 967 l 356 967 l 356 835 l 576 835 l 576 967 l 863 967 l 863 835 l 932 835 l 932 688 m 576 688 l 356 688 l 356 610 l 576 610 l 576 688 z "},"Ȟ":{"ha":913,"x_min":60,"x_max":853,"o":"m 567 390 l 346 390 l 346 0 l 60 0 l 60 967 l 346 967 l 346 610 l 567 610 l 567 967 l 853 967 l 853 0 l 567 0 l 567 390 m 740 1233 l 539 1038 l 375 1038 l 174 1233 l 267 1340 l 457 1221 l 647 1340 l 740 1233 z "},"Ĥ":{"ha":913,"x_min":60,"x_max":853,"o":"m 567 390 l 346 390 l 346 0 l 60 0 l 60 967 l 346 967 l 346 610 l 567 610 l 567 967 l 853 967 l 853 0 l 567 0 l 567 390 m 174 1151 l 375 1347 l 539 1347 l 740 1151 l 647 1044 l 457 1164 l 267 1044 l 174 1151 z "},"Ḥ":{"ha":913,"x_min":60,"x_max":853,"o":"m 567 390 l 346 390 l 346 0 l 60 0 l 60 967 l 346 967 l 346 610 l 567 610 l 567 967 l 853 967 l 853 0 l 567 0 l 567 390 m 457 -367 q 347 -324 390 -367 q 303 -219 303 -282 q 347 -115 303 -157 q 457 -72 390 -72 q 567 -115 524 -72 q 611 -219 611 -157 q 567 -324 611 -282 q 457 -367 524 -367 z "},"Ɦ":{"ha":1158,"x_min":0,"x_max":1099,"o":"m 1099 967 l 1099 0 l 813 0 l 813 390 l 592 390 l 592 0 l 306 0 l 306 768 l 271 768 q 214 717 214 768 q 219 678 214 697 q 235 632 224 660 l 64 560 q 17 648 35 606 q 0 736 0 690 q 78 906 0 844 q 286 967 157 967 l 592 967 l 592 610 l 813 610 l 813 967 l 1099 967 z "},"Ɥ":{"ha":865,"x_min":14,"x_max":806,"o":"m 806 967 l 806 0 l 519 0 l 519 339 q 322 271 439 271 q 94 365 175 271 q 14 626 14 460 l 14 967 l 294 967 l 294 626 q 320 510 294 546 q 407 474 346 474 q 471 483 444 474 q 519 511 497 492 l 519 967 l 806 967 z "},"Ƕ":{"ha":1306,"x_min":60,"x_max":1271,"o":"m 1228 742 q 1259 544 1247 640 q 1271 339 1271 447 q 1217 131 1271 214 q 1076 10 1163 49 q 888 -28 989 -28 q 656 44 744 -28 q 567 265 567 115 l 567 390 l 346 390 l 346 0 l 60 0 l 60 967 l 346 967 l 346 610 l 567 610 l 567 967 l 853 967 l 853 264 q 867 190 853 211 q 910 169 882 169 q 972 215 949 169 q 996 360 996 261 q 958 742 996 517 l 1228 742 z "},"I":{"ha":406,"x_min":60,"x_max":346,"o":"m 346 0 l 60 0 l 60 967 l 346 967 l 346 0 z "},"Ĳ":{"ha":857,"x_min":60,"x_max":800,"o":"m 346 0 l 60 0 l 60 967 l 346 967 l 346 0 m 800 154 q 751 -55 800 28 q 628 -183 703 -137 q 454 -262 554 -229 l 378 -61 q 467 -8 438 -39 q 505 63 496 24 q 514 164 514 103 l 514 967 l 800 967 l 800 154 z "},"Í":{"ha":406,"x_min":-8,"x_max":414,"o":"m 346 0 l 60 0 l 60 967 l 346 967 l 346 0 m 414 1167 l 61 1040 l -8 1178 l 317 1367 l 414 1167 z "},"Ĭ":{"ha":406,"x_min":-54,"x_max":460,"o":"m 346 0 l 60 0 l 60 967 l 346 967 l 346 0 m 203 1036 q 21 1112 86 1036 q -54 1294 -44 1188 l 89 1318 q 130 1249 101 1276 q 203 1222 158 1222 q 276 1249 247 1222 q 317 1318 304 1276 l 460 1294 q 385 1112 450 1188 q 203 1036 319 1036 z "},"Ǐ":{"ha":406,"x_min":-81,"x_max":486,"o":"m 346 0 l 60 0 l 60 967 l 346 967 l 346 0 m 486 1233 l 285 1038 l 121 1038 l -81 1233 l 13 1340 l 203 1221 l 393 1340 l 486 1233 z "},"Î":{"ha":406,"x_min":-81,"x_max":486,"o":"m 346 0 l 60 0 l 60 967 l 346 967 l 346 0 m -81 1151 l 121 1347 l 285 1347 l 486 1151 l 393 1044 l 203 1164 l 13 1044 l -81 1151 z "},"Ȉ":{"ha":406,"x_min":-157,"x_max":411,"o":"m 346 0 l 60 0 l 60 967 l 346 967 l 346 0 z "},"Ï":{"ha":406,"x_min":-103,"x_max":501,"o":"m 346 0 l 60 0 l 60 967 l 346 967 l 346 0 z "},"Ḯ":{"ha":406,"x_min":-114,"x_max":518,"o":"m 346 0 l 60 0 l 60 967 l 346 967 l 346 0 m 436 1450 l 199 1243 l 97 1333 l 292 1592 l 436 1450 m 18 1297 q 111 1260 72 1297 q 150 1169 150 1222 q 111 1078 150 1115 q 18 1040 72 1040 q -76 1078 -37 1040 q -114 1169 -114 1115 q -76 1260 -114 1222 q 18 1297 -37 1297 m 386 1297 q 479 1260 440 1297 q 518 1169 518 1222 q 479 1078 518 1115 q 386 1040 440 1040 q 292 1078 331 1040 q 254 1169 254 1115 q 292 1260 254 1222 q 386 1297 331 1297 z "},"İ":{"ha":406,"x_min":49,"x_max":357,"o":"m 346 0 l 60 0 l 60 967 l 346 967 l 346 0 z "},"Ị":{"ha":406,"x_min":49,"x_max":357,"o":"m 346 0 l 60 0 l 60 967 l 346 967 l 346 0 m 203 -367 q 92 -324 136 -367 q 49 -219 49 -282 q 92 -115 49 -157 q 203 -72 136 -72 q 313 -115 269 -72 q 357 -219 357 -157 q 313 -324 357 -282 q 203 -367 269 -367 z "},"Ì":{"ha":406,"x_min":-8,"x_max":414,"o":"m 346 0 l 60 0 l 60 967 l 346 967 l 346 0 m 414 1178 l 344 1040 l -8 1167 l 90 1367 l 414 1178 z "},"Ỉ":{"ha":406,"x_min":47,"x_max":397,"o":"m 346 0 l 60 0 l 60 967 l 346 967 l 346 0 m 126 1190 q 202 1203 179 1192 q 225 1239 225 1214 q 211 1267 225 1257 q 174 1278 197 1278 q 131 1274 150 1278 q 88 1260 113 1269 l 47 1363 q 211 1401 113 1401 q 349 1360 300 1401 q 397 1251 397 1318 q 367 1161 397 1196 q 278 1115 336 1126 l 278 1061 l 126 1061 l 126 1190 z "},"Ȋ":{"ha":406,"x_min":-54,"x_max":460,"o":"m 346 0 l 60 0 l 60 967 l 346 967 l 346 0 m 203 1346 q 385 1268 321 1346 q 460 1074 450 1190 l 317 1050 q 276 1131 304 1101 q 203 1160 247 1160 q 130 1131 158 1160 q 89 1050 101 1101 l -54 1074 q 20 1268 -44 1190 q 203 1346 85 1346 z "},"Ī":{"ha":406,"x_min":-24,"x_max":428,"o":"m 346 0 l 60 0 l 60 967 l 346 967 l 346 0 z "},"Į":{"ha":406,"x_min":-64,"x_max":346,"o":"m 346 967 l 346 0 l 282 0 q 158 -65 193 -29 q 122 -132 122 -100 q 193 -193 122 -193 q 278 -182 229 -193 l 261 -342 q 158 -353 213 -353 q -1 -306 61 -353 q -64 -178 -64 -258 q 60 15 -64 -60 l 60 967 l 346 967 z "},"Ɩ":{"ha":564,"x_min":46,"x_max":585,"o":"m 585 35 q 367 -28 499 -28 q 132 47 218 -28 q 46 265 46 122 l 46 967 l 332 967 l 332 247 q 350 192 332 211 q 401 174 368 174 q 447 180 428 174 q 496 201 465 186 l 585 35 z "},"Ɨ":{"ha":472,"x_min":0,"x_max":472,"o":"m 472 396 l 379 396 l 379 0 l 93 0 l 93 396 l 0 396 l 0 604 l 93 604 l 93 967 l 379 967 l 379 604 l 472 604 l 472 396 z "},"Ĩ":{"ha":406,"x_min":-76,"x_max":482,"o":"m 346 0 l 60 0 l 60 967 l 346 967 l 346 0 z "},"J":{"ha":451,"x_min":-28,"x_max":394,"o":"m 394 154 q 346 -55 394 28 q 223 -183 297 -137 q 49 -262 149 -229 l -28 -61 q 61 -8 32 -39 q 99 63 90 24 q 108 164 108 103 l 108 967 l 394 967 l 394 154 z "},"Ĵ":{"ha":451,"x_min":-32,"x_max":535,"o":"m 394 154 q 346 -55 394 28 q 223 -183 297 -137 q 49 -262 149 -229 l -28 -61 q 61 -8 32 -39 q 99 63 90 24 q 108 164 108 103 l 108 967 l 394 967 l 394 154 m -32 1151 l 169 1347 l 333 1347 l 535 1151 l 442 1044 l 251 1164 l 61 1044 l -32 1151 z "},"Ʝ":{"ha":513,"x_min":-125,"x_max":601,"o":"m 556 -162 q 426 -114 492 -133 q 311 -265 392 -215 q 101 -315 231 -315 q -66 -269 -7 -315 q -125 -143 -125 -224 q -61 -3 -125 -51 q 121 44 3 44 q 167 43 154 44 l 167 967 l 453 967 l 453 79 q 450 6 453 53 q 601 -57 528 -18 l 556 -162 m 86 -185 q 144 -160 125 -185 q 165 -78 163 -136 q 119 -76 156 -76 q 50 -91 71 -76 q 29 -135 29 -106 q 44 -172 29 -158 q 86 -185 58 -185 z "},"Ɉ":{"ha":488,"x_min":-28,"x_max":488,"o":"m 488 372 l 394 372 l 394 154 q 346 -55 394 28 q 223 -183 297 -137 q 49 -262 149 -229 l -28 -61 q 61 -8 32 -39 q 99 63 90 24 q 108 164 108 103 l 108 372 l 15 372 l 15 581 l 108 581 l 108 967 l 394 967 l 394 581 l 488 581 l 488 372 z "},"K":{"ha":915,"x_min":60,"x_max":943,"o":"m 346 0 l 60 0 l 60 967 l 346 967 l 346 0 m 644 538 l 943 0 l 618 0 l 354 515 l 624 967 l 918 967 l 644 538 z "},"Ǩ":{"ha":915,"x_min":60,"x_max":943,"o":"m 346 0 l 60 0 l 60 967 l 346 967 l 346 0 m 644 538 l 943 0 l 618 0 l 354 515 l 624 967 l 918 967 l 644 538 m 742 1233 l 540 1038 l 376 1038 l 175 1233 l 268 1340 l 458 1221 l 649 1340 l 742 1233 z "},"Ķ":{"ha":915,"x_min":60,"x_max":943,"o":"m 346 0 l 60 0 l 60 967 l 346 967 l 346 0 m 644 538 l 943 0 l 618 0 l 354 515 l 624 967 l 918 967 l 644 538 z "},"Ƙ":{"ha":938,"x_min":60,"x_max":965,"o":"m 354 515 l 521 806 q 641 953 582 911 q 799 994 700 994 q 965 940 894 994 l 897 783 q 881 791 896 785 q 844 797 867 797 q 801 784 818 797 q 760 731 783 771 l 644 538 l 943 0 l 618 0 l 354 515 m 346 0 l 60 0 l 60 967 l 346 967 l 346 0 z "},"L":{"ha":725,"x_min":60,"x_max":711,"o":"m 346 219 l 711 219 l 682 0 l 60 0 l 60 967 l 346 967 l 346 219 z "},"Ǉ":{"ha":1142,"x_min":60,"x_max":1085,"o":"m 346 219 l 711 219 l 682 0 l 60 0 l 60 967 l 346 967 l 346 219 m 1085 154 q 1036 -55 1085 28 q 913 -183 988 -137 q 739 -262 839 -229 l 663 -61 q 751 -8 722 -39 q 790 63 781 24 q 799 164 799 103 l 799 967 l 1085 967 l 1085 154 z "},"Ĺ":{"ha":725,"x_min":-8,"x_max":711,"o":"m 346 219 l 711 219 l 682 0 l 60 0 l 60 967 l 346 967 l 346 219 m 414 1167 l 61 1040 l -8 1178 l 317 1367 l 414 1167 z "},"Ƚ":{"ha":758,"x_min":0,"x_max":744,"o":"m 744 219 l 715 0 l 93 0 l 93 400 l 0 400 l 0 608 l 93 608 l 93 967 l 379 967 l 379 608 l 472 608 l 472 400 l 379 400 l 379 219 l 744 219 z "},"Ɬ":{"ha":903,"x_min":-7,"x_max":889,"o":"m 889 219 l 860 0 l 238 0 l 238 344 q 53 400 114 347 q -7 539 -7 453 q 44 666 -7 621 q 182 711 96 711 q 238 704 213 711 l 238 967 l 524 967 l 524 496 q 690 514 611 500 l 708 374 q 524 350 624 356 l 524 219 l 889 219 m 164 542 q 238 490 164 490 l 238 575 q 203 579 219 579 q 174 569 185 579 q 164 542 164 558 z "},"Ľ":{"ha":725,"x_min":60,"x_max":711,"o":"m 346 219 l 711 219 l 682 0 l 60 0 l 60 967 l 346 967 l 346 219 m 624 965 l 428 994 l 393 663 l 543 640 l 624 965 z "},"Ḽ":{"ha":725,"x_min":60,"x_max":711,"o":"m 346 219 l 711 219 l 682 0 l 60 0 l 60 967 l 346 967 l 346 219 m 88 -293 l 289 -83 l 453 -83 l 654 -293 l 561 -400 l 371 -267 l 181 -400 l 88 -293 z "},"Ļ":{"ha":725,"x_min":60,"x_max":711,"o":"m 346 219 l 711 219 l 682 0 l 60 0 l 60 967 l 346 967 l 346 219 z "},"Ŀ":{"ha":725,"x_min":60,"x_max":717,"o":"m 346 219 l 711 219 l 682 0 l 60 0 l 60 967 l 346 967 l 346 219 m 563 713 q 673 670 629 713 q 717 565 717 628 q 673 460 717 503 q 563 418 629 418 q 452 460 496 418 q 408 565 408 503 q 452 670 408 628 q 563 713 496 713 z "},"Ḷ":{"ha":725,"x_min":60,"x_max":711,"o":"m 346 219 l 711 219 l 682 0 l 60 0 l 60 967 l 346 967 l 346 219 m 371 -367 q 260 -324 304 -367 q 217 -219 217 -282 q 260 -115 217 -157 q 371 -72 304 -72 q 481 -115 438 -72 q 525 -219 525 -157 q 481 -324 525 -282 q 371 -367 438 -367 z "},"ǈ":{"ha":1103,"x_min":60,"x_max":1061,"o":"m 346 219 l 711 219 l 682 0 l 60 0 l 60 967 l 346 967 l 346 219 z "},"Ł":{"ha":800,"x_min":0,"x_max":786,"o":"m 786 219 l 757 0 l 135 0 l 135 285 l 88 256 l 0 399 l 135 482 l 135 967 l 421 967 l 421 658 l 571 751 l 660 610 l 421 463 l 421 219 l 786 219 z "},"M":{"ha":1099,"x_min":21,"x_max":1078,"o":"m 1078 0 l 796 0 l 789 343 q 788 464 788 383 q 799 738 788 606 l 685 97 l 414 97 l 292 738 q 310 407 310 544 l 310 344 l 303 0 l 21 0 l 90 967 l 443 967 l 554 340 l 654 967 l 1008 967 l 1078 0 z "},"Ḿ":{"ha":1099,"x_min":21,"x_max":1078,"o":"m 1078 0 l 796 0 l 789 343 q 788 464 788 383 q 799 738 788 606 l 685 97 l 414 97 l 292 738 q 310 407 310 544 l 310 344 l 303 0 l 21 0 l 90 967 l 443 967 l 554 340 l 654 967 l 1008 967 l 1078 0 m 760 1167 l 407 1040 l 338 1178 l 663 1367 l 760 1167 z "},"Ṁ":{"ha":1099,"x_min":21,"x_max":1078,"o":"m 1078 0 l 796 0 l 789 343 q 788 464 788 383 q 799 738 788 606 l 685 97 l 414 97 l 292 738 q 310 407 310 544 l 310 344 l 303 0 l 21 0 l 90 967 l 443 967 l 554 340 l 654 967 l 1008 967 l 1078 0 z "},"Ɯ":{"ha":1256,"x_min":46,"x_max":1196,"o":"m 1196 967 l 1196 0 l 944 0 l 925 76 q 824 -3 874 21 q 710 -28 774 -28 q 588 4 640 -28 q 508 93 536 36 q 400 1 453 29 q 278 -28 347 -28 q 108 45 169 -28 q 46 236 46 118 l 46 967 l 332 967 l 332 251 q 346 199 332 218 q 386 179 360 179 q 422 194 404 179 q 456 227 439 208 q 478 253 472 246 l 478 967 l 764 967 l 764 251 q 778 199 764 218 q 817 179 792 179 q 863 197 842 179 q 910 253 885 214 l 910 967 l 1196 967 z "},"N":{"ha":904,"x_min":60,"x_max":844,"o":"m 844 0 l 486 0 l 275 706 l 279 675 q 303 490 294 574 q 313 300 313 406 l 313 0 l 60 0 l 60 967 l 411 967 l 631 258 l 626 288 q 601 466 610 383 q 592 657 592 549 l 592 967 l 844 967 l 844 0 z "},"Ǌ":{"ha":1356,"x_min":60,"x_max":1299,"o":"m 844 0 l 486 0 l 275 706 l 279 675 q 303 490 294 574 q 313 300 313 406 l 313 0 l 60 0 l 60 967 l 411 967 l 631 258 l 626 288 q 601 466 610 383 q 592 657 592 549 l 592 967 l 844 967 l 844 0 m 1299 154 q 1250 -55 1299 28 q 1127 -183 1201 -137 q 953 -262 1053 -229 l 876 -61 q 965 -8 936 -39 q 1003 63 994 24 q 1013 164 1013 103 l 1013 967 l 1299 967 l 1299 154 z "},"Ń":{"ha":904,"x_min":60,"x_max":844,"o":"m 844 0 l 486 0 l 275 706 l 279 675 q 303 490 294 574 q 313 300 313 406 l 313 0 l 60 0 l 60 967 l 411 967 l 631 258 l 626 288 q 601 466 610 383 q 592 657 592 549 l 592 967 l 844 967 l 844 0 m 664 1167 l 311 1040 l 242 1178 l 567 1367 l 664 1167 z "},"Ň":{"ha":904,"x_min":60,"x_max":844,"o":"m 844 0 l 486 0 l 275 706 l 279 675 q 303 490 294 574 q 313 300 313 406 l 313 0 l 60 0 l 60 967 l 411 967 l 631 258 l 626 288 q 601 466 610 383 q 592 657 592 549 l 592 967 l 844 967 l 844 0 m 736 1233 l 535 1038 l 371 1038 l 169 1233 l 263 1340 l 453 1221 l 643 1340 l 736 1233 z "},"Ṋ":{"ha":904,"x_min":60,"x_max":844,"o":"m 844 0 l 486 0 l 275 706 l 279 675 q 303 490 294 574 q 313 300 313 406 l 313 0 l 60 0 l 60 967 l 411 967 l 631 258 l 626 288 q 601 466 610 383 q 592 657 592 549 l 592 967 l 844 967 l 844 0 m 169 -293 l 371 -83 l 535 -83 l 736 -293 l 643 -400 l 453 -267 l 263 -400 l 169 -293 z "},"Ņ":{"ha":904,"x_min":60,"x_max":844,"o":"m 844 0 l 486 0 l 275 706 l 279 675 q 303 490 294 574 q 313 300 313 406 l 313 0 l 60 0 l 60 967 l 411 967 l 631 258 l 626 288 q 601 466 610 383 q 592 657 592 549 l 592 967 l 844 967 l 844 0 z "},"Ṅ":{"ha":904,"x_min":60,"x_max":844,"o":"m 844 0 l 486 0 l 275 706 l 279 675 q 303 490 294 574 q 313 300 313 406 l 313 0 l 60 0 l 60 967 l 411 967 l 631 258 l 626 288 q 601 466 610 383 q 592 657 592 549 l 592 967 l 844 967 l 844 0 z "},"Ṇ":{"ha":904,"x_min":60,"x_max":844,"o":"m 844 0 l 486 0 l 275 706 l 279 675 q 303 490 294 574 q 313 300 313 406 l 313 0 l 60 0 l 60 967 l 411 967 l 631 258 l 626 288 q 601 466 610 383 q 592 657 592 549 l 592 967 l 844 967 l 844 0 m 453 -367 q 342 -324 386 -367 q 299 -219 299 -282 q 342 -115 299 -157 q 453 -72 386 -72 q 563 -115 519 -72 q 607 -219 607 -157 q 563 -324 607 -282 q 453 -367 519 -367 z "},"Ǹ":{"ha":904,"x_min":60,"x_max":844,"o":"m 844 0 l 486 0 l 275 706 l 279 675 q 303 490 294 574 q 313 300 313 406 l 313 0 l 60 0 l 60 967 l 411 967 l 631 258 l 626 288 q 601 466 610 383 q 592 657 592 549 l 592 967 l 844 967 l 844 0 m 664 1178 l 594 1040 l 242 1167 l 340 1367 l 664 1178 z "},"Ŋ":{"ha":904,"x_min":60,"x_max":844,"o":"m 844 967 l 844 -22 q 758 -240 844 -165 q 524 -315 672 -315 q 306 -253 392 -315 l 394 -86 q 444 -108 425 -101 q 489 -114 463 -114 q 540 -95 522 -114 q 558 -40 558 -76 l 558 0 l 486 0 l 275 706 l 279 675 q 303 490 294 574 q 313 300 313 406 l 313 0 l 60 0 l 60 967 l 411 967 l 631 258 l 626 288 q 601 466 610 383 q 592 657 592 549 l 592 967 l 844 967 z "},"Ɲ":{"ha":904,"x_min":-196,"x_max":844,"o":"m 844 967 l 844 0 l 486 0 l 275 706 l 279 675 q 303 490 294 574 q 313 300 313 406 l 313 -22 q 234 -240 313 -165 q 22 -315 156 -315 q -196 -253 -110 -315 l -107 -93 q -58 -115 -76 -108 q -12 -121 -39 -121 q 41 -102 22 -121 q 60 -47 60 -83 l 60 967 l 411 967 l 631 258 l 626 288 q 601 466 610 383 q 592 657 592 549 l 592 967 l 844 967 z "},"ǋ":{"ha":1296,"x_min":60,"x_max":1254,"o":"m 844 0 l 486 0 l 275 706 l 279 675 q 303 490 294 574 q 313 300 313 406 l 313 0 l 60 0 l 60 967 l 411 967 l 631 258 l 626 288 q 601 466 610 383 q 592 657 592 549 l 592 967 l 844 967 l 844 0 z "},"Ƞ":{"ha":893,"x_min":60,"x_max":840,"o":"m 594 994 q 777 925 714 994 q 840 744 840 856 l 840 -299 l 554 -299 l 554 701 q 538 767 554 746 q 485 788 522 788 q 414 770 446 788 q 346 714 382 753 l 346 0 l 60 0 l 60 967 l 311 967 l 331 888 q 452 969 393 944 q 594 994 511 994 z "},"Ñ":{"ha":904,"x_min":60,"x_max":844,"o":"m 844 0 l 486 0 l 275 706 l 279 675 q 303 490 294 574 q 313 300 313 406 l 313 0 l 60 0 l 60 967 l 411 967 l 631 258 l 626 288 q 601 466 610 383 q 592 657 592 549 l 592 967 l 844 967 l 844 0 z "},"O":{"ha":958,"x_min":28,"x_max":931,"o":"m 479 994 q 813 860 696 994 q 931 485 931 726 q 878 213 931 328 q 724 35 825 97 q 479 -28 622 -28 q 145 108 263 -28 q 28 485 28 243 q 81 756 28 642 q 235 933 133 871 q 479 994 336 994 m 479 792 q 361 722 397 792 q 325 485 325 651 q 361 247 325 318 q 479 175 397 175 q 598 246 563 175 q 633 485 633 317 q 597 722 633 651 q 479 792 561 792 z "},"Ȣ":{"ha":903,"x_min":28,"x_max":875,"o":"m 699 564 q 875 310 875 492 q 823 140 875 218 q 675 17 771 63 q 451 -28 579 -28 q 227 17 324 -28 q 79 138 131 61 q 28 310 28 214 q 73 462 28 399 q 203 561 118 525 q 81 769 81 625 l 81 967 l 367 967 l 367 750 q 385 672 367 697 q 451 647 403 647 q 518 672 500 647 q 536 750 536 697 l 536 967 l 822 967 l 822 769 q 790 649 822 701 q 699 564 758 596 m 451 175 q 545 213 513 175 q 578 314 578 250 q 544 417 578 378 q 451 456 511 456 q 358 417 392 456 q 325 314 325 378 q 358 213 325 250 q 451 175 392 175 z "},"Ó":{"ha":958,"x_min":28,"x_max":931,"o":"m 479 994 q 813 860 696 994 q 931 485 931 726 q 878 213 931 328 q 724 35 825 97 q 479 -28 622 -28 q 145 108 263 -28 q 28 485 28 243 q 81 756 28 642 q 235 933 133 871 q 479 994 336 994 m 479 792 q 361 722 397 792 q 325 485 325 651 q 361 247 325 318 q 479 175 397 175 q 598 246 563 175 q 633 485 633 317 q 597 722 633 651 q 479 792 561 792 m 690 1167 l 338 1040 l 268 1178 l 593 1367 l 690 1167 z "},"Ŏ":{"ha":958,"x_min":28,"x_max":931,"o":"m 479 994 q 813 860 696 994 q 931 485 931 726 q 878 213 931 328 q 724 35 825 97 q 479 -28 622 -28 q 145 108 263 -28 q 28 485 28 243 q 81 756 28 642 q 235 933 133 871 q 479 994 336 994 m 479 792 q 361 722 397 792 q 325 485 325 651 q 361 247 325 318 q 479 175 397 175 q 598 246 563 175 q 633 485 633 317 q 597 722 633 651 q 479 792 561 792 m 479 1036 q 297 1112 363 1036 q 222 1294 232 1188 l 365 1318 q 406 1249 378 1276 q 479 1222 435 1222 q 552 1249 524 1222 q 593 1318 581 1276 l 736 1294 q 661 1112 726 1188 q 479 1036 596 1036 z "},"Ǒ":{"ha":958,"x_min":28,"x_max":931,"o":"m 479 994 q 813 860 696 994 q 931 485 931 726 q 878 213 931 328 q 724 35 825 97 q 479 -28 622 -28 q 145 108 263 -28 q 28 485 28 243 q 81 756 28 642 q 235 933 133 871 q 479 994 336 994 m 479 792 q 361 722 397 792 q 325 485 325 651 q 361 247 325 318 q 479 175 397 175 q 598 246 563 175 q 633 485 633 317 q 597 722 633 651 q 479 792 561 792 m 763 1233 l 561 1038 l 397 1038 l 196 1233 l 289 1340 l 479 1221 l 669 1340 l 763 1233 z "},"Ɵ":{"ha":958,"x_min":28,"x_max":931,"o":"z "},"Ô":{"ha":958,"x_min":28,"x_max":931,"o":"m 479 994 q 813 860 696 994 q 931 485 931 726 q 878 213 931 328 q 724 35 825 97 q 479 -28 622 -28 q 145 108 263 -28 q 28 485 28 243 q 81 756 28 642 q 235 933 133 871 q 479 994 336 994 m 479 792 q 361 722 397 792 q 325 485 325 651 q 361 247 325 318 q 479 175 397 175 q 598 246 563 175 q 633 485 633 317 q 597 722 633 651 q 479 792 561 792 m 196 1151 l 397 1347 l 561 1347 l 763 1151 l 669 1044 l 479 1164 l 289 1044 l 196 1151 z "},"Ố":{"ha":958,"x_min":28,"x_max":969,"o":"m 479 994 q 813 860 696 994 q 931 485 931 726 q 878 213 931 328 q 724 35 825 97 q 479 -28 622 -28 q 145 108 263 -28 q 28 485 28 243 q 81 756 28 642 q 235 933 133 871 q 479 994 336 994 m 479 792 q 361 722 397 792 q 325 485 325 651 q 361 247 325 318 q 479 175 397 175 q 598 246 563 175 q 633 485 633 317 q 597 722 633 651 q 479 792 561 792 z "},"Ộ":{"ha":958,"x_min":28,"x_max":931,"o":"m 479 994 q 813 860 696 994 q 931 485 931 726 q 878 213 931 328 q 724 35 825 97 q 479 -28 622 -28 q 145 108 263 -28 q 28 485 28 243 q 81 756 28 642 q 235 933 133 871 q 479 994 336 994 m 479 792 q 361 722 397 792 q 325 485 325 651 q 361 247 325 318 q 479 175 397 175 q 598 246 563 175 q 633 485 633 317 q 597 722 633 651 q 479 792 561 792 m 196 1151 l 397 1347 l 561 1347 l 763 1151 l 669 1044 l 479 1164 l 289 1044 l 196 1151 m 479 -367 q 369 -324 413 -367 q 325 -219 325 -282 q 369 -115 325 -157 q 479 -72 413 -72 q 590 -115 546 -72 q 633 -219 633 -157 q 590 -324 633 -282 q 479 -367 546 -367 z "},"Ồ":{"ha":958,"x_min":-10,"x_max":931,"o":"m 479 994 q 813 860 696 994 q 931 485 931 726 q 878 213 931 328 q 724 35 825 97 q 479 -28 622 -28 q 145 108 263 -28 q 28 485 28 243 q 81 756 28 642 q 235 933 133 871 q 479 994 336 994 m 479 792 q 361 722 397 792 q 325 485 325 651 q 361 247 325 318 q 479 175 397 175 q 598 246 563 175 q 633 485 633 317 q 597 722 633 651 q 479 792 561 792 z "},"Ổ":{"ha":958,"x_min":28,"x_max":932,"o":"m 479 994 q 813 860 696 994 q 931 485 931 726 q 878 213 931 328 q 724 35 825 97 q 479 -28 622 -28 q 145 108 263 -28 q 28 485 28 243 q 81 756 28 642 q 235 933 133 871 q 479 994 336 994 m 479 792 q 361 722 397 792 q 325 485 325 651 q 361 247 325 318 q 479 175 397 175 q 598 246 563 175 q 633 485 633 317 q 597 722 633 651 q 479 792 561 792 z "},"Ỗ":{"ha":958,"x_min":28,"x_max":931,"o":"m 479 994 q 813 860 696 994 q 931 485 931 726 q 878 213 931 328 q 724 35 825 97 q 479 -28 622 -28 q 145 108 263 -28 q 28 485 28 243 q 81 756 28 642 q 235 933 133 871 q 479 994 336 994 m 479 792 q 361 722 397 792 q 325 485 325 651 q 361 247 325 318 q 479 175 397 175 q 598 246 563 175 q 633 485 633 317 q 597 722 633 651 q 479 792 561 792 z "},"Ȍ":{"ha":958,"x_min":28,"x_max":931,"o":"m 479 994 q 813 860 696 994 q 931 485 931 726 q 878 213 931 328 q 724 35 825 97 q 479 -28 622 -28 q 145 108 263 -28 q 28 485 28 243 q 81 756 28 642 q 235 933 133 871 q 479 994 336 994 m 479 792 q 361 722 397 792 q 325 485 325 651 q 361 247 325 318 q 479 175 397 175 q 598 246 563 175 q 633 485 633 317 q 597 722 633 651 q 479 792 561 792 z "},"Ö":{"ha":958,"x_min":28,"x_max":931,"o":"m 479 994 q 813 860 696 994 q 931 485 931 726 q 878 213 931 328 q 724 35 825 97 q 479 -28 622 -28 q 145 108 263 -28 q 28 485 28 243 q 81 756 28 642 q 235 933 133 871 q 479 994 336 994 m 479 792 q 361 722 397 792 q 325 485 325 651 q 361 247 325 318 q 479 175 397 175 q 598 246 563 175 q 633 485 633 317 q 597 722 633 651 q 479 792 561 792 z "},"Ȫ":{"ha":958,"x_min":28,"x_max":931,"o":"m 479 994 q 813 860 696 994 q 931 485 931 726 q 878 213 931 328 q 724 35 825 97 q 479 -28 622 -28 q 145 108 263 -28 q 28 485 28 243 q 81 756 28 642 q 235 933 133 871 q 479 994 336 994 m 479 792 q 361 722 397 792 q 325 485 325 651 q 361 247 325 318 q 479 175 397 175 q 598 246 563 175 q 633 485 633 317 q 597 722 633 651 q 479 792 561 792 z "},"Ȯ":{"ha":958,"x_min":28,"x_max":931,"o":"m 479 994 q 813 860 696 994 q 931 485 931 726 q 878 213 931 328 q 724 35 825 97 q 479 -28 622 -28 q 145 108 263 -28 q 28 485 28 243 q 81 756 28 642 q 235 933 133 871 q 479 994 336 994 m 479 792 q 361 722 397 792 q 325 485 325 651 q 361 247 325 318 q 479 175 397 175 q 598 246 563 175 q 633 485 633 317 q 597 722 633 651 q 479 792 561 792 z "},"Ȱ":{"ha":958,"x_min":28,"x_max":931,"o":"m 479 994 q 813 860 696 994 q 931 485 931 726 q 878 213 931 328 q 724 35 825 97 q 479 -28 622 -28 q 145 108 263 -28 q 28 485 28 243 q 81 756 28 642 q 235 933 133 871 q 479 994 336 994 m 479 792 q 361 722 397 792 q 325 485 325 651 q 361 247 325 318 q 479 175 397 175 q 598 246 563 175 q 633 485 633 317 q 597 722 633 651 q 479 792 561 792 z "},"Ọ":{"ha":958,"x_min":28,"x_max":931,"o":"m 479 994 q 813 860 696 994 q 931 485 931 726 q 878 213 931 328 q 724 35 825 97 q 479 -28 622 -28 q 145 108 263 -28 q 28 485 28 243 q 81 756 28 642 q 235 933 133 871 q 479 994 336 994 m 479 792 q 361 722 397 792 q 325 485 325 651 q 361 247 325 318 q 479 175 397 175 q 598 246 563 175 q 633 485 633 317 q 597 722 633 651 q 479 792 561 792 m 479 -367 q 369 -324 413 -367 q 325 -219 325 -282 q 369 -115 325 -157 q 479 -72 413 -72 q 590 -115 546 -72 q 633 -219 633 -157 q 590 -324 633 -282 q 479 -367 546 -367 z "},"Ò":{"ha":958,"x_min":28,"x_max":931,"o":"m 479 994 q 813 860 696 994 q 931 485 931 726 q 878 213 931 328 q 724 35 825 97 q 479 -28 622 -28 q 145 108 263 -28 q 28 485 28 243 q 81 756 28 642 q 235 933 133 871 q 479 994 336 994 m 479 792 q 361 722 397 792 q 325 485 325 651 q 361 247 325 318 q 479 175 397 175 q 598 246 563 175 q 633 485 633 317 q 597 722 633 651 q 479 792 561 792 m 690 1178 l 621 1040 l 268 1167 l 367 1367 l 690 1178 z "},"Ỏ":{"ha":958,"x_min":28,"x_max":931,"o":"m 479 994 q 813 860 696 994 q 931 485 931 726 q 878 213 931 328 q 724 35 825 97 q 479 -28 622 -28 q 145 108 263 -28 q 28 485 28 243 q 81 756 28 642 q 235 933 133 871 q 479 994 336 994 m 479 792 q 361 722 397 792 q 325 485 325 651 q 361 247 325 318 q 479 175 397 175 q 598 246 563 175 q 633 485 633 317 q 597 722 633 651 q 479 792 561 792 m 403 1190 q 478 1203 456 1192 q 501 1239 501 1214 q 488 1267 501 1257 q 450 1278 474 1278 q 408 1274 426 1278 q 364 1260 389 1269 l 324 1363 q 488 1401 389 1401 q 625 1360 576 1401 q 674 1251 674 1318 q 643 1161 674 1196 q 554 1115 613 1126 l 554 1061 l 403 1061 l 403 1190 z "},"Ơ":{"ha":1004,"x_min":28,"x_max":1032,"o":"m 1032 946 q 992 823 1032 869 q 878 761 951 776 q 931 485 931 644 q 878 213 931 328 q 724 35 825 97 q 479 -28 622 -28 q 145 108 263 -28 q 28 485 28 243 q 81 756 28 642 q 235 933 133 871 q 479 994 336 994 q 794 879 679 994 q 842 903 828 883 q 856 963 856 922 q 839 1053 856 1006 l 1006 1074 q 1032 946 1032 1018 m 479 175 q 598 246 563 175 q 633 485 633 317 q 597 722 633 651 q 479 792 561 792 q 361 722 397 792 q 325 485 325 651 q 361 247 325 318 q 479 175 397 175 z "},"Ớ":{"ha":1004,"x_min":28,"x_max":1032,"o":"m 338 1040 l 268 1178 l 593 1367 l 690 1167 l 338 1040 m 1032 946 q 992 823 1032 869 q 878 761 951 776 q 931 485 931 644 q 878 213 931 328 q 724 35 825 97 q 479 -28 622 -28 q 145 108 263 -28 q 28 485 28 243 q 81 756 28 642 q 235 933 133 871 q 479 994 336 994 q 794 879 679 994 q 842 903 828 883 q 856 963 856 922 q 839 1053 856 1006 l 1006 1074 q 1032 946 1032 1018 m 479 175 q 598 246 563 175 q 633 485 633 317 q 597 722 633 651 q 479 792 561 792 q 361 722 397 792 q 325 485 325 651 q 361 247 325 318 q 479 175 397 175 z "},"Ợ":{"ha":1004,"x_min":28,"x_max":1032,"o":"m 1032 946 q 992 823 1032 869 q 878 761 951 776 q 931 485 931 644 q 878 213 931 328 q 724 35 825 97 q 479 -28 622 -28 q 145 108 263 -28 q 28 485 28 243 q 81 756 28 642 q 235 933 133 871 q 479 994 336 994 q 794 879 679 994 q 842 903 828 883 q 856 963 856 922 q 839 1053 856 1006 l 1006 1074 q 1032 946 1032 1018 m 479 175 q 598 246 563 175 q 633 485 633 317 q 597 722 633 651 q 479 792 561 792 q 361 722 397 792 q 325 485 325 651 q 361 247 325 318 q 479 175 397 175 m 479 -72 q 590 -115 546 -72 q 633 -219 633 -157 q 590 -324 633 -282 q 479 -367 546 -367 q 369 -324 413 -367 q 325 -219 325 -282 q 369 -115 325 -157 q 479 -72 413 -72 z "},"Ờ":{"ha":1004,"x_min":28,"x_max":1032,"o":"m 621 1040 l 268 1167 l 367 1367 l 690 1178 l 621 1040 m 1032 946 q 992 823 1032 869 q 878 761 951 776 q 931 485 931 644 q 878 213 931 328 q 724 35 825 97 q 479 -28 622 -28 q 145 108 263 -28 q 28 485 28 243 q 81 756 28 642 q 235 933 133 871 q 479 994 336 994 q 794 879 679 994 q 842 903 828 883 q 856 963 856 922 q 839 1053 856 1006 l 1006 1074 q 1032 946 1032 1018 m 479 175 q 598 246 563 175 q 633 485 633 317 q 597 722 633 651 q 479 792 561 792 q 361 722 397 792 q 325 485 325 651 q 361 247 325 318 q 479 175 397 175 z "},"Ở":{"ha":1004,"x_min":28,"x_max":1032,"o":"m 450 1278 q 408 1274 426 1278 q 364 1260 389 1269 l 324 1363 q 488 1401 389 1401 q 625 1360 576 1401 q 674 1251 674 1318 q 643 1161 674 1196 q 554 1115 613 1126 l 554 1061 l 403 1061 l 403 1190 q 478 1203 456 1192 q 501 1239 501 1214 q 488 1267 501 1257 q 450 1278 474 1278 m 1032 946 q 992 823 1032 869 q 878 761 951 776 q 931 485 931 644 q 878 213 931 328 q 724 35 825 97 q 479 -28 622 -28 q 145 108 263 -28 q 28 485 28 243 q 81 756 28 642 q 235 933 133 871 q 479 994 336 994 q 794 879 679 994 q 842 903 828 883 q 856 963 856 922 q 839 1053 856 1006 l 1006 1074 q 1032 946 1032 1018 m 479 175 q 598 246 563 175 q 633 485 633 317 q 597 722 633 651 q 479 792 561 792 q 361 722 397 792 q 325 485 325 651 q 361 247 325 318 q 479 175 397 175 z "},"Ỡ":{"ha":1004,"x_min":28,"x_max":1032,"o":"m 403 1099 q 363 1085 378 1099 q 329 1039 347 1071 l 200 1101 q 280 1237 229 1183 q 396 1290 331 1290 q 448 1283 426 1290 q 493 1260 469 1276 q 530 1237 517 1243 q 557 1231 543 1231 q 596 1244 581 1231 q 629 1290 611 1258 l 758 1228 q 678 1092 729 1144 q 560 1039 626 1039 q 510 1046 531 1039 q 468 1068 490 1053 q 430 1092 442 1086 q 403 1099 418 1099 m 1032 946 q 992 823 1032 869 q 878 761 951 776 q 931 485 931 644 q 878 213 931 328 q 724 35 825 97 q 479 -28 622 -28 q 145 108 263 -28 q 28 485 28 243 q 81 756 28 642 q 235 933 133 871 q 479 994 336 994 q 794 879 679 994 q 842 903 828 883 q 856 963 856 922 q 839 1053 856 1006 l 1006 1074 q 1032 946 1032 1018 m 479 175 q 598 246 563 175 q 633 485 633 317 q 597 722 633 651 q 479 792 561 792 q 361 722 397 792 q 325 485 325 651 q 361 247 325 318 q 479 175 397 175 z "},"Ő":{"ha":958,"x_min":28,"x_max":931,"o":"m 479 994 q 813 860 696 994 q 931 485 931 726 q 878 213 931 328 q 724 35 825 97 q 479 -28 622 -28 q 145 108 263 -28 q 28 485 28 243 q 81 756 28 642 q 235 933 133 871 q 479 994 336 994 m 479 792 q 361 722 397 792 q 325 485 325 651 q 361 247 325 318 q 479 175 397 175 q 598 246 563 175 q 633 485 633 317 q 597 722 633 651 q 479 792 561 792 m 574 1267 l 396 1035 l 278 1096 l 404 1356 l 574 1267 m 822 1244 l 632 1022 l 518 1090 l 658 1343 l 822 1244 z "},"Ƣ":{"ha":1363,"x_min":28,"x_max":1303,"o":"m 986 994 q 1217 919 1132 994 q 1303 701 1303 844 l 1303 -299 l 1017 -299 l 1017 713 q 947 800 1017 800 q 863 782 906 800 q 931 485 931 661 q 878 213 931 328 q 724 35 825 97 q 479 -28 622 -28 q 145 108 263 -28 q 28 485 28 243 q 81 756 28 642 q 235 933 133 871 q 479 994 336 994 q 740 919 631 994 q 986 994 851 994 m 479 175 q 598 246 563 175 q 633 485 633 317 q 597 722 633 651 q 479 792 561 792 q 361 722 397 792 q 325 485 325 651 q 361 247 325 318 q 479 175 397 175 z "},"Ȏ":{"ha":958,"x_min":28,"x_max":931,"o":"m 479 994 q 813 860 696 994 q 931 485 931 726 q 878 213 931 328 q 724 35 825 97 q 479 -28 622 -28 q 145 108 263 -28 q 28 485 28 243 q 81 756 28 642 q 235 933 133 871 q 479 994 336 994 m 479 792 q 361 722 397 792 q 325 485 325 651 q 361 247 325 318 q 479 175 397 175 q 598 246 563 175 q 633 485 633 317 q 597 722 633 651 q 479 792 561 792 m 479 1346 q 662 1268 597 1346 q 736 1074 726 1190 l 593 1050 q 552 1131 581 1101 q 479 1160 524 1160 q 406 1131 435 1160 q 365 1050 378 1101 l 222 1074 q 297 1268 232 1190 q 479 1346 361 1346 z "},"Ō":{"ha":958,"x_min":28,"x_max":931,"o":"m 479 994 q 813 860 696 994 q 931 485 931 726 q 878 213 931 328 q 724 35 825 97 q 479 -28 622 -28 q 145 108 263 -28 q 28 485 28 243 q 81 756 28 642 q 235 933 133 871 q 479 994 336 994 m 479 792 q 361 722 397 792 q 325 485 325 651 q 361 247 325 318 q 479 175 397 175 q 598 246 563 175 q 633 485 633 317 q 597 722 633 651 q 479 792 561 792 z "},"Ṓ":{"ha":958,"x_min":28,"x_max":931,"o":"m 479 994 q 813 860 696 994 q 931 485 931 726 q 878 213 931 328 q 724 35 825 97 q 479 -28 622 -28 q 145 108 263 -28 q 28 485 28 243 q 81 756 28 642 q 235 933 133 871 q 479 994 336 994 m 479 792 q 361 722 397 792 q 325 485 325 651 q 361 247 325 318 q 479 175 397 175 q 598 246 563 175 q 633 485 633 317 q 597 722 633 651 q 479 792 561 792 z "},"Ṑ":{"ha":958,"x_min":28,"x_max":931,"o":"m 479 994 q 813 860 696 994 q 931 485 931 726 q 878 213 931 328 q 724 35 825 97 q 479 -28 622 -28 q 145 108 263 -28 q 28 485 28 243 q 81 756 28 642 q 235 933 133 871 q 479 994 336 994 m 479 792 q 361 722 397 792 q 325 485 325 651 q 361 247 325 318 q 479 175 397 175 q 598 246 563 175 q 633 485 633 317 q 597 722 633 651 q 479 792 561 792 z "},"Ꞷ":{"ha":1272,"x_min":56,"x_max":1217,"o":"m 1106 967 q 1188 722 1160 844 q 1217 422 1217 600 q 1135 83 1217 194 q 890 -28 1053 -28 q 638 151 690 -28 q 549 16 614 60 q 397 -28 483 -28 q 138 82 221 -28 q 56 422 56 192 q 84 721 56 599 q 165 967 113 843 l 428 967 l 418 929 q 361 688 381 793 q 342 439 342 583 q 362 235 342 296 q 431 175 382 175 q 499 278 499 175 l 499 554 l 781 554 l 781 278 q 795 197 781 219 q 847 175 810 175 q 912 235 893 175 q 931 439 931 294 q 917 640 931 549 q 883 799 903 731 q 831 967 864 867 l 1106 967 z "},"Ǫ":{"ha":958,"x_min":28,"x_max":931,"o":"m 931 485 q 858 174 931 300 q 651 0 786 49 q 527 -65 563 -29 q 492 -132 492 -100 q 563 -193 492 -193 q 647 -182 599 -193 l 631 -342 q 528 -353 582 -353 q 368 -306 431 -353 q 306 -178 306 -258 q 381 -19 306 -83 q 119 141 210 10 q 28 485 28 272 q 81 756 28 642 q 235 933 133 871 q 479 994 336 994 q 813 860 696 994 q 931 485 931 726 m 479 792 q 361 722 397 792 q 325 485 325 651 q 361 247 325 318 q 479 175 397 175 q 598 246 563 175 q 633 485 633 317 q 597 722 633 651 q 479 792 561 792 z "},"Ǭ":{"ha":958,"x_min":28,"x_max":931,"o":"m 704 1075 l 253 1075 l 253 1261 l 704 1261 l 704 1075 m 931 485 q 858 174 931 300 q 651 0 786 49 q 527 -65 563 -29 q 492 -132 492 -100 q 563 -193 492 -193 q 647 -182 599 -193 l 631 -342 q 528 -353 582 -353 q 368 -306 431 -353 q 306 -178 306 -258 q 381 -19 306 -83 q 119 141 210 10 q 28 485 28 272 q 81 756 28 642 q 235 933 133 871 q 479 994 336 994 q 813 860 696 994 q 931 485 931 726 m 479 792 q 361 722 397 792 q 325 485 325 651 q 361 247 325 318 q 479 175 397 175 q 598 246 563 175 q 633 485 633 317 q 597 722 633 651 q 479 792 561 792 z "},"Ɔ":{"ha":811,"x_min":0,"x_max":783,"o":"m 339 994 q 572 934 471 994 q 728 759 672 874 q 783 486 783 644 q 727 206 783 322 q 567 31 671 90 q 325 -28 464 -28 q 144 10 226 -28 q 0 107 61 47 l 124 264 q 217 206 175 225 q 310 188 258 188 q 440 258 394 188 q 486 486 486 329 q 444 717 486 644 q 322 789 403 789 q 231 772 272 789 q 147 721 190 754 l 11 881 q 157 965 78 936 q 339 994 236 994 z "},"Ø":{"ha":958,"x_min":28,"x_max":931,"o":"m 738 926 q 881 753 832 865 q 931 485 931 640 q 878 213 931 328 q 724 35 825 97 q 479 -28 622 -28 q 425 -25 461 -28 l 374 -193 l 165 -137 l 221 42 q 77 216 126 103 q 28 485 28 329 q 81 756 28 642 q 235 933 133 871 q 479 994 336 994 q 533 992 497 994 l 585 1157 l 793 1101 l 738 926 m 479 792 q 361 722 397 792 q 325 485 325 651 q 346 267 325 336 l 504 790 q 479 792 496 792 m 479 175 q 598 246 563 175 q 633 485 633 317 q 613 700 633 632 l 456 176 q 479 175 463 175 z "},"Ǿ":{"ha":958,"x_min":28,"x_max":931,"o":"m 738 926 q 881 753 832 865 q 931 485 931 640 q 878 213 931 328 q 724 35 825 97 q 479 -28 622 -28 q 425 -25 461 -28 l 374 -193 l 165 -137 l 221 42 q 77 216 126 103 q 28 485 28 329 q 81 756 28 642 q 235 933 133 871 q 479 994 336 994 q 533 992 497 994 l 585 1157 l 793 1101 l 738 926 m 479 792 q 361 722 397 792 q 325 485 325 651 q 346 267 325 336 l 504 790 q 479 792 496 792 m 479 175 q 598 246 563 175 q 633 485 633 317 q 613 700 633 632 l 456 176 q 479 175 463 175 m 690 1229 l 338 1103 l 268 1240 l 593 1429 l 690 1229 z "},"Õ":{"ha":958,"x_min":28,"x_max":931,"o":"m 479 994 q 813 860 696 994 q 931 485 931 726 q 878 213 931 328 q 724 35 825 97 q 479 -28 622 -28 q 145 108 263 -28 q 28 485 28 243 q 81 756 28 642 q 235 933 133 871 q 479 994 336 994 m 479 792 q 361 722 397 792 q 325 485 325 651 q 361 247 325 318 q 479 175 397 175 q 598 246 563 175 q 633 485 633 317 q 597 722 633 651 q 479 792 561 792 z "},"Ṍ":{"ha":958,"x_min":28,"x_max":931,"o":"m 479 994 q 813 860 696 994 q 931 485 931 726 q 878 213 931 328 q 724 35 825 97 q 479 -28 622 -28 q 145 108 263 -28 q 28 485 28 243 q 81 756 28 642 q 235 933 133 871 q 479 994 336 994 m 479 792 q 361 722 397 792 q 325 485 325 651 q 361 247 325 318 q 479 175 397 175 q 598 246 563 175 q 633 485 633 317 q 597 722 633 651 q 479 792 561 792 z "},"Ȭ":{"ha":958,"x_min":28,"x_max":931,"o":"m 479 994 q 813 860 696 994 q 931 485 931 726 q 878 213 931 328 q 724 35 825 97 q 479 -28 622 -28 q 145 108 263 -28 q 28 485 28 243 q 81 756 28 642 q 235 933 133 871 q 479 994 336 994 m 479 792 q 361 722 397 792 q 325 485 325 651 q 361 247 325 318 q 479 175 397 175 q 598 246 563 175 q 633 485 633 317 q 597 722 633 651 q 479 792 561 792 z "},"Œ":{"ha":1264,"x_min":28,"x_max":1236,"o":"m 896 394 q 824 200 878 283 l 1229 200 l 1229 0 l 603 0 q 454 -28 536 -28 q 226 33 322 -28 q 79 210 131 94 q 28 485 28 325 q 79 756 28 640 q 226 933 131 871 q 454 994 322 994 q 608 967 540 994 l 1236 967 l 1207 768 l 825 768 q 894 588 876 690 l 1168 588 l 1168 394 l 896 394 m 465 175 q 572 247 539 175 q 606 485 606 318 q 572 720 606 649 q 465 792 538 792 q 359 720 393 792 q 325 485 325 649 q 359 247 325 319 q 465 175 393 175 z "},"P":{"ha":849,"x_min":60,"x_max":828,"o":"m 408 967 q 717 884 607 967 q 828 642 828 801 q 723 389 828 476 q 440 301 618 301 l 346 301 l 346 0 l 60 0 l 60 967 l 408 967 m 413 503 q 536 642 536 503 q 404 768 536 768 l 346 768 l 346 503 l 413 503 z "},"Ṕ":{"ha":849,"x_min":60,"x_max":828,"o":"m 408 967 q 717 884 607 967 q 828 642 828 801 q 723 389 828 476 q 440 301 618 301 l 346 301 l 346 0 l 60 0 l 60 967 l 408 967 m 413 503 q 536 642 536 503 q 404 768 536 768 l 346 768 l 346 503 l 413 503 m 636 1167 l 283 1040 l 214 1178 l 539 1367 l 636 1167 z "},"Ṗ":{"ha":849,"x_min":60,"x_max":828,"o":"m 408 967 q 717 884 607 967 q 828 642 828 801 q 723 389 828 476 q 440 301 618 301 l 346 301 l 346 0 l 60 0 l 60 967 l 408 967 m 413 503 q 536 642 536 503 q 404 768 536 768 l 346 768 l 346 503 l 413 503 z "},"Ƥ":{"ha":1094,"x_min":0,"x_max":1074,"o":"m 654 967 q 963 884 853 967 q 1074 642 1074 801 q 969 389 1074 476 q 686 301 864 301 l 592 301 l 592 0 l 306 0 l 306 768 l 271 768 q 214 717 214 768 q 219 678 214 697 q 235 632 224 660 l 64 560 q 17 648 35 606 q 0 736 0 690 q 78 906 0 844 q 286 967 157 967 l 654 967 m 658 503 q 782 642 782 503 q 650 768 782 768 l 592 768 l 592 503 l 658 503 z "},"Þ":{"ha":849,"x_min":60,"x_max":828,"o":"m 408 824 q 717 741 607 824 q 828 497 828 658 q 723 236 828 325 q 440 147 618 147 l 346 147 l 346 0 l 60 0 l 60 967 l 346 967 l 346 824 l 408 824 m 413 349 q 505 385 474 349 q 536 497 536 421 q 404 625 536 625 l 346 625 l 346 349 l 413 349 z "},"Q":{"ha":958,"x_min":28,"x_max":1000,"o":"m 700 67 q 869 46 800 67 q 1000 -21 938 25 l 832 -240 q 670 -83 758 -143 q 458 -22 582 -22 q 227 38 324 -22 q 79 211 131 97 q 28 485 28 325 q 81 756 28 642 q 235 933 133 871 q 479 994 336 994 q 813 860 696 994 q 931 485 931 726 q 865 226 931 326 q 700 67 799 125 m 325 485 q 361 247 325 318 q 479 175 397 175 q 598 246 563 175 q 633 485 633 317 q 597 722 633 651 q 479 792 561 792 q 361 722 397 792 q 325 485 325 651 z "},"Ɋ":{"ha":938,"x_min":28,"x_max":1131,"o":"m 1131 -253 q 913 -315 1044 -315 q 678 -240 764 -315 q 592 -22 592 -165 l 592 36 q 410 -28 521 -28 q 207 33 293 -28 q 74 206 121 93 q 28 471 28 318 q 77 750 28 632 q 213 931 126 868 q 413 994 300 994 q 615 915 529 994 l 622 967 l 878 967 l 878 -40 q 896 -95 878 -76 q 947 -114 914 -114 q 992 -108 974 -114 q 1042 -86 1011 -101 l 1131 -253 m 476 168 q 592 208 542 168 l 592 747 q 476 792 544 792 q 362 718 399 792 q 325 471 325 644 q 362 236 325 304 q 476 168 399 168 z "},"R":{"ha":867,"x_min":60,"x_max":894,"o":"m 399 344 l 346 344 l 346 0 l 60 0 l 60 967 l 414 967 q 726 892 624 967 q 829 660 829 818 q 789 510 829 569 q 658 397 749 450 l 894 0 l 578 0 l 399 344 m 346 536 l 421 536 q 508 567 479 536 q 538 660 538 597 q 407 771 538 771 l 346 771 l 346 536 z "},"Ŕ":{"ha":867,"x_min":60,"x_max":894,"o":"m 399 344 l 346 344 l 346 0 l 60 0 l 60 967 l 414 967 q 726 892 624 967 q 829 660 829 818 q 789 510 829 569 q 658 397 749 450 l 894 0 l 578 0 l 399 344 m 346 536 l 421 536 q 508 567 479 536 q 538 660 538 597 q 407 771 538 771 l 346 771 l 346 536 m 631 1167 l 278 1040 l 208 1178 l 533 1367 l 631 1167 z "},"Ř":{"ha":867,"x_min":60,"x_max":894,"o":"m 399 344 l 346 344 l 346 0 l 60 0 l 60 967 l 414 967 q 726 892 624 967 q 829 660 829 818 q 789 510 829 569 q 658 397 749 450 l 894 0 l 578 0 l 399 344 m 346 536 l 421 536 q 508 567 479 536 q 538 660 538 597 q 407 771 538 771 l 346 771 l 346 536 m 703 1233 l 501 1038 l 338 1038 l 136 1233 l 229 1340 l 419 1221 l 610 1340 l 703 1233 z "},"Ŗ":{"ha":867,"x_min":60,"x_max":894,"o":"m 399 344 l 346 344 l 346 0 l 60 0 l 60 967 l 414 967 q 726 892 624 967 q 829 660 829 818 q 789 510 829 569 q 658 397 749 450 l 894 0 l 578 0 l 399 344 m 346 536 l 421 536 q 508 567 479 536 q 538 660 538 597 q 407 771 538 771 l 346 771 l 346 536 z "},"Ȑ":{"ha":867,"x_min":60,"x_max":894,"o":"m 399 344 l 346 344 l 346 0 l 60 0 l 60 967 l 414 967 q 726 892 624 967 q 829 660 829 818 q 789 510 829 569 q 658 397 749 450 l 894 0 l 578 0 l 399 344 m 346 536 l 421 536 q 508 567 479 536 q 538 660 538 597 q 407 771 538 771 l 346 771 l 346 536 z "},"Ṛ":{"ha":867,"x_min":60,"x_max":894,"o":"m 399 344 l 346 344 l 346 0 l 60 0 l 60 967 l 414 967 q 726 892 624 967 q 829 660 829 818 q 789 510 829 569 q 658 397 749 450 l 894 0 l 578 0 l 399 344 m 346 536 l 421 536 q 508 567 479 536 q 538 660 538 597 q 407 771 538 771 l 346 771 l 346 536 m 433 -367 q 323 -324 367 -367 q 279 -219 279 -282 q 323 -115 279 -157 q 433 -72 367 -72 q 544 -115 500 -72 q 588 -219 588 -157 q 544 -324 588 -282 q 433 -367 500 -367 z "},"Ȓ":{"ha":867,"x_min":60,"x_max":894,"o":"m 399 344 l 346 344 l 346 0 l 60 0 l 60 967 l 414 967 q 726 892 624 967 q 829 660 829 818 q 789 510 829 569 q 658 397 749 450 l 894 0 l 578 0 l 399 344 m 346 536 l 421 536 q 508 567 479 536 q 538 660 538 597 q 407 771 538 771 l 346 771 l 346 536 m 419 1346 q 602 1268 538 1346 q 676 1074 667 1190 l 533 1050 q 492 1131 521 1101 q 419 1160 464 1160 q 347 1131 375 1160 q 306 1050 318 1101 l 163 1074 q 237 1268 172 1190 q 419 1346 301 1346 z "},"Ɍ":{"ha":889,"x_min":14,"x_max":917,"o":"m 421 344 l 368 344 l 368 0 l 82 0 l 82 344 l 14 344 l 14 536 l 82 536 l 82 967 l 436 967 q 749 892 646 967 q 851 660 851 818 q 811 510 851 569 q 681 397 771 450 l 917 0 l 600 0 l 421 344 m 368 771 l 368 536 l 443 536 q 531 567 501 536 q 560 660 560 597 q 429 771 560 771 l 368 771 z "},"Ɽ":{"ha":867,"x_min":60,"x_max":894,"o":"m 415 -114 q 460 -108 442 -114 q 510 -86 479 -101 l 599 -253 q 381 -315 513 -315 q 146 -240 232 -315 q 60 -22 60 -165 l 60 967 l 414 967 q 726 892 624 967 q 829 660 829 818 q 789 510 829 569 q 658 397 749 450 l 894 0 l 578 0 l 399 344 l 346 344 l 346 -40 q 364 -95 346 -76 q 415 -114 382 -114 m 346 771 l 346 536 l 421 536 q 508 567 479 536 q 538 660 538 597 q 407 771 538 771 l 346 771 z "},"S":{"ha":817,"x_min":0,"x_max":796,"o":"m 415 994 q 772 863 636 994 l 646 714 q 439 792 549 792 q 361 774 388 792 q 335 722 335 756 q 349 681 335 697 q 398 651 364 665 q 508 613 432 638 q 728 490 661 564 q 796 289 796 417 q 747 124 796 196 q 606 13 697 53 q 389 -28 514 -28 q 164 13 261 -28 q 0 118 67 53 l 140 272 q 378 178 250 178 q 468 202 438 178 q 499 265 499 226 q 485 314 499 294 q 439 350 472 333 q 342 386 406 367 q 107 513 174 439 q 40 699 40 588 q 89 856 40 789 q 223 958 138 922 q 415 994 308 994 z "},"Ś":{"ha":817,"x_min":0,"x_max":796,"o":"m 415 994 q 772 863 636 994 l 646 714 q 439 792 549 792 q 361 774 388 792 q 335 722 335 756 q 349 681 335 697 q 398 651 364 665 q 508 613 432 638 q 728 490 661 564 q 796 289 796 417 q 747 124 796 196 q 606 13 697 53 q 389 -28 514 -28 q 164 13 261 -28 q 0 118 67 53 l 140 272 q 378 178 250 178 q 468 202 438 178 q 499 265 499 226 q 485 314 499 294 q 439 350 472 333 q 342 386 406 367 q 107 513 174 439 q 40 699 40 588 q 89 856 40 789 q 223 958 138 922 q 415 994 308 994 m 638 1167 l 285 1040 l 215 1178 l 540 1367 l 638 1167 z "},"Ꞌ":{"ha":368,"x_min":56,"x_max":313,"o":"m 56 967 l 313 967 l 282 453 l 86 453 l 56 967 z "},"Š":{"ha":817,"x_min":0,"x_max":796,"o":"m 415 994 q 772 863 636 994 l 646 714 q 439 792 549 792 q 361 774 388 792 q 335 722 335 756 q 349 681 335 697 q 398 651 364 665 q 508 613 432 638 q 728 490 661 564 q 796 289 796 417 q 747 124 796 196 q 606 13 697 53 q 389 -28 514 -28 q 164 13 261 -28 q 0 118 67 53 l 140 272 q 378 178 250 178 q 468 202 438 178 q 499 265 499 226 q 485 314 499 294 q 439 350 472 333 q 342 386 406 367 q 107 513 174 439 q 40 699 40 588 q 89 856 40 789 q 223 958 138 922 q 415 994 308 994 m 710 1233 l 508 1038 l 344 1038 l 143 1233 l 236 1340 l 426 1221 l 617 1340 l 710 1233 z "},"Ş":{"ha":817,"x_min":0,"x_max":796,"o":"m 796 289 q 711 81 796 165 q 475 -22 626 -3 l 475 -60 q 628 -210 628 -79 q 567 -333 628 -285 q 400 -382 506 -382 q 303 -369 349 -382 q 226 -335 258 -356 l 286 -215 q 375 -240 332 -240 q 438 -207 438 -240 q 407 -176 438 -185 q 307 -167 376 -167 l 325 -25 q 0 118 131 -7 l 140 272 q 378 178 250 178 q 468 202 438 178 q 499 265 499 226 q 485 314 499 294 q 439 350 472 333 q 342 386 406 367 q 107 513 174 439 q 40 699 40 588 q 89 856 40 789 q 223 958 138 922 q 415 994 308 994 q 772 863 636 994 l 646 714 q 439 792 549 792 q 361 774 388 792 q 335 722 335 756 q 349 681 335 697 q 398 651 364 665 q 508 613 432 638 q 728 490 661 564 q 796 289 796 417 z "},"Ŝ":{"ha":817,"x_min":0,"x_max":796,"o":"m 415 994 q 772 863 636 994 l 646 714 q 439 792 549 792 q 361 774 388 792 q 335 722 335 756 q 349 681 335 697 q 398 651 364 665 q 508 613 432 638 q 728 490 661 564 q 796 289 796 417 q 747 124 796 196 q 606 13 697 53 q 389 -28 514 -28 q 164 13 261 -28 q 0 118 67 53 l 140 272 q 378 178 250 178 q 468 202 438 178 q 499 265 499 226 q 485 314 499 294 q 439 350 472 333 q 342 386 406 367 q 107 513 174 439 q 40 699 40 588 q 89 856 40 789 q 223 958 138 922 q 415 994 308 994 m 143 1151 l 344 1347 l 508 1347 l 710 1151 l 617 1044 l 426 1164 l 236 1044 l 143 1151 z "},"Ș":{"ha":817,"x_min":0,"x_max":796,"o":"m 415 994 q 772 863 636 994 l 646 714 q 439 792 549 792 q 361 774 388 792 q 335 722 335 756 q 349 681 335 697 q 398 651 364 665 q 508 613 432 638 q 728 490 661 564 q 796 289 796 417 q 747 124 796 196 q 606 13 697 53 q 389 -28 514 -28 q 164 13 261 -28 q 0 118 67 53 l 140 272 q 378 178 250 178 q 468 202 438 178 q 499 265 499 226 q 485 314 499 294 q 439 350 472 333 q 342 386 406 367 q 107 513 174 439 q 40 699 40 588 q 89 856 40 789 q 223 958 138 922 q 415 994 308 994 z "},"Ṡ":{"ha":817,"x_min":0,"x_max":796,"o":"m 415 994 q 772 863 636 994 l 646 714 q 439 792 549 792 q 361 774 388 792 q 335 722 335 756 q 349 681 335 697 q 398 651 364 665 q 508 613 432 638 q 728 490 661 564 q 796 289 796 417 q 747 124 796 196 q 606 13 697 53 q 389 -28 514 -28 q 164 13 261 -28 q 0 118 67 53 l 140 272 q 378 178 250 178 q 468 202 438 178 q 499 265 499 226 q 485 314 499 294 q 439 350 472 333 q 342 386 406 367 q 107 513 174 439 q 40 699 40 588 q 89 856 40 789 q 223 958 138 922 q 415 994 308 994 z "},"Ṣ":{"ha":817,"x_min":0,"x_max":796,"o":"m 415 994 q 772 863 636 994 l 646 714 q 439 792 549 792 q 361 774 388 792 q 335 722 335 756 q 349 681 335 697 q 398 651 364 665 q 508 613 432 638 q 728 490 661 564 q 796 289 796 417 q 747 124 796 196 q 606 13 697 53 q 389 -28 514 -28 q 164 13 261 -28 q 0 118 67 53 l 140 272 q 378 178 250 178 q 468 202 438 178 q 499 265 499 226 q 485 314 499 294 q 439 350 472 333 q 342 386 406 367 q 107 513 174 439 q 40 699 40 588 q 89 856 40 789 q 223 958 138 922 q 415 994 308 994 m 407 -367 q 297 -324 340 -367 q 253 -219 253 -282 q 297 -115 253 -157 q 407 -72 340 -72 q 517 -115 474 -72 q 561 -219 561 -157 q 517 -324 561 -282 q 407 -367 474 -367 z "},"ẞ":{"ha":940,"x_min":60,"x_max":919,"o":"m 424 994 q 645 970 551 994 q 856 896 739 946 l 856 781 l 671 550 q 852 463 785 526 q 919 275 919 400 q 872 108 919 176 q 744 6 824 39 q 572 -28 665 -28 q 379 13 460 -28 l 460 196 q 532 182 492 182 q 595 206 568 182 q 622 281 622 229 q 578 378 622 343 q 431 428 535 414 l 431 557 l 590 769 q 444 792 519 792 q 369 765 392 792 q 346 679 346 739 l 346 0 l 60 0 l 60 669 q 153 908 60 822 q 424 994 246 994 z "},"Ə":{"ha":881,"x_min":14,"x_max":853,"o":"m 424 994 q 742 865 631 994 q 853 486 853 735 q 742 105 853 238 q 429 -28 631 -28 q 115 106 217 -28 q 14 472 14 239 q 24 578 14 526 l 565 578 q 394 792 557 792 q 286 773 332 792 q 192 719 240 754 l 68 868 q 228 963 143 932 q 424 994 314 994 m 429 175 q 530 224 496 175 q 565 390 564 274 l 288 390 q 324 225 288 275 q 429 175 361 175 z "},"T":{"ha":769,"x_min":7,"x_max":776,"o":"m 747 753 l 528 753 l 528 0 l 242 0 l 242 753 l 7 753 l 7 967 l 776 967 l 747 753 z "},"Ŧ":{"ha":769,"x_min":7,"x_max":776,"o":"m 528 753 l 528 543 l 679 543 l 679 396 l 528 396 l 528 0 l 242 0 l 242 396 l 89 396 l 89 543 l 242 543 l 242 753 l 7 753 l 7 967 l 776 967 l 747 753 l 528 753 z "},"Ť":{"ha":769,"x_min":7,"x_max":776,"o":"m 747 753 l 528 753 l 528 0 l 242 0 l 242 753 l 7 753 l 7 967 l 776 967 l 747 753 m 668 1233 l 467 1038 l 303 1038 l 101 1233 l 194 1340 l 385 1221 l 575 1340 l 668 1233 z "},"Ţ":{"ha":769,"x_min":7,"x_max":776,"o":"m 528 -60 q 681 -210 681 -79 q 619 -333 681 -285 q 453 -382 558 -382 q 357 -368 403 -382 q 279 -335 311 -354 l 339 -215 q 425 -240 385 -240 q 474 -233 458 -240 q 490 -206 490 -225 q 460 -176 490 -185 q 360 -167 429 -167 l 381 0 l 242 0 l 242 753 l 7 753 l 7 967 l 776 967 l 747 753 l 528 753 l 528 -60 z "},"Ṱ":{"ha":769,"x_min":7,"x_max":776,"o":"m 747 753 l 528 753 l 528 0 l 242 0 l 242 753 l 7 753 l 7 967 l 776 967 l 747 753 m 101 -293 l 303 -83 l 467 -83 l 668 -293 l 575 -400 l 385 -267 l 194 -400 l 101 -293 z "},"Ț":{"ha":769,"x_min":7,"x_max":776,"o":"m 747 753 l 528 753 l 528 0 l 242 0 l 242 753 l 7 753 l 7 967 l 776 967 l 747 753 z "},"Ⱦ":{"ha":769,"x_min":7,"x_max":776,"o":"m 633 767 l 507 519 l 507 0 l 263 0 l 263 42 l 186 -107 l 113 -68 l 263 225 l 263 767 l 7 767 l 7 967 l 643 967 l 688 1054 l 761 1015 l 736 967 l 776 967 l 747 767 l 633 767 m 540 767 l 507 767 l 507 701 l 540 767 z "},"Ṫ":{"ha":769,"x_min":7,"x_max":776,"o":"m 747 753 l 528 753 l 528 0 l 242 0 l 242 753 l 7 753 l 7 967 l 776 967 l 747 753 z "},"Ṭ":{"ha":769,"x_min":7,"x_max":776,"o":"m 747 753 l 528 753 l 528 0 l 242 0 l 242 753 l 7 753 l 7 967 l 776 967 l 747 753 m 385 -367 q 274 -324 318 -367 q 231 -219 231 -282 q 274 -115 231 -157 q 385 -72 318 -72 q 495 -115 451 -72 q 539 -219 539 -157 q 495 -324 539 -282 q 385 -367 451 -367 z "},"Ƭ":{"ha":860,"x_min":0,"x_max":867,"o":"m 838 753 l 618 753 l 618 0 l 332 0 l 332 753 l 271 753 q 228 740 243 753 q 214 703 214 726 q 218 670 214 685 q 232 632 222 656 l 51 560 q 0 736 0 650 q 81 906 0 844 q 299 967 161 967 l 867 967 l 838 753 z "},"Ṯ":{"ha":769,"x_min":7,"x_max":776,"o":"m 747 753 l 528 753 l 528 0 l 242 0 l 242 753 l 7 753 l 7 967 l 776 967 l 747 753 z "},"Ƽ":{"ha":781,"x_min":7,"x_max":746,"o":"m 665 775 l 333 775 l 333 617 q 471 646 401 646 q 611 608 549 646 q 710 499 674 571 q 746 325 746 426 q 697 139 746 218 q 558 16 649 60 q 344 -28 467 -28 q 149 15 235 -28 q 7 129 64 57 l 158 267 q 235 199 190 224 q 333 175 281 175 q 431 212 397 175 q 465 322 465 249 q 354 464 465 464 q 249 431 306 464 l 69 431 l 69 967 l 694 967 l 665 775 z "},"Ƅ":{"ha":890,"x_min":0,"x_max":876,"o":"m 483 651 q 775 572 674 651 q 876 336 876 493 q 772 86 876 172 q 494 0 667 0 l 108 0 l 108 656 l 0 733 q 158 967 92 828 l 394 967 l 394 651 l 483 651 m 457 201 q 549 235 519 201 q 579 333 579 269 q 451 460 579 460 l 394 460 l 394 201 l 457 201 z "},"Ƨ":{"ha":803,"x_min":21,"x_max":803,"o":"m 415 994 q 608 958 525 994 q 738 856 692 922 q 783 701 783 789 q 713 522 783 593 q 475 399 642 450 q 351 341 385 371 q 318 268 318 311 q 431 182 318 182 q 663 272 550 182 l 803 118 q 633 13 732 54 q 407 -28 533 -28 q 203 13 290 -28 q 68 124 115 53 q 21 289 21 196 q 88 481 21 410 q 308 600 156 551 q 451 659 413 633 q 489 722 489 685 q 463 773 489 754 q 392 792 438 792 q 278 772 331 792 q 178 714 226 753 l 51 863 q 415 994 199 994 z "},"Ʈ":{"ha":774,"x_min":7,"x_max":781,"o":"m 781 -253 q 563 -315 694 -315 q 328 -240 414 -315 q 242 -22 242 -165 l 242 753 l 7 753 l 7 967 l 776 967 l 747 753 l 528 753 l 528 -40 q 546 -95 528 -76 q 597 -114 564 -114 q 642 -108 624 -114 q 692 -86 661 -101 l 781 -253 z "},"U":{"ha":894,"x_min":46,"x_max":849,"o":"m 849 328 q 804 146 849 226 q 669 19 760 65 q 447 -28 579 -28 q 147 68 249 -28 q 46 328 46 164 l 46 967 l 332 967 l 332 336 q 359 216 332 254 q 447 178 386 178 q 535 216 508 178 q 563 336 563 254 l 563 967 l 849 967 l 849 328 z "},"Ú":{"ha":894,"x_min":46,"x_max":849,"o":"m 849 328 q 804 146 849 226 q 669 19 760 65 q 447 -28 579 -28 q 147 68 249 -28 q 46 328 46 164 l 46 967 l 332 967 l 332 336 q 359 216 332 254 q 447 178 386 178 q 535 216 508 178 q 563 336 563 254 l 563 967 l 849 967 l 849 328 m 658 1167 l 306 1040 l 236 1178 l 561 1367 l 658 1167 z "},"Ʉ":{"ha":939,"x_min":0,"x_max":939,"o":"m 939 688 l 871 688 l 871 328 q 826 146 871 226 q 692 19 782 65 q 469 -28 601 -28 q 169 68 271 -28 q 68 328 68 164 l 68 688 l 0 688 l 0 835 l 68 835 l 68 967 l 354 967 l 354 835 l 585 835 l 585 967 l 871 967 l 871 835 l 939 835 l 939 688 m 585 688 l 354 688 l 354 336 q 381 216 354 254 q 469 178 408 178 q 558 216 531 178 q 585 336 585 254 l 585 688 z "},"Ŭ":{"ha":894,"x_min":46,"x_max":849,"o":"m 849 328 q 804 146 849 226 q 669 19 760 65 q 447 -28 579 -28 q 147 68 249 -28 q 46 328 46 164 l 46 967 l 332 967 l 332 336 q 359 216 332 254 q 447 178 386 178 q 535 216 508 178 q 563 336 563 254 l 563 967 l 849 967 l 849 328 m 447 1036 q 265 1112 331 1036 q 190 1294 200 1188 l 333 1318 q 374 1249 346 1276 q 447 1222 403 1222 q 520 1249 492 1222 q 561 1318 549 1276 l 704 1294 q 629 1112 694 1188 q 447 1036 564 1036 z "},"Ǔ":{"ha":894,"x_min":46,"x_max":849,"o":"m 849 328 q 804 146 849 226 q 669 19 760 65 q 447 -28 579 -28 q 147 68 249 -28 q 46 328 46 164 l 46 967 l 332 967 l 332 336 q 359 216 332 254 q 447 178 386 178 q 535 216 508 178 q 563 336 563 254 l 563 967 l 849 967 l 849 328 m 731 1233 l 529 1038 l 365 1038 l 164 1233 l 257 1340 l 447 1221 l 638 1340 l 731 1233 z "},"Û":{"ha":894,"x_min":46,"x_max":849,"o":"m 849 328 q 804 146 849 226 q 669 19 760 65 q 447 -28 579 -28 q 147 68 249 -28 q 46 328 46 164 l 46 967 l 332 967 l 332 336 q 359 216 332 254 q 447 178 386 178 q 535 216 508 178 q 563 336 563 254 l 563 967 l 849 967 l 849 328 m 164 1151 l 365 1347 l 529 1347 l 731 1151 l 638 1044 l 447 1164 l 257 1044 l 164 1151 z "},"Ȕ":{"ha":894,"x_min":46,"x_max":849,"o":"m 849 328 q 804 146 849 226 q 669 19 760 65 q 447 -28 579 -28 q 147 68 249 -28 q 46 328 46 164 l 46 967 l 332 967 l 332 336 q 359 216 332 254 q 447 178 386 178 q 535 216 508 178 q 563 336 563 254 l 563 967 l 849 967 l 849 328 z "},"Ü":{"ha":894,"x_min":46,"x_max":849,"o":"m 849 328 q 804 146 849 226 q 669 19 760 65 q 447 -28 579 -28 q 147 68 249 -28 q 46 328 46 164 l 46 967 l 332 967 l 332 336 q 359 216 332 254 q 447 178 386 178 q 535 216 508 178 q 563 336 563 254 l 563 967 l 849 967 l 849 328 z "},"Ǘ":{"ha":894,"x_min":46,"x_max":849,"o":"m 849 328 q 804 146 849 226 q 669 19 760 65 q 447 -28 579 -28 q 147 68 249 -28 q 46 328 46 164 l 46 967 l 332 967 l 332 336 q 359 216 332 254 q 447 178 386 178 q 535 216 508 178 q 563 336 563 254 l 563 967 l 849 967 l 849 328 m 681 1450 l 443 1243 l 342 1333 l 536 1592 l 681 1450 m 263 1297 q 356 1260 317 1297 q 394 1169 394 1222 q 356 1078 394 1115 q 263 1040 317 1040 q 169 1078 207 1040 q 131 1169 131 1115 q 169 1260 131 1222 q 263 1297 207 1297 m 631 1297 q 724 1260 685 1297 q 763 1169 763 1222 q 724 1078 763 1115 q 631 1040 685 1040 q 537 1078 575 1040 q 499 1169 499 1115 q 537 1260 499 1222 q 631 1297 575 1297 z "},"Ǚ":{"ha":894,"x_min":46,"x_max":849,"o":"m 849 328 q 804 146 849 226 q 669 19 760 65 q 447 -28 579 -28 q 147 68 249 -28 q 46 328 46 164 l 46 967 l 332 967 l 332 336 q 359 216 332 254 q 447 178 386 178 q 535 216 508 178 q 563 336 563 254 l 563 967 l 849 967 l 849 328 m 728 1486 l 526 1290 l 363 1290 l 161 1486 l 254 1593 l 444 1474 l 635 1593 l 728 1486 m 263 1297 q 356 1260 317 1297 q 394 1169 394 1222 q 356 1078 394 1115 q 263 1040 317 1040 q 169 1078 207 1040 q 131 1169 131 1115 q 169 1260 131 1222 q 263 1297 207 1297 m 631 1297 q 724 1260 685 1297 q 763 1169 763 1222 q 724 1078 763 1115 q 631 1040 685 1040 q 537 1078 575 1040 q 499 1169 499 1115 q 537 1260 499 1222 q 631 1297 575 1297 z "},"Ǜ":{"ha":894,"x_min":46,"x_max":849,"o":"m 849 328 q 804 146 849 226 q 669 19 760 65 q 447 -28 579 -28 q 147 68 249 -28 q 46 328 46 164 l 46 967 l 332 967 l 332 336 q 359 216 332 254 q 447 178 386 178 q 535 216 508 178 q 563 336 563 254 l 563 967 l 849 967 l 849 328 m 554 1333 l 453 1243 l 215 1450 l 360 1592 l 554 1333 m 263 1297 q 356 1260 318 1297 q 394 1169 394 1222 q 356 1078 394 1115 q 263 1040 318 1040 q 169 1078 208 1040 q 131 1169 131 1115 q 169 1260 131 1222 q 263 1297 208 1297 m 631 1297 q 724 1260 686 1297 q 763 1169 763 1222 q 724 1078 763 1115 q 631 1040 686 1040 q 538 1078 576 1040 q 499 1169 499 1115 q 538 1260 499 1222 q 631 1297 576 1297 z "},"Ǖ":{"ha":894,"x_min":46,"x_max":849,"o":"m 849 328 q 804 146 849 226 q 669 19 760 65 q 447 -28 579 -28 q 147 68 249 -28 q 46 328 46 164 l 46 967 l 332 967 l 332 336 q 359 216 332 254 q 447 178 386 178 q 535 216 508 178 q 563 336 563 254 l 563 967 l 849 967 l 849 328 z "},"Ụ":{"ha":894,"x_min":46,"x_max":849,"o":"m 849 328 q 804 146 849 226 q 669 19 760 65 q 447 -28 579 -28 q 147 68 249 -28 q 46 328 46 164 l 46 967 l 332 967 l 332 336 q 359 216 332 254 q 447 178 386 178 q 535 216 508 178 q 563 336 563 254 l 563 967 l 849 967 l 849 328 m 447 -367 q 337 -324 381 -367 q 293 -219 293 -282 q 337 -115 293 -157 q 447 -72 381 -72 q 558 -115 514 -72 q 601 -219 601 -157 q 558 -324 601 -282 q 447 -367 514 -367 z "},"Ù":{"ha":894,"x_min":46,"x_max":849,"o":"m 849 328 q 804 146 849 226 q 669 19 760 65 q 447 -28 579 -28 q 147 68 249 -28 q 46 328 46 164 l 46 967 l 332 967 l 332 336 q 359 216 332 254 q 447 178 386 178 q 535 216 508 178 q 563 336 563 254 l 563 967 l 849 967 l 849 328 m 658 1178 l 589 1040 l 236 1167 l 335 1367 l 658 1178 z "},"Ủ":{"ha":894,"x_min":46,"x_max":849,"o":"m 849 328 q 804 146 849 226 q 669 19 760 65 q 447 -28 579 -28 q 147 68 249 -28 q 46 328 46 164 l 46 967 l 332 967 l 332 336 q 359 216 332 254 q 447 178 386 178 q 535 216 508 178 q 563 336 563 254 l 563 967 l 849 967 l 849 328 m 371 1190 q 447 1203 424 1192 q 469 1239 469 1214 q 456 1267 469 1257 q 418 1278 442 1278 q 376 1274 394 1278 q 332 1260 357 1269 l 292 1363 q 456 1401 357 1401 q 593 1360 544 1401 q 642 1251 642 1318 q 611 1161 642 1196 q 522 1115 581 1126 l 522 1061 l 371 1061 l 371 1190 z "},"Ư":{"ha":1049,"x_min":46,"x_max":1076,"o":"m 1050 1074 q 1076 946 1076 1018 q 1016 803 1076 851 q 849 754 956 754 l 849 328 q 804 146 849 226 q 669 19 760 65 q 447 -28 579 -28 q 147 68 249 -28 q 46 328 46 164 l 46 967 l 332 967 l 332 336 q 359 216 332 254 q 447 178 386 178 q 535 216 508 178 q 563 336 563 254 l 563 967 l 849 967 l 849 881 q 888 906 876 886 q 900 963 900 925 q 883 1053 900 1006 l 1050 1074 z "},"Ứ":{"ha":1049,"x_min":46,"x_max":1076,"o":"m 306 1040 l 236 1178 l 561 1367 l 658 1167 l 306 1040 m 1050 1074 q 1076 946 1076 1018 q 1016 803 1076 851 q 849 754 956 754 l 849 328 q 804 146 849 226 q 669 19 760 65 q 447 -28 579 -28 q 147 68 249 -28 q 46 328 46 164 l 46 967 l 332 967 l 332 336 q 359 216 332 254 q 447 178 386 178 q 535 216 508 178 q 563 336 563 254 l 563 967 l 849 967 l 849 881 q 888 906 876 886 q 900 963 900 925 q 883 1053 900 1006 l 1050 1074 z "},"Ự":{"ha":1049,"x_min":46,"x_max":1076,"o":"m 1050 1074 q 1076 946 1076 1018 q 1016 803 1076 851 q 849 754 956 754 l 849 328 q 804 146 849 226 q 669 19 760 65 q 447 -28 579 -28 q 147 68 249 -28 q 46 328 46 164 l 46 967 l 332 967 l 332 336 q 359 216 332 254 q 447 178 386 178 q 535 216 508 178 q 563 336 563 254 l 563 967 l 849 967 l 849 881 q 888 906 876 886 q 900 963 900 925 q 883 1053 900 1006 l 1050 1074 m 447 -72 q 558 -115 514 -72 q 601 -219 601 -157 q 558 -324 601 -282 q 447 -367 514 -367 q 337 -324 381 -367 q 293 -219 293 -282 q 337 -115 293 -157 q 447 -72 381 -72 z "},"Ừ":{"ha":1049,"x_min":46,"x_max":1076,"o":"m 589 1040 l 236 1167 l 335 1367 l 658 1178 l 589 1040 m 1050 1074 q 1076 946 1076 1018 q 1016 803 1076 851 q 849 754 956 754 l 849 328 q 804 146 849 226 q 669 19 760 65 q 447 -28 579 -28 q 147 68 249 -28 q 46 328 46 164 l 46 967 l 332 967 l 332 336 q 359 216 332 254 q 447 178 386 178 q 535 216 508 178 q 563 336 563 254 l 563 967 l 849 967 l 849 881 q 888 906 876 886 q 900 963 900 925 q 883 1053 900 1006 l 1050 1074 z "},"Ử":{"ha":1049,"x_min":46,"x_max":1076,"o":"m 418 1278 q 376 1274 394 1278 q 332 1260 357 1269 l 292 1363 q 456 1401 357 1401 q 593 1360 544 1401 q 642 1251 642 1318 q 611 1161 642 1196 q 522 1115 581 1126 l 522 1061 l 371 1061 l 371 1190 q 447 1203 424 1192 q 469 1239 469 1214 q 456 1267 469 1257 q 418 1278 442 1278 m 1050 1074 q 1076 946 1076 1018 q 1016 803 1076 851 q 849 754 956 754 l 849 328 q 804 146 849 226 q 669 19 760 65 q 447 -28 579 -28 q 147 68 249 -28 q 46 328 46 164 l 46 967 l 332 967 l 332 336 q 359 216 332 254 q 447 178 386 178 q 535 216 508 178 q 563 336 563 254 l 563 967 l 849 967 l 849 881 q 888 906 876 886 q 900 963 900 925 q 883 1053 900 1006 l 1050 1074 z "},"Ữ":{"ha":1049,"x_min":46,"x_max":1076,"o":"m 371 1099 q 331 1085 346 1099 q 297 1039 315 1071 l 168 1101 q 248 1237 197 1183 q 364 1290 299 1290 q 416 1283 394 1290 q 461 1260 438 1276 q 498 1237 485 1243 q 525 1231 511 1231 q 564 1244 549 1231 q 597 1290 579 1258 l 726 1228 q 646 1092 697 1144 q 528 1039 594 1039 q 478 1046 499 1039 q 436 1068 458 1053 q 398 1092 410 1086 q 371 1099 386 1099 m 1050 1074 q 1076 946 1076 1018 q 1016 803 1076 851 q 849 754 956 754 l 849 328 q 804 146 849 226 q 669 19 760 65 q 447 -28 579 -28 q 147 68 249 -28 q 46 328 46 164 l 46 967 l 332 967 l 332 336 q 359 216 332 254 q 447 178 386 178 q 535 216 508 178 q 563 336 563 254 l 563 967 l 849 967 l 849 881 q 888 906 876 886 q 900 963 900 925 q 883 1053 900 1006 l 1050 1074 z "},"Ű":{"ha":894,"x_min":46,"x_max":849,"o":"m 849 328 q 804 146 849 226 q 669 19 760 65 q 447 -28 579 -28 q 147 68 249 -28 q 46 328 46 164 l 46 967 l 332 967 l 332 336 q 359 216 332 254 q 447 178 386 178 q 535 216 508 178 q 563 336 563 254 l 563 967 l 849 967 l 849 328 m 542 1267 l 364 1035 l 246 1096 l 372 1356 l 542 1267 m 790 1244 l 600 1022 l 486 1090 l 626 1343 l 790 1244 z "},"Ȗ":{"ha":894,"x_min":46,"x_max":849,"o":"m 849 328 q 804 146 849 226 q 669 19 760 65 q 447 -28 579 -28 q 147 68 249 -28 q 46 328 46 164 l 46 967 l 332 967 l 332 336 q 359 216 332 254 q 447 178 386 178 q 535 216 508 178 q 563 336 563 254 l 563 967 l 849 967 l 849 328 m 447 1346 q 630 1268 565 1346 q 704 1074 694 1190 l 561 1050 q 520 1131 549 1101 q 447 1160 492 1160 q 374 1131 403 1160 q 333 1050 346 1101 l 190 1074 q 265 1268 200 1190 q 447 1346 329 1346 z "},"Ū":{"ha":894,"x_min":46,"x_max":849,"o":"m 849 328 q 804 146 849 226 q 669 19 760 65 q 447 -28 579 -28 q 147 68 249 -28 q 46 328 46 164 l 46 967 l 332 967 l 332 336 q 359 216 332 254 q 447 178 386 178 q 535 216 508 178 q 563 336 563 254 l 563 967 l 849 967 l 849 328 z "},"Ų":{"ha":894,"x_min":46,"x_max":849,"o":"m 849 967 l 849 328 q 792 126 849 214 q 625 0 735 39 q 500 -65 535 -31 q 465 -132 465 -100 q 536 -193 465 -193 q 621 -182 572 -193 l 604 -342 q 501 -353 556 -353 q 342 -306 404 -353 q 279 -178 279 -258 q 383 -25 279 -78 q 131 84 217 -10 q 46 328 46 178 l 46 967 l 332 967 l 332 336 q 359 216 332 254 q 447 178 386 178 q 535 216 508 178 q 563 336 563 254 l 563 967 l 849 967 z "},"Ʊ":{"ha":958,"x_min":28,"x_max":931,"o":"m 479 -28 q 237 31 339 -28 q 81 189 135 89 q 28 408 28 289 q 213 769 28 653 l 57 769 l 57 967 l 413 967 l 413 783 q 346 633 367 714 q 325 408 325 553 q 363 234 325 293 q 479 175 400 175 q 596 234 558 175 q 633 408 633 293 q 613 633 633 553 q 546 783 592 714 l 546 967 l 901 967 l 901 769 l 746 769 q 931 408 931 654 q 877 189 931 289 q 722 31 824 89 q 479 -28 619 -28 z "},"Ů":{"ha":894,"x_min":46,"x_max":849,"o":"m 849 328 q 804 146 849 226 q 669 19 760 65 q 447 -28 579 -28 q 147 68 249 -28 q 46 328 46 164 l 46 967 l 332 967 l 332 336 q 359 216 332 254 q 447 178 386 178 q 535 216 508 178 q 563 336 563 254 l 563 967 l 849 967 l 849 328 z "},"Ũ":{"ha":894,"x_min":46,"x_max":849,"o":"m 849 328 q 804 146 849 226 q 669 19 760 65 q 447 -28 579 -28 q 147 68 249 -28 q 46 328 46 164 l 46 967 l 332 967 l 332 336 q 359 216 332 254 q 447 178 386 178 q 535 216 508 178 q 563 336 563 254 l 563 967 l 849 967 l 849 328 z "},"Ṹ":{"ha":894,"x_min":46,"x_max":849,"o":"m 849 328 q 804 146 849 226 q 669 19 760 65 q 447 -28 579 -28 q 147 68 249 -28 q 46 328 46 164 l 46 967 l 332 967 l 332 336 q 359 216 332 254 q 447 178 386 178 q 535 216 508 178 q 563 336 563 254 l 563 967 l 849 967 l 849 328 z "},"V":{"ha":804,"x_min":-35,"x_max":839,"o":"m 594 0 l 225 0 l -35 967 l 267 967 l 414 199 l 546 967 l 839 967 l 594 0 z "},"Ɣ":{"ha":804,"x_min":-35,"x_max":839,"o":"m 547 147 q 619 8 596 72 q 643 -124 643 -57 q 587 -264 643 -212 q 407 -315 531 -315 q 228 -264 286 -315 q 171 -124 171 -212 q 193 -2 171 -62 q 268 147 215 58 l -35 967 l 267 967 l 407 329 l 546 967 l 839 967 l 547 147 m 444 -106 q 436 -59 444 -82 q 407 8 428 -36 q 369 -107 369 -69 q 407 -147 369 -147 q 444 -106 444 -147 z "},"Ʋ":{"ha":894,"x_min":46,"x_max":849,"o":"m 608 994 q 849 731 849 994 l 849 397 q 795 168 849 264 q 644 22 742 72 q 417 -28 546 -28 q 219 14 303 -28 q 90 130 135 56 q 46 300 46 204 l 46 967 l 332 967 l 332 297 q 356 210 332 242 q 426 178 381 178 q 526 227 489 178 q 563 388 563 276 l 563 749 q 526 793 563 793 q 497 789 513 793 l 460 971 q 608 994 524 994 z "},"Ʌ":{"ha":835,"x_min":-35,"x_max":869,"o":"m 869 0 l 567 0 l 415 767 l 264 0 l -35 0 l 247 967 l 589 967 l 869 0 z "},"W":{"ha":1193,"x_min":0,"x_max":1193,"o":"m 1053 0 l 681 0 l 594 694 l 499 0 l 135 0 l 0 967 l 286 967 l 347 207 l 450 967 l 749 967 l 835 207 l 918 967 l 1193 967 l 1053 0 z "},"Ẃ":{"ha":1193,"x_min":0,"x_max":1193,"o":"m 1053 0 l 681 0 l 594 694 l 499 0 l 135 0 l 0 967 l 286 967 l 347 207 l 450 967 l 749 967 l 835 207 l 918 967 l 1193 967 l 1053 0 m 811 1167 l 458 1040 l 389 1178 l 714 1367 l 811 1167 z "},"Ŵ":{"ha":1193,"x_min":0,"x_max":1193,"o":"m 1053 0 l 681 0 l 594 694 l 499 0 l 135 0 l 0 967 l 286 967 l 347 207 l 450 967 l 749 967 l 835 207 l 918 967 l 1193 967 l 1053 0 m 317 1151 l 518 1347 l 682 1347 l 883 1151 l 790 1044 l 600 1164 l 410 1044 l 317 1151 z "},"Ẅ":{"ha":1193,"x_min":0,"x_max":1193,"o":"m 1053 0 l 681 0 l 594 694 l 499 0 l 135 0 l 0 967 l 286 967 l 347 207 l 450 967 l 749 967 l 835 207 l 918 967 l 1193 967 l 1053 0 z "},"Ẁ":{"ha":1193,"x_min":0,"x_max":1193,"o":"m 1053 0 l 681 0 l 594 694 l 499 0 l 135 0 l 0 967 l 286 967 l 347 207 l 450 967 l 749 967 l 835 207 l 918 967 l 1193 967 l 1053 0 m 811 1178 l 742 1040 l 389 1167 l 488 1367 l 811 1178 z "},"Ⱳ":{"ha":1299,"x_min":0,"x_max":1340,"o":"m 135 0 l 499 0 l 594 694 l 681 0 l 1043 0 l 1133 726 q 1153 781 1138 764 q 1200 797 1169 797 q 1235 794 1222 797 q 1268 781 1249 790 l 1340 943 q 1257 981 1300 968 q 1153 994 1214 994 q 967 930 1035 994 q 885 718 899 865 l 835 207 l 749 967 l 450 967 l 347 207 l 286 967 l 0 967 l 135 0 z "},"Ƿ":{"ha":849,"x_min":60,"x_max":828,"o":"m 564 994 q 697 960 636 994 q 792 865 757 926 q 828 724 828 803 q 778 533 828 610 q 647 408 729 457 q 440 315 565 360 l 346 282 l 346 0 l 60 0 l 60 967 l 346 967 l 346 914 q 441 974 385 953 q 564 994 497 994 m 368 482 q 498 578 460 525 q 536 703 536 632 q 513 772 536 747 q 450 796 489 796 q 346 758 394 796 l 346 472 l 368 482 z "},"X":{"ha":842,"x_min":-14,"x_max":856,"o":"m 856 0 l 547 0 l 414 332 l 289 0 l -14 0 l 244 513 l 4 967 l 311 967 l 417 689 l 535 967 l 836 967 l 586 521 l 856 0 z "},"Y":{"ha":861,"x_min":-21,"x_max":882,"o":"m 574 357 l 574 0 l 288 0 l 288 356 l -21 967 l 292 967 l 435 572 l 579 967 l 882 967 l 574 357 z "},"Ý":{"ha":861,"x_min":-21,"x_max":882,"o":"m 574 357 l 574 0 l 288 0 l 288 356 l -21 967 l 292 967 l 435 572 l 579 967 l 882 967 l 574 357 m 642 1167 l 289 1040 l 219 1178 l 544 1367 l 642 1167 z "},"Ŷ":{"ha":861,"x_min":-21,"x_max":882,"o":"m 574 357 l 574 0 l 288 0 l 288 356 l -21 967 l 292 967 l 435 572 l 579 967 l 882 967 l 574 357 m 147 1151 l 349 1347 l 513 1347 l 714 1151 l 621 1044 l 431 1164 l 240 1044 l 147 1151 z "},"Ÿ":{"ha":861,"x_min":-21,"x_max":882,"o":"m 574 357 l 574 0 l 288 0 l 288 356 l -21 967 l 292 967 l 435 572 l 579 967 l 882 967 l 574 357 z "},"Ỵ":{"ha":861,"x_min":-21,"x_max":882,"o":"m 574 357 l 574 0 l 288 0 l 288 356 l -21 967 l 292 967 l 435 572 l 579 967 l 882 967 l 574 357 m 431 -367 q 320 -324 364 -367 q 276 -219 276 -282 q 320 -115 276 -157 q 431 -72 364 -72 q 541 -115 497 -72 q 585 -219 585 -157 q 541 -324 585 -282 q 431 -367 497 -367 z "},"Ỳ":{"ha":861,"x_min":-21,"x_max":882,"o":"m 574 357 l 574 0 l 288 0 l 288 356 l -21 967 l 292 967 l 435 572 l 579 967 l 882 967 l 574 357 m 642 1178 l 572 1040 l 219 1167 l 318 1367 l 642 1178 z "},"Ƴ":{"ha":918,"x_min":-21,"x_max":960,"o":"m 288 356 l -21 967 l 292 967 l 435 572 l 499 768 q 602 942 538 890 q 779 994 667 994 q 960 946 878 994 l 889 781 q 821 797 853 797 q 772 783 790 797 q 738 732 753 768 l 574 357 l 574 0 l 288 0 l 288 356 z "},"Ỷ":{"ha":861,"x_min":-21,"x_max":882,"o":"m 574 357 l 574 0 l 288 0 l 288 356 l -21 967 l 292 967 l 435 572 l 579 967 l 882 967 l 574 357 m 354 1190 q 430 1203 407 1192 q 453 1239 453 1214 q 439 1267 453 1257 q 401 1278 425 1278 q 359 1274 378 1278 q 315 1260 340 1269 l 275 1363 q 439 1401 340 1401 q 576 1360 528 1401 q 625 1251 625 1318 q 594 1161 625 1196 q 506 1115 564 1126 l 506 1061 l 354 1061 l 354 1190 z "},"Ȳ":{"ha":861,"x_min":-21,"x_max":882,"o":"m 574 357 l 574 0 l 288 0 l 288 356 l -21 967 l 292 967 l 435 572 l 579 967 l 882 967 l 574 357 z "},"Ʀ":{"ha":867,"x_min":60,"x_max":894,"o":"m 399 192 l 346 192 l 346 0 l 60 0 l 60 967 l 346 967 l 346 814 l 414 814 q 726 740 624 814 q 829 507 829 665 q 789 357 829 417 q 658 244 749 297 l 894 -153 l 578 -153 l 399 192 m 346 383 l 421 383 q 508 414 479 383 q 538 507 538 444 q 407 618 538 618 l 346 618 l 346 383 z "},"Ɏ":{"ha":863,"x_min":-21,"x_max":883,"o":"m 883 863 l 883 715 l 756 715 l 575 357 l 575 0 l 289 0 l 289 356 l 107 715 l -21 715 l -21 863 l 33 863 l -19 967 l 279 967 l 318 863 l 556 863 l 594 967 l 883 967 l 831 863 l 883 863 m 500 715 l 372 715 l 436 544 l 500 715 z "},"Ỹ":{"ha":861,"x_min":-21,"x_max":882,"o":"m 574 357 l 574 0 l 288 0 l 288 356 l -21 967 l 292 967 l 435 572 l 579 967 l 882 967 l 574 357 z "},"Z":{"ha":774,"x_min":14,"x_max":753,"o":"m 740 754 l 356 224 l 753 224 l 725 0 l 14 0 l 14 210 l 411 750 l 53 750 l 53 967 l 740 967 l 740 754 z "},"Ź":{"ha":774,"x_min":14,"x_max":753,"o":"m 740 754 l 356 224 l 753 224 l 725 0 l 14 0 l 14 210 l 411 750 l 53 750 l 53 967 l 740 967 l 740 754 m 599 1167 l 246 1040 l 176 1178 l 501 1367 l 599 1167 z "},"Ž":{"ha":774,"x_min":14,"x_max":753,"o":"m 740 754 l 356 224 l 753 224 l 725 0 l 14 0 l 14 210 l 411 750 l 53 750 l 53 967 l 740 967 l 740 754 m 671 1233 l 469 1038 l 306 1038 l 104 1233 l 197 1340 l 388 1221 l 578 1340 l 671 1233 z "},"Ż":{"ha":774,"x_min":14,"x_max":753,"o":"m 740 754 l 356 224 l 753 224 l 725 0 l 14 0 l 14 210 l 411 750 l 53 750 l 53 967 l 740 967 l 740 754 z "},"Ẓ":{"ha":774,"x_min":14,"x_max":753,"o":"m 740 754 l 356 224 l 753 224 l 725 0 l 14 0 l 14 210 l 411 750 l 53 750 l 53 967 l 740 967 l 740 754 m 372 -367 q 262 -324 306 -367 q 218 -219 218 -282 q 262 -115 218 -157 q 372 -72 306 -72 q 483 -115 439 -72 q 526 -219 526 -157 q 483 -324 526 -282 q 372 -367 439 -367 z "},"Ȥ":{"ha":761,"x_min":14,"x_max":740,"o":"m 740 754 l 356 224 l 740 224 l 740 -22 q 654 -240 740 -165 q 419 -315 568 -315 q 201 -253 288 -315 l 290 -86 q 341 -108 321 -101 q 392 -114 361 -114 q 468 -40 468 -114 l 468 0 l 14 0 l 14 210 l 411 750 l 53 750 l 53 967 l 740 967 l 740 754 z "},"Ƶ":{"ha":774,"x_min":14,"x_max":753,"o":"m 753 224 l 725 0 l 14 0 l 14 196 l 169 399 l 64 399 l 64 565 l 297 565 l 439 750 l 53 750 l 53 967 l 740 967 l 740 768 l 586 565 l 678 565 l 678 399 l 460 399 l 328 224 l 753 224 z "},"ʙ":{"ha":767,"x_min":58,"x_max":743,"o":"m 553 410 q 743 224 743 386 q 651 56 743 113 q 400 0 558 0 l 58 0 l 58 735 q 381 769 251 769 q 626 719 539 769 q 713 568 713 668 q 672 465 713 506 q 553 410 632 424 m 374 604 q 333 603 351 604 l 333 457 l 375 457 q 426 476 407 457 q 444 531 444 496 q 426 585 444 565 q 374 604 408 604 m 389 171 q 463 251 463 171 q 444 309 463 289 q 389 329 425 329 l 333 329 l 333 171 l 389 171 z "},"ɢ":{"ha":778,"x_min":24,"x_max":747,"o":"m 428 769 q 602 741 528 769 q 736 661 676 713 l 610 525 q 530 568 568 554 q 447 582 492 582 q 306 374 306 582 q 333 209 306 254 q 417 164 360 164 q 493 176 458 164 l 493 272 l 421 272 l 396 444 l 747 444 l 747 72 q 592 2 678 29 q 413 -25 507 -25 q 119 74 214 -25 q 24 375 24 172 q 75 584 24 494 q 219 722 126 674 q 428 769 311 769 z "},"ʛ":{"ha":778,"x_min":24,"x_max":957,"o":"m 754 1061 q 957 1010 869 1061 l 886 840 q 797 864 836 864 q 751 846 765 864 q 736 789 736 828 l 736 661 l 624 539 q 538 572 574 563 q 451 582 501 582 q 306 374 306 582 q 333 209 306 254 q 417 164 360 164 q 493 176 458 164 l 493 272 l 421 272 l 396 444 l 747 444 l 747 72 q 600 1 685 26 q 417 -25 515 -25 q 119 75 215 -25 q 24 375 24 175 q 74 583 24 493 q 209 721 124 672 q 396 769 294 769 q 503 754 453 769 l 503 813 q 565 996 503 931 q 754 1061 626 1061 z "},"ʜ":{"ha":808,"x_min":58,"x_max":750,"o":"m 475 276 l 333 276 l 333 0 l 58 0 l 58 742 l 333 742 l 333 474 l 475 474 l 475 742 l 750 742 l 750 0 l 475 0 l 475 276 z "},"ɪ":{"ha":472,"x_min":14,"x_max":458,"o":"m 374 550 l 374 194 l 458 194 l 458 0 l 14 0 l 14 194 l 99 194 l 99 550 l 14 550 l 14 742 l 458 742 l 458 550 l 374 550 z "},"ʟ":{"ha":638,"x_min":58,"x_max":631,"o":"m 333 206 l 631 206 l 603 0 l 58 0 l 58 742 l 333 742 l 333 206 z "},"ɴ":{"ha":810,"x_min":58,"x_max":751,"o":"m 751 0 l 428 0 l 256 513 q 288 335 276 414 q 299 160 299 257 l 299 0 l 58 0 l 58 742 l 378 742 l 554 231 l 546 274 q 519 435 528 369 q 511 593 511 500 l 511 742 l 751 742 l 751 0 z "},"ɶ":{"ha":1079,"x_min":24,"x_max":1058,"o":"m 765 286 q 719 185 751 233 l 1049 185 l 1049 0 l 556 0 q 406 -28 485 -28 q 126 76 228 -28 q 24 372 24 181 q 70 582 24 492 q 203 721 117 672 q 406 769 289 769 q 558 742 475 769 l 1058 742 l 1031 558 l 721 558 q 764 464 751 510 l 999 464 l 999 286 l 765 286 m 406 169 q 481 217 458 169 q 503 372 503 264 q 480 526 503 481 q 406 572 457 572 q 329 525 353 572 q 306 372 306 478 q 329 216 306 263 q 406 169 353 169 z "},"ʀ":{"ha":739,"x_min":58,"x_max":760,"o":"m 354 239 l 319 239 l 319 0 l 58 0 l 58 742 l 364 742 q 700 486 700 742 q 673 363 700 417 q 590 278 646 310 l 760 0 l 476 0 l 354 239 m 319 393 l 354 393 q 418 413 399 393 q 438 488 438 433 q 419 557 438 539 q 357 575 400 575 l 319 575 l 319 393 z "},"ʁ":{"ha":739,"x_min":58,"x_max":760,"o":"m 590 464 q 673 379 646 432 q 700 260 700 326 q 364 0 700 0 l 58 0 l 58 742 l 319 742 l 319 503 l 354 503 l 476 742 l 760 742 l 590 464 m 357 167 q 419 185 400 167 q 438 258 438 204 q 418 328 438 308 q 354 349 399 349 l 319 349 l 319 167 l 357 167 z "},"ʏ":{"ha":725,"x_min":-28,"x_max":753,"o":"m 500 263 l 500 0 l 225 0 l 225 261 l -28 742 l 265 742 l 367 432 l 468 742 l 753 742 l 500 263 z "},"a":{"ha":765,"x_min":21,"x_max":744,"o":"m 700 240 q 710 183 700 201 q 744 154 719 164 l 689 -22 q 567 6 614 -17 q 489 81 519 29 q 265 -28 417 -28 q 88 38 156 -28 q 21 208 21 104 q 113 397 21 332 q 379 463 204 463 l 432 463 l 432 481 q 410 556 432 536 q 325 575 388 575 q 240 565 292 575 q 133 536 188 554 l 74 711 q 222 754 142 739 q 367 769 301 769 q 621 702 542 769 q 700 496 700 635 l 700 240 m 350 165 q 397 178 375 165 q 432 210 418 190 l 432 319 l 403 319 q 317 299 344 319 q 289 235 289 278 q 306 184 289 203 q 350 165 322 165 z "},"á":{"ha":765,"x_min":21,"x_max":744,"o":"m 700 240 q 710 183 700 201 q 744 154 719 164 l 689 -22 q 567 6 614 -17 q 489 81 519 29 q 265 -28 417 -28 q 88 38 156 -28 q 21 208 21 104 q 113 397 21 332 q 379 463 204 463 l 432 463 l 432 481 q 410 556 432 536 q 325 575 388 575 q 240 565 292 575 q 133 536 188 554 l 74 711 q 222 754 142 739 q 367 769 301 769 q 621 702 542 769 q 700 496 700 635 l 700 240 m 350 165 q 397 178 375 165 q 432 210 418 190 l 432 319 l 403 319 q 317 299 344 319 q 289 235 289 278 q 306 184 289 203 q 350 165 322 165 m 582 989 l 233 851 l 160 989 l 479 1189 l 582 989 z "},"ă":{"ha":765,"x_min":21,"x_max":744,"o":"m 700 240 q 710 183 700 201 q 744 154 719 164 l 689 -22 q 567 6 614 -17 q 489 81 519 29 q 265 -28 417 -28 q 88 38 156 -28 q 21 208 21 104 q 113 397 21 332 q 379 463 204 463 l 432 463 l 432 481 q 410 556 432 536 q 325 575 388 575 q 240 565 292 575 q 133 536 188 554 l 74 711 q 222 754 142 739 q 367 769 301 769 q 621 702 542 769 q 700 496 700 635 l 700 240 m 350 165 q 397 178 375 165 q 432 210 418 190 l 432 319 l 403 319 q 317 299 344 319 q 289 235 289 278 q 306 184 289 203 q 350 165 322 165 m 385 869 q 202 947 267 869 q 128 1142 138 1025 l 271 1165 q 312 1085 283 1114 q 385 1056 340 1056 q 458 1085 429 1056 q 499 1165 486 1114 l 642 1142 q 567 947 632 1025 q 385 869 503 869 z "},"ắ":{"ha":765,"x_min":21,"x_max":744,"o":"m 700 240 q 710 183 700 201 q 744 154 719 164 l 689 -22 q 567 6 614 -17 q 489 81 519 29 q 265 -28 417 -28 q 88 38 156 -28 q 21 208 21 104 q 113 397 21 332 q 379 463 204 463 l 432 463 l 432 481 q 410 556 432 536 q 325 575 388 575 q 240 565 292 575 q 133 536 188 554 l 74 711 q 222 754 142 739 q 367 769 301 769 q 621 702 542 769 q 700 496 700 635 l 700 240 m 350 165 q 397 178 375 165 q 432 210 418 190 l 432 319 l 403 319 q 317 299 344 319 q 289 235 289 278 q 306 184 289 203 q 350 165 322 165 z "},"ặ":{"ha":765,"x_min":21,"x_max":744,"o":"m 700 240 q 710 183 700 201 q 744 154 719 164 l 689 -22 q 567 6 614 -17 q 489 81 519 29 q 265 -28 417 -28 q 88 38 156 -28 q 21 208 21 104 q 113 397 21 332 q 379 463 204 463 l 432 463 l 432 481 q 410 556 432 536 q 325 575 388 575 q 240 565 292 575 q 133 536 188 554 l 74 711 q 222 754 142 739 q 367 769 301 769 q 621 702 542 769 q 700 496 700 635 l 700 240 m 350 165 q 397 178 375 165 q 432 210 418 190 l 432 319 l 403 319 q 317 299 344 319 q 289 235 289 278 q 306 184 289 203 q 350 165 322 165 m 385 869 q 202 947 267 869 q 128 1142 138 1025 l 271 1165 q 312 1085 283 1114 q 385 1056 340 1056 q 458 1085 429 1056 q 499 1165 486 1114 l 642 1142 q 567 947 632 1025 q 385 869 503 869 m 385 -367 q 274 -324 318 -367 q 231 -219 231 -282 q 274 -115 231 -157 q 385 -72 318 -72 q 495 -115 451 -72 q 539 -219 539 -157 q 495 -324 539 -282 q 385 -367 451 -367 z "},"ằ":{"ha":765,"x_min":21,"x_max":744,"o":"m 700 240 q 710 183 700 201 q 744 154 719 164 l 689 -22 q 567 6 614 -17 q 489 81 519 29 q 265 -28 417 -28 q 88 38 156 -28 q 21 208 21 104 q 113 397 21 332 q 379 463 204 463 l 432 463 l 432 481 q 410 556 432 536 q 325 575 388 575 q 240 565 292 575 q 133 536 188 554 l 74 711 q 222 754 142 739 q 367 769 301 769 q 621 702 542 769 q 700 496 700 635 l 700 240 m 350 165 q 397 178 375 165 q 432 210 418 190 l 432 319 l 403 319 q 317 299 344 319 q 289 235 289 278 q 306 184 289 203 q 350 165 322 165 z "},"ẳ":{"ha":765,"x_min":21,"x_max":744,"o":"m 700 240 q 710 183 700 201 q 744 154 719 164 l 689 -22 q 567 6 614 -17 q 489 81 519 29 q 265 -28 417 -28 q 88 38 156 -28 q 21 208 21 104 q 113 397 21 332 q 379 463 204 463 l 432 463 l 432 481 q 410 556 432 536 q 325 575 388 575 q 240 565 292 575 q 133 536 188 554 l 74 711 q 222 754 142 739 q 367 769 301 769 q 621 702 542 769 q 700 496 700 635 l 700 240 m 350 165 q 397 178 375 165 q 432 210 418 190 l 432 319 l 403 319 q 317 299 344 319 q 289 235 289 278 q 306 184 289 203 q 350 165 322 165 z "},"ẵ":{"ha":765,"x_min":21,"x_max":744,"o":"m 700 240 q 710 183 700 201 q 744 154 719 164 l 689 -22 q 567 6 614 -17 q 489 81 519 29 q 265 -28 417 -28 q 88 38 156 -28 q 21 208 21 104 q 113 397 21 332 q 379 463 204 463 l 432 463 l 432 481 q 410 556 432 536 q 325 575 388 575 q 240 565 292 575 q 133 536 188 554 l 74 711 q 222 754 142 739 q 367 769 301 769 q 621 702 542 769 q 700 496 700 635 l 700 240 m 350 165 q 397 178 375 165 q 432 210 418 190 l 432 319 l 403 319 q 317 299 344 319 q 289 235 289 278 q 306 184 289 203 q 350 165 322 165 z "},"ǎ":{"ha":765,"x_min":21,"x_max":744,"o":"m 700 240 q 710 183 700 201 q 744 154 719 164 l 689 -22 q 567 6 614 -17 q 489 81 519 29 q 265 -28 417 -28 q 88 38 156 -28 q 21 208 21 104 q 113 397 21 332 q 379 463 204 463 l 432 463 l 432 481 q 410 556 432 536 q 325 575 388 575 q 240 565 292 575 q 133 536 188 554 l 74 711 q 222 754 142 739 q 367 769 301 769 q 621 702 542 769 q 700 496 700 635 l 700 240 m 350 165 q 397 178 375 165 q 432 210 418 190 l 432 319 l 403 319 q 317 299 344 319 q 289 235 289 278 q 306 184 289 203 q 350 165 322 165 m 668 1046 l 467 836 l 303 836 l 101 1046 l 194 1153 l 385 1019 l 575 1153 l 668 1046 z "},"â":{"ha":765,"x_min":21,"x_max":744,"o":"m 700 240 q 710 183 700 201 q 744 154 719 164 l 689 -22 q 567 6 614 -17 q 489 81 519 29 q 265 -28 417 -28 q 88 38 156 -28 q 21 208 21 104 q 113 397 21 332 q 379 463 204 463 l 432 463 l 432 481 q 410 556 432 536 q 325 575 388 575 q 240 565 292 575 q 133 536 188 554 l 74 711 q 222 754 142 739 q 367 769 301 769 q 621 702 542 769 q 700 496 700 635 l 700 240 m 350 165 q 397 178 375 165 q 432 210 418 190 l 432 319 l 403 319 q 317 299 344 319 q 289 235 289 278 q 306 184 289 203 q 350 165 322 165 m 101 957 l 303 1167 l 467 1167 l 668 957 l 575 850 l 385 983 l 194 850 l 101 957 z "},"ấ":{"ha":765,"x_min":21,"x_max":875,"o":"m 700 240 q 710 183 700 201 q 744 154 719 164 l 689 -22 q 567 6 614 -17 q 489 81 519 29 q 265 -28 417 -28 q 88 38 156 -28 q 21 208 21 104 q 113 397 21 332 q 379 463 204 463 l 432 463 l 432 481 q 410 556 432 536 q 325 575 388 575 q 240 565 292 575 q 133 536 188 554 l 74 711 q 222 754 142 739 q 367 769 301 769 q 621 702 542 769 q 700 496 700 635 l 700 240 m 350 165 q 397 178 375 165 q 432 210 418 190 l 432 319 l 403 319 q 317 299 344 319 q 289 235 289 278 q 306 184 289 203 q 350 165 322 165 z "},"ậ":{"ha":765,"x_min":21,"x_max":744,"o":"m 700 240 q 710 183 700 201 q 744 154 719 164 l 689 -22 q 567 6 614 -17 q 489 81 519 29 q 265 -28 417 -28 q 88 38 156 -28 q 21 208 21 104 q 113 397 21 332 q 379 463 204 463 l 432 463 l 432 481 q 410 556 432 536 q 325 575 388 575 q 240 565 292 575 q 133 536 188 554 l 74 711 q 222 754 142 739 q 367 769 301 769 q 621 702 542 769 q 700 496 700 635 l 700 240 m 350 165 q 397 178 375 165 q 432 210 418 190 l 432 319 l 403 319 q 317 299 344 319 q 289 235 289 278 q 306 184 289 203 q 350 165 322 165 m 101 957 l 303 1167 l 467 1167 l 668 957 l 575 850 l 385 983 l 194 850 l 101 957 m 385 -367 q 274 -324 318 -367 q 231 -219 231 -282 q 274 -115 231 -157 q 385 -72 318 -72 q 495 -115 451 -72 q 539 -219 539 -157 q 495 -324 539 -282 q 385 -367 451 -367 z "},"ầ":{"ha":765,"x_min":-103,"x_max":744,"o":"m 700 240 q 710 183 700 201 q 744 154 719 164 l 689 -22 q 567 6 614 -17 q 489 81 519 29 q 265 -28 417 -28 q 88 38 156 -28 q 21 208 21 104 q 113 397 21 332 q 379 463 204 463 l 432 463 l 432 481 q 410 556 432 536 q 325 575 388 575 q 240 565 292 575 q 133 536 188 554 l 74 711 q 222 754 142 739 q 367 769 301 769 q 621 702 542 769 q 700 496 700 635 l 700 240 m 350 165 q 397 178 375 165 q 432 210 418 190 l 432 319 l 403 319 q 317 299 344 319 q 289 235 289 278 q 306 184 289 203 q 350 165 322 165 z "},"ẩ":{"ha":765,"x_min":21,"x_max":794,"o":"m 700 240 q 710 183 700 201 q 744 154 719 164 l 689 -22 q 567 6 614 -17 q 489 81 519 29 q 265 -28 417 -28 q 88 38 156 -28 q 21 208 21 104 q 113 397 21 332 q 379 463 204 463 l 432 463 l 432 481 q 410 556 432 536 q 325 575 388 575 q 240 565 292 575 q 133 536 188 554 l 74 711 q 222 754 142 739 q 367 769 301 769 q 621 702 542 769 q 700 496 700 635 l 700 240 m 350 165 q 397 178 375 165 q 432 210 418 190 l 432 319 l 403 319 q 317 299 344 319 q 289 235 289 278 q 306 184 289 203 q 350 165 322 165 z "},"ẫ":{"ha":765,"x_min":21,"x_max":744,"o":"m 700 240 q 710 183 700 201 q 744 154 719 164 l 689 -22 q 567 6 614 -17 q 489 81 519 29 q 265 -28 417 -28 q 88 38 156 -28 q 21 208 21 104 q 113 397 21 332 q 379 463 204 463 l 432 463 l 432 481 q 410 556 432 536 q 325 575 388 575 q 240 565 292 575 q 133 536 188 554 l 74 711 q 222 754 142 739 q 367 769 301 769 q 621 702 542 769 q 700 496 700 635 l 700 240 m 350 165 q 397 178 375 165 q 432 210 418 190 l 432 319 l 403 319 q 317 299 344 319 q 289 235 289 278 q 306 184 289 203 q 350 165 322 165 z "},"ȁ":{"ha":765,"x_min":21,"x_max":744,"o":"m 700 240 q 710 183 700 201 q 744 154 719 164 l 689 -22 q 567 6 614 -17 q 489 81 519 29 q 265 -28 417 -28 q 88 38 156 -28 q 21 208 21 104 q 113 397 21 332 q 379 463 204 463 l 432 463 l 432 481 q 410 556 432 536 q 325 575 388 575 q 240 565 292 575 q 133 536 188 554 l 74 711 q 222 754 142 739 q 367 769 301 769 q 621 702 542 769 q 700 496 700 635 l 700 240 m 350 165 q 397 178 375 165 q 432 210 418 190 l 432 319 l 403 319 q 317 299 344 319 q 289 235 289 278 q 306 184 289 203 q 350 165 322 165 m 360 925 l 226 861 l 44 1133 l 215 1218 l 360 925 m 613 921 l 476 867 l 306 1140 l 479 1218 l 613 921 z "},"ä":{"ha":765,"x_min":21,"x_max":744,"o":"m 700 240 q 710 183 700 201 q 744 154 719 164 l 689 -22 q 567 6 614 -17 q 489 81 519 29 q 265 -28 417 -28 q 88 38 156 -28 q 21 208 21 104 q 113 397 21 332 q 379 463 204 463 l 432 463 l 432 481 q 410 556 432 536 q 325 575 388 575 q 240 565 292 575 q 133 536 188 554 l 74 711 q 222 754 142 739 q 367 769 301 769 q 621 702 542 769 q 700 496 700 635 l 700 240 m 350 165 q 397 178 375 165 q 432 210 418 190 l 432 319 l 403 319 q 317 299 344 319 q 289 235 289 278 q 306 184 289 203 q 350 165 322 165 m 214 1136 q 308 1099 269 1136 q 346 1008 346 1061 q 308 917 346 954 q 214 879 269 879 q 121 917 160 879 q 82 1008 82 954 q 121 1099 82 1061 q 214 1136 160 1136 m 554 1136 q 648 1099 610 1136 q 686 1008 686 1061 q 648 917 686 954 q 554 879 610 879 q 461 917 500 879 q 422 1008 422 954 q 461 1099 422 1061 q 554 1136 500 1136 z "},"ǟ":{"ha":765,"x_min":21,"x_max":744,"o":"m 700 240 q 710 183 700 201 q 744 154 719 164 l 689 -22 q 567 6 614 -17 q 489 81 519 29 q 265 -28 417 -28 q 88 38 156 -28 q 21 208 21 104 q 113 397 21 332 q 379 463 204 463 l 432 463 l 432 481 q 410 556 432 536 q 325 575 388 575 q 240 565 292 575 q 133 536 188 554 l 74 711 q 222 754 142 739 q 367 769 301 769 q 621 702 542 769 q 700 496 700 635 l 700 240 m 350 165 q 397 178 375 165 q 432 210 418 190 l 432 319 l 403 319 q 317 299 344 319 q 289 235 289 278 q 306 184 289 203 q 350 165 322 165 z "},"ȧ":{"ha":765,"x_min":21,"x_max":744,"o":"m 700 240 q 710 183 700 201 q 744 154 719 164 l 689 -22 q 567 6 614 -17 q 489 81 519 29 q 265 -28 417 -28 q 88 38 156 -28 q 21 208 21 104 q 113 397 21 332 q 379 463 204 463 l 432 463 l 432 481 q 410 556 432 536 q 325 575 388 575 q 240 565 292 575 q 133 536 188 554 l 74 711 q 222 754 142 739 q 367 769 301 769 q 621 702 542 769 q 700 496 700 635 l 700 240 m 350 165 q 397 178 375 165 q 432 210 418 190 l 432 319 l 403 319 q 317 299 344 319 q 289 235 289 278 q 306 184 289 203 q 350 165 322 165 m 385 1151 q 495 1109 451 1151 q 539 1004 539 1067 q 495 899 539 942 q 385 857 451 857 q 274 899 318 857 q 231 1004 231 942 q 274 1109 231 1067 q 385 1151 318 1151 z "},"ạ":{"ha":765,"x_min":21,"x_max":744,"o":"m 700 240 q 710 183 700 201 q 744 154 719 164 l 689 -22 q 567 6 614 -17 q 489 81 519 29 q 265 -28 417 -28 q 88 38 156 -28 q 21 208 21 104 q 113 397 21 332 q 379 463 204 463 l 432 463 l 432 481 q 410 556 432 536 q 325 575 388 575 q 240 565 292 575 q 133 536 188 554 l 74 711 q 222 754 142 739 q 367 769 301 769 q 621 702 542 769 q 700 496 700 635 l 700 240 m 350 165 q 397 178 375 165 q 432 210 418 190 l 432 319 l 403 319 q 317 299 344 319 q 289 235 289 278 q 306 184 289 203 q 350 165 322 165 m 385 -367 q 274 -324 318 -367 q 231 -219 231 -282 q 274 -115 231 -157 q 385 -72 318 -72 q 495 -115 451 -72 q 539 -219 539 -157 q 495 -324 539 -282 q 385 -367 451 -367 z "},"ǡ":{"ha":765,"x_min":21,"x_max":744,"o":"m 700 240 q 710 183 700 201 q 744 154 719 164 l 689 -22 q 567 6 614 -17 q 489 81 519 29 q 265 -28 417 -28 q 88 38 156 -28 q 21 208 21 104 q 113 397 21 332 q 379 463 204 463 l 432 463 l 432 481 q 410 556 432 536 q 325 575 388 575 q 240 565 292 575 q 133 536 188 554 l 74 711 q 222 754 142 739 q 367 769 301 769 q 621 702 542 769 q 700 496 700 635 l 700 240 m 350 165 q 397 178 375 165 q 432 210 418 190 l 432 319 l 403 319 q 317 299 344 319 q 289 235 289 278 q 306 184 289 203 q 350 165 322 165 z "},"à":{"ha":765,"x_min":21,"x_max":744,"o":"m 700 240 q 710 183 700 201 q 744 154 719 164 l 689 -22 q 567 6 614 -17 q 489 81 519 29 q 265 -28 417 -28 q 88 38 156 -28 q 21 208 21 104 q 113 397 21 332 q 379 463 204 463 l 432 463 l 432 481 q 410 556 432 536 q 325 575 388 575 q 240 565 292 575 q 133 536 188 554 l 74 711 q 222 754 142 739 q 367 769 301 769 q 621 702 542 769 q 700 496 700 635 l 700 240 m 350 165 q 397 178 375 165 q 432 210 418 190 l 432 319 l 403 319 q 317 299 344 319 q 289 235 289 278 q 306 184 289 203 q 350 165 322 165 m 610 989 l 536 851 l 188 989 l 290 1189 l 610 989 z "},"ả":{"ha":765,"x_min":21,"x_max":744,"o":"m 700 240 q 710 183 700 201 q 744 154 719 164 l 689 -22 q 567 6 614 -17 q 489 81 519 29 q 265 -28 417 -28 q 88 38 156 -28 q 21 208 21 104 q 113 397 21 332 q 379 463 204 463 l 432 463 l 432 481 q 410 556 432 536 q 325 575 388 575 q 240 565 292 575 q 133 536 188 554 l 74 711 q 222 754 142 739 q 367 769 301 769 q 621 702 542 769 q 700 496 700 635 l 700 240 m 350 165 q 397 178 375 165 q 432 210 418 190 l 432 319 l 403 319 q 317 299 344 319 q 289 235 289 278 q 306 184 289 203 q 350 165 322 165 m 308 978 q 384 990 361 979 q 407 1026 407 1001 q 393 1055 407 1044 q 356 1065 379 1065 q 313 1061 332 1065 q 269 1047 294 1057 l 229 1150 q 393 1189 294 1189 q 531 1147 482 1189 q 579 1039 579 1106 q 549 949 579 983 q 460 903 518 914 l 460 835 l 308 835 l 308 978 z "},"ȃ":{"ha":765,"x_min":21,"x_max":744,"o":"m 700 240 q 710 183 700 201 q 744 154 719 164 l 689 -22 q 567 6 614 -17 q 489 81 519 29 q 265 -28 417 -28 q 88 38 156 -28 q 21 208 21 104 q 113 397 21 332 q 379 463 204 463 l 432 463 l 432 481 q 410 556 432 536 q 325 575 388 575 q 240 565 292 575 q 133 536 188 554 l 74 711 q 222 754 142 739 q 367 769 301 769 q 621 702 542 769 q 700 496 700 635 l 700 240 m 350 165 q 397 178 375 165 q 432 210 418 190 l 432 319 l 403 319 q 317 299 344 319 q 289 235 289 278 q 306 184 289 203 q 350 165 322 165 m 385 1121 q 567 1043 503 1121 q 642 849 632 965 l 499 825 q 458 906 486 876 q 385 935 429 935 q 312 906 340 935 q 271 825 283 876 l 128 849 q 202 1043 138 965 q 385 1121 267 1121 z "},"ɑ":{"ha":828,"x_min":24,"x_max":821,"o":"m 764 281 q 776 209 764 233 q 821 168 789 185 l 743 -28 q 610 10 661 -17 q 529 85 558 38 q 432 3 488 33 q 310 -28 376 -28 q 97 80 169 -28 q 24 375 24 188 q 62 580 24 490 q 171 719 100 669 q 338 769 242 769 q 511 690 444 769 l 524 742 l 764 742 l 764 281 m 394 169 q 489 235 451 169 l 489 531 q 449 563 469 553 q 404 574 429 574 q 306 372 306 574 q 329 210 306 251 q 394 169 353 169 z "},"ɒ":{"ha":828,"x_min":7,"x_max":804,"o":"m 518 769 q 731 662 658 769 q 804 367 804 554 q 766 162 804 251 q 657 22 728 72 q 490 -28 586 -28 q 317 51 383 -28 l 304 0 l 64 0 l 64 461 q 51 533 64 508 q 7 574 39 557 l 85 769 q 218 731 167 758 q 299 657 269 704 q 396 739 340 708 q 518 769 451 769 m 424 168 q 522 369 522 168 q 499 531 522 490 q 433 572 475 572 q 339 507 376 572 l 339 211 q 378 178 358 189 q 424 168 399 168 z "},"ā":{"ha":765,"x_min":21,"x_max":744,"o":"m 700 240 q 710 183 700 201 q 744 154 719 164 l 689 -22 q 567 6 614 -17 q 489 81 519 29 q 265 -28 417 -28 q 88 38 156 -28 q 21 208 21 104 q 113 397 21 332 q 379 463 204 463 l 432 463 l 432 481 q 410 556 432 536 q 325 575 388 575 q 240 565 292 575 q 133 536 188 554 l 74 711 q 222 754 142 739 q 367 769 301 769 q 621 702 542 769 q 700 496 700 635 l 700 240 m 350 165 q 397 178 375 165 q 432 210 418 190 l 432 319 l 403 319 q 317 299 344 319 q 289 235 289 278 q 306 184 289 203 q 350 165 322 165 m 158 900 l 158 1086 l 610 1086 l 610 900 l 158 900 z "},"ą":{"ha":765,"x_min":21,"x_max":744,"o":"m 689 -22 q 565 -87 600 -51 q 529 -154 529 -122 q 600 -215 529 -215 q 685 -204 636 -215 l 668 -364 q 565 -375 619 -375 q 406 -328 468 -375 q 343 -200 343 -281 q 535 26 343 -51 q 489 81 506 50 q 265 -28 417 -28 q 88 38 156 -28 q 21 208 21 104 q 113 397 21 332 q 379 463 204 463 l 432 463 l 432 481 q 410 556 432 536 q 325 575 388 575 q 240 565 292 575 q 133 536 188 554 l 74 711 q 222 754 142 739 q 367 769 301 769 q 621 702 542 769 q 700 496 700 635 l 700 240 q 710 183 700 201 q 744 154 719 164 l 689 -22 m 350 165 q 397 178 375 165 q 432 210 418 190 l 432 319 l 403 319 q 317 299 344 319 q 289 235 289 278 q 306 184 289 203 q 350 165 322 165 z "},"å":{"ha":765,"x_min":21,"x_max":744,"o":"m 700 240 q 710 183 700 201 q 744 154 719 164 l 689 -22 q 567 6 614 -17 q 489 81 519 29 q 265 -28 417 -28 q 88 38 156 -28 q 21 208 21 104 q 113 397 21 332 q 379 463 204 463 l 432 463 l 432 481 q 410 556 432 536 q 325 575 388 575 q 240 565 292 575 q 133 536 188 554 l 74 711 q 222 754 142 739 q 367 769 301 769 q 621 702 542 769 q 700 496 700 635 l 700 240 m 350 165 q 397 178 375 165 q 432 210 418 190 l 432 319 l 403 319 q 317 299 344 319 q 289 235 289 278 q 306 184 289 203 q 350 165 322 165 m 385 1231 q 499 1203 450 1231 q 573 1129 547 1175 q 599 1028 599 1083 q 573 926 599 972 q 499 851 547 879 q 385 824 450 824 q 271 851 319 824 q 197 926 222 879 q 171 1028 171 972 q 197 1129 171 1083 q 271 1203 222 1175 q 385 1231 319 1231 m 385 1092 q 344 1076 360 1092 q 329 1028 329 1060 q 344 980 329 996 q 385 964 360 964 q 425 980 410 964 q 440 1028 440 996 q 425 1076 440 1060 q 385 1092 410 1092 z "},"ǻ":{"ha":765,"x_min":21,"x_max":744,"o":"m 700 240 q 710 183 700 201 q 744 154 719 164 l 689 -22 q 567 6 614 -17 q 489 81 519 29 q 265 -28 417 -28 q 88 38 156 -28 q 21 208 21 104 q 113 397 21 332 q 379 463 204 463 l 432 463 l 432 481 q 410 556 432 536 q 325 575 388 575 q 240 565 292 575 q 133 536 188 554 l 74 711 q 222 754 142 739 q 367 769 301 769 q 621 702 542 769 q 700 496 700 635 l 700 240 m 350 165 q 397 178 375 165 q 432 210 418 190 l 432 319 l 403 319 q 317 299 344 319 q 289 235 289 278 q 306 184 289 203 q 350 165 322 165 z "},"ⱥ":{"ha":765,"x_min":21,"x_max":744,"o":"m 700 240 q 710 183 700 201 q 744 154 719 164 l 689 -22 q 567 6 614 -17 q 489 81 519 29 q 329 -22 433 -4 l 310 -107 l 228 -89 l 242 -26 q 81 45 142 -19 q 21 208 21 110 q 106 381 21 318 q 353 449 192 443 l 388 596 l 367 596 q 253 585 321 596 q 133 557 186 575 l 74 711 q 222 754 142 739 q 367 769 301 769 q 428 767 389 769 l 444 839 l 525 821 l 510 754 q 654 667 608 731 q 700 496 700 603 l 700 240 m 474 501 q 464 558 474 539 l 439 449 l 474 449 l 474 501 m 371 156 q 474 206 418 164 l 474 319 l 408 319 l 371 156 m 261 228 q 288 165 261 183 l 321 313 q 276 283 290 303 q 261 228 261 263 z "},"ã":{"ha":765,"x_min":21,"x_max":744,"o":"m 700 240 q 710 183 700 201 q 744 154 719 164 l 689 -22 q 567 6 614 -17 q 489 81 519 29 q 265 -28 417 -28 q 88 38 156 -28 q 21 208 21 104 q 113 397 21 332 q 379 463 204 463 l 432 463 l 432 481 q 410 556 432 536 q 325 575 388 575 q 240 565 292 575 q 133 536 188 554 l 74 711 q 222 754 142 739 q 367 769 301 769 q 621 702 542 769 q 700 496 700 635 l 700 240 m 350 165 q 397 178 375 165 q 432 210 418 190 l 432 319 l 403 319 q 317 299 344 319 q 289 235 289 278 q 306 184 289 203 q 350 165 322 165 m 465 864 q 416 871 436 864 q 374 893 396 878 q 335 917 347 911 q 308 924 324 924 q 268 910 283 924 q 235 864 253 896 l 106 926 q 185 1062 135 1008 q 301 1115 236 1115 q 353 1108 332 1115 q 399 1085 375 1101 q 435 1062 422 1068 q 463 1056 449 1056 q 501 1069 486 1056 q 535 1115 517 1083 l 664 1053 q 583 917 635 969 q 465 864 532 864 z "},"ɐ":{"ha":765,"x_min":21,"x_max":744,"o":"m 440 167 q 526 177 474 167 q 632 206 578 188 l 692 31 q 544 -12 624 3 q 399 -28 464 -28 q 144 40 224 -28 q 65 246 65 107 l 65 501 q 56 559 65 540 q 21 588 46 578 l 76 764 q 199 735 151 758 q 276 661 246 713 q 500 769 349 769 q 677 703 610 769 q 744 533 744 638 q 653 344 744 410 q 386 279 561 279 l 333 279 l 333 261 q 356 186 333 206 q 440 167 378 167 m 415 576 q 369 564 390 576 q 333 532 347 551 l 333 422 l 363 422 q 449 443 421 422 q 476 507 476 464 q 460 558 476 539 q 415 576 443 576 z "},"æ":{"ha":1197,"x_min":21,"x_max":1176,"o":"m 1176 381 q 1171 293 1176 346 l 721 293 q 767 192 732 218 q 869 167 803 167 q 949 183 908 167 q 1038 232 989 199 l 1149 82 q 843 -28 1014 -28 q 663 5 740 -28 q 533 94 585 38 q 271 -28 447 -28 q 88 38 156 -28 q 21 208 21 104 q 115 397 21 332 q 390 463 208 463 l 443 463 l 443 478 q 421 553 443 533 q 336 572 399 572 q 251 562 303 572 q 144 533 199 551 l 85 711 q 233 754 153 739 q 378 769 313 769 q 607 685 531 769 q 835 769 699 769 q 1011 724 933 769 q 1133 590 1089 678 q 1176 381 1176 501 m 906 458 q 885 560 904 524 q 818 596 867 596 q 749 564 772 596 q 719 449 726 532 l 906 449 l 906 458 m 365 165 q 416 182 394 165 q 460 231 438 199 q 449 306 450 272 l 449 313 l 417 313 q 333 293 360 313 q 307 229 307 274 q 322 183 307 200 q 365 165 338 165 z "},"ǽ":{"ha":1197,"x_min":21,"x_max":1176,"o":"m 1176 381 q 1171 293 1176 346 l 721 293 q 767 192 732 218 q 869 167 803 167 q 949 183 908 167 q 1038 232 989 199 l 1149 82 q 843 -28 1014 -28 q 663 5 740 -28 q 533 94 585 38 q 271 -28 447 -28 q 88 38 156 -28 q 21 208 21 104 q 115 397 21 332 q 390 463 208 463 l 443 463 l 443 478 q 421 553 443 533 q 336 572 399 572 q 251 562 303 572 q 144 533 199 551 l 85 711 q 233 754 153 739 q 378 769 313 769 q 607 685 531 769 q 835 769 699 769 q 1011 724 933 769 q 1133 590 1089 678 q 1176 381 1176 501 m 906 458 q 885 560 904 524 q 818 596 867 596 q 749 564 772 596 q 719 449 726 532 l 906 449 l 906 458 m 365 165 q 416 182 394 165 q 460 231 438 199 q 449 306 450 272 l 449 313 l 417 313 q 333 293 360 313 q 307 229 307 274 q 322 183 307 200 q 365 165 338 165 m 794 989 l 446 851 l 372 989 l 692 1189 l 794 989 z "},"ǣ":{"ha":1197,"x_min":21,"x_max":1176,"o":"m 1176 381 q 1171 293 1176 346 l 721 293 q 767 192 732 218 q 869 167 803 167 q 949 183 908 167 q 1038 232 989 199 l 1149 82 q 843 -28 1014 -28 q 663 5 740 -28 q 533 94 585 38 q 271 -28 447 -28 q 88 38 156 -28 q 21 208 21 104 q 115 397 21 332 q 390 463 208 463 l 443 463 l 443 478 q 421 553 443 533 q 336 572 399 572 q 251 562 303 572 q 144 533 199 551 l 85 711 q 233 754 153 739 q 378 769 313 769 q 607 685 531 769 q 835 769 699 769 q 1011 724 933 769 q 1133 590 1089 678 q 1176 381 1176 501 m 906 458 q 885 560 904 524 q 818 596 867 596 q 749 564 772 596 q 719 449 726 532 l 906 449 l 906 458 m 365 165 q 416 182 394 165 q 460 231 438 199 q 449 306 450 272 l 449 313 l 417 313 q 333 293 360 313 q 307 229 307 274 q 322 183 307 200 q 365 165 338 165 m 371 900 l 371 1086 l 822 1086 l 822 900 l 371 900 z "},"b":{"ha":825,"x_min":58,"x_max":801,"o":"m 528 769 q 732 665 663 769 q 801 369 801 560 q 766 165 801 256 q 663 24 731 75 q 504 -28 596 -28 q 395 -3 444 -28 q 313 64 346 21 l 303 0 l 58 0 l 58 1033 l 333 1061 l 333 676 q 417 744 364 718 q 528 769 469 769 m 421 168 q 494 214 468 168 q 519 369 519 260 q 497 531 519 489 q 431 572 474 572 q 333 503 374 572 l 333 222 q 421 168 365 168 z "},"ḃ":{"ha":825,"x_min":58,"x_max":801,"o":"m 528 769 q 732 665 663 769 q 801 369 801 560 q 766 165 801 256 q 663 24 731 75 q 504 -28 596 -28 q 395 -3 444 -28 q 313 64 346 21 l 303 0 l 58 0 l 58 1033 l 333 1061 l 333 676 q 417 744 364 718 q 528 769 469 769 m 421 168 q 494 214 468 168 q 519 369 519 260 q 497 531 519 489 q 431 572 474 572 q 333 503 374 572 l 333 222 q 421 168 365 168 z "},"ḅ":{"ha":825,"x_min":58,"x_max":801,"o":"m 528 769 q 732 665 663 769 q 801 369 801 560 q 766 165 801 256 q 663 24 731 75 q 504 -28 596 -28 q 395 -3 444 -28 q 313 64 346 21 l 303 0 l 58 0 l 58 1033 l 333 1061 l 333 676 q 417 744 364 718 q 528 769 469 769 m 421 168 q 494 214 468 168 q 519 369 519 260 q 497 531 519 489 q 431 572 474 572 q 333 503 374 572 l 333 222 q 421 168 365 168 m 428 -367 q 317 -324 361 -367 q 274 -219 274 -282 q 317 -115 274 -157 q 428 -72 361 -72 q 538 -115 494 -72 q 582 -219 582 -157 q 538 -324 582 -282 q 428 -367 494 -367 z "},"ꞵ":{"ha":847,"x_min":58,"x_max":828,"o":"m 564 564 q 750 493 672 553 q 828 292 828 433 q 788 126 828 199 q 676 13 747 54 q 511 -28 604 -28 q 321 26 404 -28 l 321 -278 l 58 -315 l 58 763 q 103 923 58 856 q 228 1026 149 990 q 408 1061 308 1061 q 592 1026 515 1061 q 708 931 668 992 q 747 794 747 871 q 702 647 747 707 q 564 564 657 588 m 426 179 q 518 213 485 179 q 551 319 551 247 q 513 432 551 401 q 413 463 475 463 l 368 463 l 382 642 l 394 642 q 459 674 438 642 q 481 767 481 706 q 403 874 481 874 q 342 847 364 874 q 321 765 321 819 l 321 199 q 426 179 363 179 z "},"ɓ":{"ha":825,"x_min":58,"x_max":801,"o":"m 521 769 q 731 665 661 769 q 801 369 801 561 q 766 165 801 256 q 663 24 731 75 q 504 -28 596 -28 q 395 -3 444 -28 q 313 64 346 21 l 303 0 l 58 0 l 58 785 q 139 983 58 906 q 372 1061 219 1061 q 490 1047 431 1061 q 590 1010 550 1032 l 518 839 q 410 864 464 864 q 351 843 369 864 q 333 771 333 822 l 333 676 q 416 744 364 718 q 521 769 468 769 m 424 168 q 494 214 469 168 q 519 369 519 260 q 497 531 519 489 q 432 572 474 572 q 333 503 372 572 l 333 222 q 424 168 365 168 z "},"ʭ":{"ha":528,"x_min":42,"x_max":486,"o":"m 42 797 l 486 797 l 486 556 l 329 556 l 329 667 l 199 667 l 199 556 l 42 556 l 42 797 m 42 242 l 486 242 l 486 0 l 329 0 l 329 111 l 199 111 l 199 0 l 42 0 l 42 242 z "},"ʘ":{"ha":1113,"x_min":28,"x_max":1085,"o":"m 557 994 q 834 931 714 994 q 1019 752 954 868 q 1085 485 1085 636 q 1019 222 1085 339 q 833 39 953 106 q 557 -28 713 -28 q 280 36 400 -28 q 94 217 160 100 q 28 485 28 333 q 94 747 28 631 q 281 928 160 863 q 557 994 401 994 m 557 811 q 297 485 297 811 q 557 156 297 156 q 750 235 685 156 q 815 485 815 315 q 745 731 815 650 q 557 811 675 811 m 557 600 q 646 566 611 600 q 681 482 681 532 q 646 399 681 432 q 557 365 611 365 q 468 399 503 365 q 433 482 433 432 q 468 566 433 532 q 557 600 503 600 z "},"ʬ":{"ha":653,"x_min":43,"x_max":611,"o":"m 532 556 l 374 556 l 333 825 l 286 556 l 132 556 l 43 929 l 156 929 l 214 636 l 263 929 l 407 929 l 454 635 l 504 929 l 611 929 l 532 556 m 532 0 l 374 0 l 333 269 l 286 0 l 132 0 l 43 374 l 156 374 l 214 81 l 263 374 l 407 374 l 454 79 l 504 374 l 611 374 l 532 0 z "},"ƀ":{"ha":839,"x_min":0,"x_max":815,"o":"m 542 769 q 746 665 676 769 q 815 369 815 560 q 780 165 815 256 q 677 24 744 75 q 518 -28 610 -28 q 409 -3 458 -28 q 326 64 360 21 l 317 0 l 72 0 l 72 819 l 0 819 l 0 967 l 72 967 l 72 1033 l 347 1061 l 347 967 l 517 967 l 517 819 l 347 819 l 347 676 q 431 744 378 718 q 542 769 483 769 m 435 168 q 508 214 482 168 q 533 369 533 260 q 510 531 533 489 q 444 572 488 572 q 347 503 388 572 l 347 222 q 435 168 379 168 z "},"ƃ":{"ha":825,"x_min":58,"x_max":801,"o":"m 521 742 q 731 640 661 742 q 801 356 801 538 q 766 161 801 249 q 663 23 731 74 q 504 -28 596 -28 q 395 -3 444 -28 q 313 64 346 21 l 303 0 l 58 0 l 58 1033 l 631 1033 l 603 840 l 333 840 l 333 649 q 416 716 364 690 q 521 742 468 742 m 424 168 q 519 356 519 168 q 497 505 519 465 q 432 544 474 544 q 333 475 372 544 l 333 222 q 424 168 365 168 z "},"c":{"ha":665,"x_min":24,"x_max":679,"o":"m 410 769 q 679 671 568 769 l 565 511 q 435 563 501 563 q 340 518 371 563 q 310 365 310 474 q 341 223 310 261 q 432 185 372 185 q 492 195 464 185 q 561 232 519 206 l 679 64 q 417 -28 567 -28 q 207 22 296 -28 q 71 160 118 71 q 24 365 24 250 q 72 574 24 482 q 207 717 119 665 q 410 769 294 769 z "},"ć":{"ha":665,"x_min":24,"x_max":679,"o":"m 410 769 q 679 671 568 769 l 565 511 q 435 563 501 563 q 340 518 371 563 q 310 365 310 474 q 341 223 310 261 q 432 185 372 185 q 492 195 464 185 q 561 232 519 206 l 679 64 q 417 -28 567 -28 q 207 22 296 -28 q 71 160 118 71 q 24 365 24 250 q 72 574 24 482 q 207 717 119 665 q 410 769 294 769 m 603 989 l 254 851 l 181 989 l 500 1189 l 603 989 z "},"č":{"ha":665,"x_min":24,"x_max":689,"o":"m 410 769 q 679 671 568 769 l 565 511 q 435 563 501 563 q 340 518 371 563 q 310 365 310 474 q 341 223 310 261 q 432 185 372 185 q 492 195 464 185 q 561 232 519 206 l 679 64 q 417 -28 567 -28 q 207 22 296 -28 q 71 160 118 71 q 24 365 24 250 q 72 574 24 482 q 207 717 119 665 q 410 769 294 769 m 689 1046 l 488 836 l 324 836 l 122 1046 l 215 1153 l 406 1019 l 596 1153 l 689 1046 z "},"ç":{"ha":665,"x_min":24,"x_max":679,"o":"m 679 64 q 463 -25 583 -14 l 463 -60 q 615 -210 615 -79 q 554 -333 615 -285 q 388 -382 493 -382 q 291 -369 336 -382 q 214 -335 246 -356 l 274 -215 q 363 -240 319 -240 q 425 -207 425 -240 q 394 -176 425 -185 q 294 -167 364 -167 l 313 -17 q 100 115 176 13 q 24 365 24 217 q 72 574 24 482 q 207 717 119 665 q 410 769 294 769 q 679 671 568 769 l 565 511 q 435 563 501 563 q 340 518 371 563 q 310 365 310 474 q 341 223 310 261 q 432 185 372 185 q 492 195 464 185 q 561 232 519 206 l 679 64 z "},"ĉ":{"ha":665,"x_min":24,"x_max":689,"o":"m 410 769 q 679 671 568 769 l 565 511 q 435 563 501 563 q 340 518 371 563 q 310 365 310 474 q 341 223 310 261 q 432 185 372 185 q 492 195 464 185 q 561 232 519 206 l 679 64 q 417 -28 567 -28 q 207 22 296 -28 q 71 160 118 71 q 24 365 24 250 q 72 574 24 482 q 207 717 119 665 q 410 769 294 769 m 122 957 l 324 1167 l 488 1167 l 689 957 l 596 850 l 406 983 l 215 850 l 122 957 z "},"ɕ":{"ha":707,"x_min":24,"x_max":714,"o":"m 529 371 q 661 324 608 371 q 714 194 714 278 q 635 28 714 83 q 438 -28 557 -28 q 340 -19 381 -28 l 293 -125 l 169 -78 l 217 22 q 74 156 124 67 q 24 365 24 246 q 72 574 24 482 q 207 717 119 665 q 410 769 294 769 q 679 671 568 769 l 565 511 q 435 563 501 563 q 340 518 371 563 q 310 365 310 474 q 325 244 310 296 q 408 342 358 313 q 529 371 458 371 m 472 160 q 536 204 536 160 q 501 238 536 238 q 419 167 454 238 q 472 160 447 160 z "},"ċ":{"ha":665,"x_min":24,"x_max":679,"o":"m 410 769 q 679 671 568 769 l 565 511 q 435 563 501 563 q 340 518 371 563 q 310 365 310 474 q 341 223 310 261 q 432 185 372 185 q 492 195 464 185 q 561 232 519 206 l 679 64 q 417 -28 567 -28 q 207 22 296 -28 q 71 160 118 71 q 24 365 24 250 q 72 574 24 482 q 207 717 119 665 q 410 769 294 769 m 406 1151 q 516 1109 472 1151 q 560 1004 560 1067 q 516 899 560 942 q 406 857 472 857 q 295 899 339 857 q 251 1004 251 942 q 295 1109 251 1067 q 406 1151 339 1151 z "},"ꭓ":{"ha":724,"x_min":-28,"x_max":751,"o":"m 751 -299 l 476 -299 l 364 39 l 253 -299 l -28 -287 l 222 250 l 21 742 l 289 742 l 367 431 l 443 742 l 718 742 l 501 257 l 751 -299 z "},"ƈ":{"ha":665,"x_min":24,"x_max":901,"o":"m 697 1061 q 901 1010 811 1061 l 829 840 q 740 864 779 864 q 694 846 708 864 q 679 789 679 828 l 679 671 l 581 532 q 440 563 515 563 q 342 518 374 563 q 310 365 310 474 q 341 223 310 261 q 432 185 372 185 q 492 195 464 185 q 561 232 519 206 l 679 64 q 417 -28 567 -28 q 207 22 296 -28 q 71 160 118 71 q 24 365 24 250 q 69 573 24 481 q 194 717 115 665 q 368 769 274 769 q 446 760 404 769 l 446 813 q 508 996 446 931 q 697 1061 569 1061 z "},"ʗ":{"ha":672,"x_min":31,"x_max":686,"o":"m 438 769 q 686 671 585 769 l 576 518 q 456 563 513 563 q 351 484 385 563 q 317 222 317 406 q 349 -29 317 44 q 444 -103 382 -103 q 503 -92 476 -103 q 568 -57 531 -82 l 686 -224 q 436 -315 574 -315 q 135 -174 240 -315 q 31 222 31 -32 q 79 513 31 390 q 219 703 128 636 q 438 769 311 769 z "},"ȼ":{"ha":665,"x_min":24,"x_max":679,"o":"m 432 185 q 492 195 464 185 q 561 232 519 206 l 679 64 q 417 -28 567 -28 q 363 -25 396 -28 l 340 -107 l 253 -86 l 274 -7 q 90 130 156 32 q 24 365 24 228 q 72 574 24 482 q 207 717 119 665 q 410 769 294 769 q 478 765 444 769 l 497 839 l 583 818 l 564 743 q 679 671 628 717 l 565 511 q 511 546 540 532 l 417 185 l 432 185 m 310 365 q 336 231 310 275 l 424 563 q 338 515 367 560 q 310 365 310 469 z "},"d":{"ha":828,"x_min":24,"x_max":769,"o":"m 769 1033 l 769 0 l 525 0 l 515 76 q 306 -28 436 -28 q 94 79 165 -28 q 24 375 24 186 q 63 578 24 489 q 172 719 101 668 q 333 769 242 769 q 494 711 429 769 l 494 1061 l 769 1033 m 399 169 q 494 235 457 169 l 494 532 q 456 563 475 553 q 413 574 436 574 q 335 526 364 574 q 306 372 306 478 q 330 210 306 250 q 399 169 354 169 z "},"ð":{"ha":811,"x_min":24,"x_max":781,"o":"m 508 936 q 717 703 654 836 q 781 394 781 571 q 737 183 781 279 q 606 29 693 86 q 397 -28 519 -28 q 206 15 290 -28 q 72 136 121 57 q 24 324 24 215 q 65 503 24 424 q 173 626 106 582 q 318 669 240 669 q 410 657 369 669 q 489 621 450 644 q 440 711 469 672 q 363 788 411 750 l 300 724 l 131 800 l 193 867 q 88 888 133 881 l 140 1060 q 339 1015 243 1046 l 444 1126 l 579 1008 l 508 936 m 403 168 q 479 210 458 168 q 500 347 500 251 l 500 453 q 401 483 457 483 q 303 326 303 483 q 328 204 303 240 q 403 168 353 168 z "},"ȸ":{"ha":1206,"x_min":24,"x_max":1182,"o":"m 929 769 q 1117 664 1051 769 q 1182 369 1182 558 q 1147 166 1182 257 q 1047 24 1111 75 q 899 -28 983 -28 q 799 -2 846 -28 q 722 72 753 24 l 711 0 l 497 0 l 486 76 q 292 -28 410 -28 q 92 80 161 -28 q 24 375 24 188 q 60 578 24 489 q 163 719 97 668 q 313 769 229 769 q 397 750 357 769 q 467 690 436 731 l 467 1033 l 742 1061 l 742 675 q 823 744 774 718 q 929 769 872 769 m 388 169 q 427 186 406 169 q 467 235 449 203 l 467 526 q 393 574 432 574 q 330 526 354 574 q 306 372 306 478 q 328 211 306 253 q 388 169 351 169 m 818 168 q 877 215 854 168 q 900 369 900 261 q 879 530 900 488 q 825 572 858 572 q 742 513 781 572 l 742 228 q 778 184 758 200 q 818 168 799 168 z "},"ď":{"ha":1026,"x_min":24,"x_max":1054,"o":"m 769 1033 l 769 0 l 525 0 l 515 76 q 306 -28 436 -28 q 94 79 165 -28 q 24 375 24 186 q 63 578 24 489 q 172 719 101 668 q 333 769 242 769 q 494 711 429 769 l 494 1061 l 769 1033 m 399 169 q 494 235 457 169 l 494 532 q 456 563 475 553 q 413 574 436 574 q 335 526 364 574 q 306 372 306 478 q 330 210 306 250 q 399 169 354 169 m 1054 1032 l 858 1061 l 824 729 l 974 707 l 1054 1032 z "},"ḓ":{"ha":828,"x_min":24,"x_max":769,"o":"m 769 1033 l 769 0 l 525 0 l 515 76 q 306 -28 436 -28 q 94 79 165 -28 q 24 375 24 186 q 63 578 24 489 q 172 719 101 668 q 333 769 242 769 q 494 711 429 769 l 494 1061 l 769 1033 m 399 169 q 494 235 457 169 l 494 532 q 456 563 475 553 q 413 574 436 574 q 335 526 364 574 q 306 372 306 478 q 330 210 306 250 q 399 169 354 169 m 138 -293 l 339 -83 l 503 -83 l 704 -293 l 611 -400 l 421 -267 l 231 -400 l 138 -293 z "},"đ":{"ha":849,"x_min":24,"x_max":849,"o":"m 849 967 l 849 819 l 769 819 l 769 0 l 525 0 l 515 76 q 306 -28 436 -28 q 94 79 165 -28 q 24 375 24 186 q 63 578 24 489 q 172 719 101 668 q 333 769 242 769 q 494 711 429 769 l 494 819 l 329 819 l 329 967 l 494 967 l 494 1061 l 769 1033 l 769 967 l 849 967 m 399 169 q 494 235 457 169 l 494 532 q 456 563 475 553 q 413 574 436 574 q 335 526 364 574 q 306 372 306 478 q 330 210 306 250 q 399 169 354 169 z "},"ȡ":{"ha":1131,"x_min":24,"x_max":1131,"o":"m 953 358 q 1080 313 1029 358 q 1131 190 1131 268 q 1051 26 1131 81 q 847 -28 972 -28 q 790 -25 826 -28 l 744 -125 l 621 -78 l 663 8 q 542 113 586 43 q 440 8 497 44 q 306 -28 383 -28 q 94 79 165 -28 q 24 375 24 186 q 62 580 24 490 q 172 719 100 669 q 340 769 243 769 q 423 754 382 769 q 494 711 464 739 l 494 1061 l 769 1033 l 769 306 q 775 239 769 263 q 848 331 807 303 q 953 358 889 358 m 401 169 q 499 242 458 169 q 494 306 494 271 l 494 532 q 456 563 474 553 q 414 574 438 574 q 335 526 364 574 q 306 372 306 478 q 318 243 306 288 q 351 184 331 199 q 401 169 371 169 m 899 160 q 938 169 922 160 q 953 196 953 178 q 945 217 953 210 q 924 225 938 225 q 895 212 907 225 q 868 161 883 199 q 899 160 878 160 z "},"ḋ":{"ha":828,"x_min":24,"x_max":769,"o":"m 769 1033 l 769 0 l 525 0 l 515 76 q 306 -28 436 -28 q 94 79 165 -28 q 24 375 24 186 q 63 578 24 489 q 172 719 101 668 q 333 769 242 769 q 494 711 429 769 l 494 1061 l 769 1033 m 399 169 q 494 235 457 169 l 494 532 q 456 563 475 553 q 413 574 436 574 q 335 526 364 574 q 306 372 306 478 q 330 210 306 250 q 399 169 354 169 z "},"ḍ":{"ha":828,"x_min":24,"x_max":769,"o":"m 769 1033 l 769 0 l 525 0 l 515 76 q 306 -28 436 -28 q 94 79 165 -28 q 24 375 24 186 q 63 578 24 489 q 172 719 101 668 q 333 769 242 769 q 494 711 429 769 l 494 1061 l 769 1033 m 399 169 q 494 235 457 169 l 494 532 q 456 563 475 553 q 413 574 436 574 q 335 526 364 574 q 306 372 306 478 q 330 210 306 250 q 399 169 354 169 m 421 -367 q 310 -324 354 -367 q 267 -219 267 -282 q 310 -115 267 -157 q 421 -72 354 -72 q 531 -115 488 -72 q 575 -219 575 -157 q 531 -324 575 -282 q 421 -367 488 -367 z "},"ƍ":{"ha":800,"x_min":24,"x_max":776,"o":"m 563 111 q 675 17 647 63 q 703 -90 703 -28 q 622 -252 703 -189 q 372 -315 540 -315 q 215 -290 286 -315 q 96 -225 143 -265 l 217 -86 q 357 -131 288 -131 q 444 -82 444 -131 q 437 -51 444 -64 q 403 -25 429 -39 q 322 11 378 -11 q 93 160 163 74 q 24 393 24 247 q 70 596 24 511 q 201 725 117 681 q 400 769 286 769 q 676 673 576 769 q 776 406 776 576 q 724 235 776 310 q 563 111 671 160 m 306 392 q 314 293 306 328 q 349 233 322 258 q 431 179 375 208 q 485 271 472 222 q 497 392 497 319 q 474 530 497 488 q 401 572 451 572 q 329 530 353 572 q 306 392 306 488 z "},"ʤ":{"ha":1465,"x_min":24,"x_max":1458,"o":"m 769 1033 l 769 0 l 525 0 l 515 76 q 306 -28 436 -28 q 94 79 165 -28 q 24 375 24 186 q 63 578 24 489 q 172 719 101 668 q 333 769 242 769 q 494 711 429 769 l 494 1061 l 769 1033 m 399 169 q 494 235 457 169 l 494 532 q 456 563 475 553 q 413 574 436 574 q 335 526 364 574 q 306 372 306 478 q 330 210 306 250 q 399 169 354 169 m 1176 299 q 1385 215 1313 285 q 1458 15 1458 144 q 1411 -153 1458 -78 q 1274 -272 1364 -228 q 1061 -315 1185 -315 q 713 -162 838 -315 l 854 -25 q 947 -90 904 -69 q 1042 -110 990 -110 q 1140 -74 1101 -110 q 1178 35 1178 -37 q 1140 124 1178 97 q 1029 151 1101 151 l 889 151 l 889 300 l 1097 542 l 775 542 l 775 742 l 1407 742 l 1407 558 l 1176 299 z "},"ɗ":{"ha":828,"x_min":24,"x_max":992,"o":"m 788 1061 q 992 1010 901 1061 l 919 840 q 831 864 869 864 q 784 846 799 864 q 769 789 769 828 l 769 0 l 525 0 l 515 76 q 306 -28 436 -28 q 94 79 165 -28 q 24 375 24 186 q 62 580 24 490 q 172 719 100 669 q 340 769 243 769 q 423 754 382 769 q 494 711 464 739 l 494 785 q 569 983 494 906 q 788 1061 644 1061 m 401 169 q 494 235 457 169 l 494 532 q 456 563 474 553 q 414 574 438 574 q 335 526 364 574 q 306 372 306 478 q 318 243 306 288 q 351 184 331 199 q 401 169 371 169 z "},"ḏ":{"ha":828,"x_min":24,"x_max":769,"o":"m 769 1033 l 769 0 l 525 0 l 515 76 q 306 -28 436 -28 q 94 79 165 -28 q 24 375 24 186 q 63 578 24 489 q 172 719 101 668 q 333 769 242 769 q 494 711 429 769 l 494 1061 l 769 1033 m 399 169 q 494 235 457 169 l 494 532 q 456 563 475 553 q 413 574 436 574 q 335 526 364 574 q 306 372 306 478 q 330 210 306 250 q 399 169 354 169 z "},"ɖ":{"ha":828,"x_min":24,"x_max":1025,"o":"m 1025 -253 q 806 -315 939 -315 q 578 -240 663 -315 q 494 -22 494 -165 l 494 53 q 306 -28 419 -28 q 94 79 165 -28 q 24 375 24 186 q 62 580 24 490 q 172 719 100 669 q 340 769 243 769 q 423 754 382 769 q 494 711 464 739 l 494 1061 l 769 1033 l 769 -47 q 788 -102 769 -83 q 842 -121 807 -121 q 888 -115 868 -121 q 936 -96 907 -110 l 1025 -253 m 401 169 q 494 235 457 169 l 494 532 q 456 563 474 553 q 414 574 438 574 q 335 526 364 574 q 306 372 306 478 q 318 243 306 288 q 351 184 331 199 q 401 169 371 169 z "},"ƌ":{"ha":828,"x_min":24,"x_max":769,"o":"m 769 0 l 525 0 l 515 76 q 306 -28 436 -28 q 94 77 165 -28 q 24 361 24 182 q 62 556 24 469 q 172 692 100 643 q 340 742 244 742 q 423 726 382 742 q 494 683 464 711 l 494 840 l 211 840 l 211 1033 l 769 1033 l 769 0 m 401 169 q 494 235 457 169 l 494 504 q 456 535 474 525 q 414 546 438 546 q 335 501 365 546 q 306 358 306 456 q 331 208 306 246 q 401 169 356 169 z "},"ǳ":{"ha":1476,"x_min":24,"x_max":1469,"o":"m 769 1033 l 769 0 l 525 0 l 515 76 q 306 -28 436 -28 q 94 79 165 -28 q 24 375 24 186 q 63 578 24 489 q 172 719 101 668 q 333 769 242 769 q 494 711 429 769 l 494 1061 l 769 1033 m 399 169 q 494 235 457 169 l 494 532 q 456 563 475 553 q 413 574 436 574 q 335 526 364 574 q 306 372 306 478 q 330 210 306 250 q 399 169 354 169 m 1460 551 l 1156 203 l 1469 203 l 1446 0 l 835 0 l 835 192 l 1143 542 l 863 542 l 863 742 l 1460 742 l 1460 551 z "},"ʣ":{"ha":1413,"x_min":24,"x_max":1406,"o":"m 1406 203 l 1382 0 l 771 0 l 771 185 l 1093 542 l 769 542 l 769 0 l 525 0 l 515 76 q 306 -28 436 -28 q 94 79 165 -28 q 24 375 24 186 q 63 578 24 489 q 172 719 101 668 q 333 769 242 769 q 494 711 429 769 l 494 1061 l 769 1033 l 769 742 l 1396 742 l 1396 551 l 1078 203 l 1406 203 m 399 169 q 494 235 457 169 l 494 532 q 456 563 475 553 q 413 574 436 574 q 335 526 364 574 q 306 372 306 478 q 330 210 306 250 q 399 169 354 169 z "},"ǆ":{"ha":1476,"x_min":24,"x_max":1469,"o":"m 769 1033 l 769 0 l 525 0 l 515 76 q 306 -28 436 -28 q 94 79 165 -28 q 24 375 24 186 q 63 578 24 489 q 172 719 101 668 q 333 769 242 769 q 494 711 429 769 l 494 1061 l 769 1033 m 399 169 q 494 235 457 169 l 494 532 q 456 563 475 553 q 413 574 436 574 q 335 526 364 574 q 306 372 306 478 q 330 210 306 250 q 399 169 354 169 z "},"ʥ":{"ha":1596,"x_min":24,"x_max":1617,"o":"m 1426 413 q 1563 363 1510 413 q 1617 229 1617 314 q 1540 59 1617 119 q 1303 0 1464 -1 q 1294 -137 1294 -42 l 1294 -183 l 1149 -183 q 1157 0 1149 -75 l 771 0 l 771 192 l 1093 542 l 769 542 l 769 0 l 525 0 l 515 76 q 306 -28 436 -28 q 94 79 165 -28 q 24 375 24 186 q 63 578 24 489 q 172 719 101 668 q 333 769 242 769 q 494 711 429 769 l 494 1061 l 769 1033 l 769 742 l 1396 742 l 1396 565 l 1064 203 l 1185 203 q 1279 364 1218 315 q 1426 413 1340 413 m 399 169 q 494 235 457 169 l 494 532 q 456 563 475 553 q 413 574 436 574 q 335 526 364 574 q 306 372 306 478 q 330 210 306 250 q 399 169 354 169 m 1367 203 q 1439 247 1439 203 q 1430 270 1439 261 q 1404 279 1421 279 q 1329 203 1351 279 l 1367 203 z "},"e":{"ha":778,"x_min":24,"x_max":757,"o":"m 757 381 q 751 293 757 346 l 301 293 q 348 192 313 218 q 450 167 383 167 q 529 183 489 167 q 618 232 569 199 l 729 82 q 424 -28 594 -28 q 125 81 226 -28 q 24 369 24 190 q 66 572 24 481 q 192 716 108 663 q 393 769 275 769 q 585 724 503 769 q 712 590 667 678 q 757 381 757 503 m 486 458 q 466 560 485 524 q 399 596 447 596 q 330 564 353 596 q 300 449 307 532 l 486 449 l 486 458 z "},"é":{"ha":778,"x_min":24,"x_max":757,"o":"m 757 381 q 751 293 757 346 l 301 293 q 348 192 313 218 q 450 167 383 167 q 529 183 489 167 q 618 232 569 199 l 729 82 q 424 -28 594 -28 q 125 81 226 -28 q 24 369 24 190 q 66 572 24 481 q 192 716 108 663 q 393 769 275 769 q 585 724 503 769 q 712 590 667 678 q 757 381 757 503 m 486 458 q 466 560 485 524 q 399 596 447 596 q 330 564 353 596 q 300 449 307 532 l 486 449 l 486 458 m 593 989 l 244 851 l 171 989 l 490 1189 l 593 989 z "},"ĕ":{"ha":778,"x_min":24,"x_max":757,"o":"m 757 381 q 751 293 757 346 l 301 293 q 348 192 313 218 q 450 167 383 167 q 529 183 489 167 q 618 232 569 199 l 729 82 q 424 -28 594 -28 q 125 81 226 -28 q 24 369 24 190 q 66 572 24 481 q 192 716 108 663 q 393 769 275 769 q 585 724 503 769 q 712 590 667 678 q 757 381 757 503 m 486 458 q 466 560 485 524 q 399 596 447 596 q 330 564 353 596 q 300 449 307 532 l 486 449 l 486 458 m 396 869 q 213 947 278 869 q 139 1142 149 1025 l 282 1165 q 323 1085 294 1114 q 396 1056 351 1056 q 469 1085 440 1056 q 510 1165 497 1114 l 653 1142 q 578 947 643 1025 q 396 869 514 869 z "},"ě":{"ha":778,"x_min":24,"x_max":757,"o":"m 757 381 q 751 293 757 346 l 301 293 q 348 192 313 218 q 450 167 383 167 q 529 183 489 167 q 618 232 569 199 l 729 82 q 424 -28 594 -28 q 125 81 226 -28 q 24 369 24 190 q 66 572 24 481 q 192 716 108 663 q 393 769 275 769 q 585 724 503 769 q 712 590 667 678 q 757 381 757 503 m 486 458 q 466 560 485 524 q 399 596 447 596 q 330 564 353 596 q 300 449 307 532 l 486 449 l 486 458 m 679 1046 l 478 836 l 314 836 l 113 1046 l 206 1153 l 396 1019 l 586 1153 l 679 1046 z "},"ȩ":{"ha":778,"x_min":24,"x_max":757,"o":"m 757 381 q 751 293 757 346 l 301 293 q 348 192 313 218 q 450 167 383 167 q 529 183 489 167 q 618 232 569 199 l 729 82 q 486 -24 621 -7 l 486 -60 q 639 -210 639 -79 q 578 -333 639 -285 q 411 -382 517 -382 q 315 -369 360 -382 q 238 -335 269 -356 l 297 -215 q 386 -240 343 -240 q 449 -207 449 -240 q 418 -176 449 -185 q 318 -167 388 -167 l 336 -21 q 103 107 182 3 q 24 369 24 211 q 66 572 24 481 q 192 716 108 663 q 393 769 275 769 q 585 724 503 769 q 712 590 667 678 q 757 381 757 503 m 486 458 q 466 560 485 524 q 399 596 447 596 q 330 564 353 596 q 300 449 307 532 l 486 449 l 486 458 z "},"ê":{"ha":778,"x_min":24,"x_max":757,"o":"m 757 381 q 751 293 757 346 l 301 293 q 348 192 313 218 q 450 167 383 167 q 529 183 489 167 q 618 232 569 199 l 729 82 q 424 -28 594 -28 q 125 81 226 -28 q 24 369 24 190 q 66 572 24 481 q 192 716 108 663 q 393 769 275 769 q 585 724 503 769 q 712 590 667 678 q 757 381 757 503 m 486 458 q 466 560 485 524 q 399 596 447 596 q 330 564 353 596 q 300 449 307 532 l 486 449 l 486 458 m 113 957 l 314 1167 l 478 1167 l 679 957 l 586 850 l 396 983 l 206 850 l 113 957 z "},"ế":{"ha":778,"x_min":24,"x_max":886,"o":"m 757 381 q 751 293 757 346 l 301 293 q 348 192 313 218 q 450 167 383 167 q 529 183 489 167 q 618 232 569 199 l 729 82 q 424 -28 594 -28 q 125 81 226 -28 q 24 369 24 190 q 66 572 24 481 q 192 716 108 663 q 393 769 275 769 q 585 724 503 769 q 712 590 667 678 q 757 381 757 503 m 486 458 q 466 560 485 524 q 399 596 447 596 q 330 564 353 596 q 300 449 307 532 l 486 449 l 486 458 z "},"ệ":{"ha":778,"x_min":24,"x_max":757,"o":"m 757 381 q 751 293 757 346 l 301 293 q 348 192 313 218 q 450 167 383 167 q 529 183 489 167 q 618 232 569 199 l 729 82 q 424 -28 594 -28 q 125 81 226 -28 q 24 369 24 190 q 66 572 24 481 q 192 716 108 663 q 393 769 275 769 q 585 724 503 769 q 712 590 667 678 q 757 381 757 503 m 486 458 q 466 560 485 524 q 399 596 447 596 q 330 564 353 596 q 300 449 307 532 l 486 449 l 486 458 m 113 957 l 314 1167 l 478 1167 l 679 957 l 586 850 l 396 983 l 206 850 l 113 957 m 408 -367 q 298 -324 342 -367 q 254 -219 254 -282 q 298 -115 254 -157 q 408 -72 342 -72 q 519 -115 475 -72 q 563 -219 563 -157 q 519 -324 563 -282 q 408 -367 475 -367 z "},"ề":{"ha":778,"x_min":-92,"x_max":757,"o":"m 757 381 q 751 293 757 346 l 301 293 q 348 192 313 218 q 450 167 383 167 q 529 183 489 167 q 618 232 569 199 l 729 82 q 424 -28 594 -28 q 125 81 226 -28 q 24 369 24 190 q 66 572 24 481 q 192 716 108 663 q 393 769 275 769 q 585 724 503 769 q 712 590 667 678 q 757 381 757 503 m 486 458 q 466 560 485 524 q 399 596 447 596 q 330 564 353 596 q 300 449 307 532 l 486 449 l 486 458 z "},"ể":{"ha":778,"x_min":24,"x_max":806,"o":"m 757 381 q 751 293 757 346 l 301 293 q 348 192 313 218 q 450 167 383 167 q 529 183 489 167 q 618 232 569 199 l 729 82 q 424 -28 594 -28 q 125 81 226 -28 q 24 369 24 190 q 66 572 24 481 q 192 716 108 663 q 393 769 275 769 q 585 724 503 769 q 712 590 667 678 q 757 381 757 503 m 486 458 q 466 560 485 524 q 399 596 447 596 q 330 564 353 596 q 300 449 307 532 l 486 449 l 486 458 z "},"ễ":{"ha":778,"x_min":24,"x_max":757,"o":"m 757 381 q 751 293 757 346 l 301 293 q 348 192 313 218 q 450 167 383 167 q 529 183 489 167 q 618 232 569 199 l 729 82 q 424 -28 594 -28 q 125 81 226 -28 q 24 369 24 190 q 66 572 24 481 q 192 716 108 663 q 393 769 275 769 q 585 724 503 769 q 712 590 667 678 q 757 381 757 503 m 486 458 q 466 560 485 524 q 399 596 447 596 q 330 564 353 596 q 300 449 307 532 l 486 449 l 486 458 z "},"ȅ":{"ha":778,"x_min":24,"x_max":757,"o":"m 757 381 q 751 293 757 346 l 301 293 q 348 192 313 218 q 450 167 383 167 q 529 183 489 167 q 618 232 569 199 l 729 82 q 424 -28 594 -28 q 125 81 226 -28 q 24 369 24 190 q 66 572 24 481 q 192 716 108 663 q 393 769 275 769 q 585 724 503 769 q 712 590 667 678 q 757 381 757 503 m 486 458 q 466 560 485 524 q 399 596 447 596 q 330 564 353 596 q 300 449 307 532 l 486 449 l 486 458 m 371 925 l 238 861 l 56 1133 l 226 1218 l 371 925 m 624 921 l 488 867 l 317 1140 l 490 1218 l 624 921 z "},"ë":{"ha":778,"x_min":24,"x_max":757,"o":"m 757 381 q 751 293 757 346 l 301 293 q 348 192 313 218 q 450 167 383 167 q 529 183 489 167 q 618 232 569 199 l 729 82 q 424 -28 594 -28 q 125 81 226 -28 q 24 369 24 190 q 66 572 24 481 q 192 716 108 663 q 393 769 275 769 q 585 724 503 769 q 712 590 667 678 q 757 381 757 503 m 486 458 q 466 560 485 524 q 399 596 447 596 q 330 564 353 596 q 300 449 307 532 l 486 449 l 486 458 m 225 1136 q 319 1099 281 1136 q 357 1008 357 1061 q 319 917 357 954 q 225 879 281 879 q 132 917 171 879 q 93 1008 93 954 q 132 1099 93 1061 q 225 1136 171 1136 m 565 1136 q 659 1099 621 1136 q 697 1008 697 1061 q 659 917 697 954 q 565 879 621 879 q 472 917 511 879 q 433 1008 433 954 q 472 1099 433 1061 q 565 1136 511 1136 z "},"ė":{"ha":778,"x_min":24,"x_max":757,"o":"m 757 381 q 751 293 757 346 l 301 293 q 348 192 313 218 q 450 167 383 167 q 529 183 489 167 q 618 232 569 199 l 729 82 q 424 -28 594 -28 q 125 81 226 -28 q 24 369 24 190 q 66 572 24 481 q 192 716 108 663 q 393 769 275 769 q 585 724 503 769 q 712 590 667 678 q 757 381 757 503 m 486 458 q 466 560 485 524 q 399 596 447 596 q 330 564 353 596 q 300 449 307 532 l 486 449 l 486 458 m 396 1151 q 506 1109 463 1151 q 550 1004 550 1067 q 506 899 550 942 q 396 857 463 857 q 285 899 329 857 q 242 1004 242 942 q 285 1109 242 1067 q 396 1151 329 1151 z "},"ẹ":{"ha":778,"x_min":24,"x_max":757,"o":"m 757 381 q 751 293 757 346 l 301 293 q 348 192 313 218 q 450 167 383 167 q 529 183 489 167 q 618 232 569 199 l 729 82 q 424 -28 594 -28 q 125 81 226 -28 q 24 369 24 190 q 66 572 24 481 q 192 716 108 663 q 393 769 275 769 q 585 724 503 769 q 712 590 667 678 q 757 381 757 503 m 486 458 q 466 560 485 524 q 399 596 447 596 q 330 564 353 596 q 300 449 307 532 l 486 449 l 486 458 m 408 -367 q 298 -324 342 -367 q 254 -219 254 -282 q 298 -115 254 -157 q 408 -72 342 -72 q 519 -115 475 -72 q 563 -219 563 -157 q 519 -324 563 -282 q 408 -367 475 -367 z "},"è":{"ha":778,"x_min":24,"x_max":757,"o":"m 757 381 q 751 293 757 346 l 301 293 q 348 192 313 218 q 450 167 383 167 q 529 183 489 167 q 618 232 569 199 l 729 82 q 424 -28 594 -28 q 125 81 226 -28 q 24 369 24 190 q 66 572 24 481 q 192 716 108 663 q 393 769 275 769 q 585 724 503 769 q 712 590 667 678 q 757 381 757 503 m 486 458 q 466 560 485 524 q 399 596 447 596 q 330 564 353 596 q 300 449 307 532 l 486 449 l 486 458 m 621 989 l 547 851 l 199 989 l 301 1189 l 621 989 z "},"ẻ":{"ha":778,"x_min":24,"x_max":757,"o":"m 757 381 q 751 293 757 346 l 301 293 q 348 192 313 218 q 450 167 383 167 q 529 183 489 167 q 618 232 569 199 l 729 82 q 424 -28 594 -28 q 125 81 226 -28 q 24 369 24 190 q 66 572 24 481 q 192 716 108 663 q 393 769 275 769 q 585 724 503 769 q 712 590 667 678 q 757 381 757 503 m 486 458 q 466 560 485 524 q 399 596 447 596 q 330 564 353 596 q 300 449 307 532 l 486 449 l 486 458 m 319 978 q 395 990 372 979 q 418 1026 418 1001 q 404 1055 418 1044 q 367 1065 390 1065 q 324 1061 343 1065 q 281 1047 306 1057 l 240 1150 q 404 1189 306 1189 q 542 1147 493 1189 q 590 1039 590 1106 q 560 949 590 983 q 471 903 529 914 l 471 835 l 319 835 l 319 978 z "},"ȇ":{"ha":778,"x_min":24,"x_max":757,"o":"m 757 381 q 751 293 757 346 l 301 293 q 348 192 313 218 q 450 167 383 167 q 529 183 489 167 q 618 232 569 199 l 729 82 q 424 -28 594 -28 q 125 81 226 -28 q 24 369 24 190 q 66 572 24 481 q 192 716 108 663 q 393 769 275 769 q 585 724 503 769 q 712 590 667 678 q 757 381 757 503 m 486 458 q 466 560 485 524 q 399 596 447 596 q 330 564 353 596 q 300 449 307 532 l 486 449 l 486 458 m 396 1121 q 578 1043 514 1121 q 653 849 643 965 l 510 825 q 469 906 497 876 q 396 935 440 935 q 323 906 351 935 q 282 825 294 876 l 139 849 q 213 1043 149 965 q 396 1121 278 1121 z "},"ē":{"ha":778,"x_min":24,"x_max":757,"o":"m 757 381 q 751 293 757 346 l 301 293 q 348 192 313 218 q 450 167 383 167 q 529 183 489 167 q 618 232 569 199 l 729 82 q 424 -28 594 -28 q 125 81 226 -28 q 24 369 24 190 q 66 572 24 481 q 192 716 108 663 q 393 769 275 769 q 585 724 503 769 q 712 590 667 678 q 757 381 757 503 m 486 458 q 466 560 485 524 q 399 596 447 596 q 330 564 353 596 q 300 449 307 532 l 486 449 l 486 458 m 169 900 l 169 1086 l 621 1086 l 621 900 l 169 900 z "},"ę":{"ha":778,"x_min":24,"x_max":757,"o":"m 757 381 q 751 293 757 346 l 301 293 q 348 192 313 218 q 450 167 383 167 q 529 183 489 167 q 618 232 569 199 l 729 82 q 557 -8 651 19 q 481 -63 503 -35 q 458 -117 458 -92 q 529 -178 458 -178 q 614 -167 565 -178 l 597 -326 q 494 -337 549 -337 q 335 -290 397 -337 q 272 -162 272 -243 q 353 -24 272 -76 q 107 102 190 -3 q 24 369 24 207 q 66 572 24 481 q 192 716 108 663 q 393 769 275 769 q 585 724 503 769 q 712 590 667 678 q 757 381 757 503 m 486 458 q 466 560 485 524 q 399 596 447 596 q 330 564 353 596 q 300 449 307 532 l 486 449 l 486 458 z "},"ɛ":{"ha":675,"x_min":21,"x_max":682,"o":"m 364 769 q 663 676 540 769 l 556 540 q 478 575 514 564 q 403 586 443 586 q 347 571 368 586 q 325 528 325 556 q 344 479 325 497 q 404 461 364 461 l 501 461 l 476 294 l 393 294 q 324 277 346 294 q 303 229 303 260 q 404 161 303 161 q 481 173 442 161 q 571 213 519 185 l 682 63 q 358 -28 558 -28 q 115 33 208 -28 q 21 204 21 93 q 226 394 21 369 q 49 564 49 431 q 135 714 49 658 q 364 769 222 769 z "},"ʚ":{"ha":797,"x_min":21,"x_max":774,"o":"m 383 -28 q 118 33 215 -28 q 21 211 21 94 q 72 336 21 292 q 226 394 124 381 q 56 561 56 435 q 145 713 56 657 q 383 769 235 769 q 593 721 506 769 q 727 583 681 672 q 774 372 774 493 q 672 76 774 179 q 383 -28 571 -28 m 382 161 q 458 181 432 161 q 493 246 483 201 q 503 372 503 290 q 477 537 503 488 q 392 586 451 586 q 342 570 360 586 q 325 525 325 554 q 401 461 325 461 l 411 461 l 426 294 l 383 294 q 316 280 336 294 q 296 232 296 265 q 382 161 296 161 z "},"ɜ":{"ha":686,"x_min":-7,"x_max":665,"o":"m 326 769 q 483 744 414 769 q 591 671 551 718 q 631 561 631 624 q 460 394 631 435 q 614 336 563 381 q 665 211 665 292 q 569 33 665 94 q 306 -28 472 -28 q -7 60 117 -28 l 119 208 q 208 171 168 181 q 296 161 247 161 q 383 229 383 161 q 296 294 383 294 l 169 294 l 185 461 l 278 461 q 354 528 354 461 q 336 571 354 556 q 285 586 318 586 q 210 575 244 586 q 139 542 175 564 l 14 682 q 326 769 143 769 z "},"ɞ":{"ha":797,"x_min":24,"x_max":776,"o":"m 414 -28 q 125 76 226 -28 q 24 372 24 179 q 70 583 24 493 q 204 721 117 672 q 414 769 292 769 q 652 713 563 769 q 742 561 742 657 q 571 394 742 435 q 725 336 674 381 q 776 211 776 292 q 679 33 776 94 q 414 -28 582 -28 m 415 161 q 501 232 501 161 q 481 280 501 265 q 414 294 461 294 l 371 294 l 386 461 l 396 461 q 472 525 472 461 q 455 570 472 554 q 406 586 438 586 q 320 537 346 586 q 294 372 294 488 q 304 246 294 290 q 340 181 314 201 q 415 161 365 161 z "},"ɝ":{"ha":1093,"x_min":-7,"x_max":1107,"o":"m 1107 472 q 926 421 1031 421 q 770 463 828 421 q 694 581 713 506 l 693 586 l 631 549 q 460 394 622 433 q 614 336 563 381 q 665 211 665 292 q 569 33 665 94 q 306 -28 472 -28 q -7 60 117 -28 l 119 208 q 208 171 168 181 q 296 161 247 161 q 383 229 383 161 q 296 294 383 294 l 169 294 l 185 461 l 278 461 q 354 528 354 461 q 336 571 354 556 q 285 586 318 586 q 210 575 244 586 q 139 542 175 564 l 14 682 q 326 769 143 769 q 471 748 406 769 q 576 688 536 726 l 679 742 l 899 742 l 899 668 q 915 620 899 636 q 960 604 932 604 q 1011 612 989 604 q 1038 621 1033 619 l 1107 472 z "},"ɘ":{"ha":778,"x_min":21,"x_max":754,"o":"m 385 769 q 662 660 569 769 q 754 369 754 551 q 653 81 754 190 q 354 -28 551 -28 q 49 82 183 -28 l 160 232 q 249 183 208 199 q 328 167 289 167 q 430 192 394 167 q 476 293 465 218 l 26 293 q 21 381 21 346 q 66 590 21 503 q 194 724 111 678 q 385 769 276 769 m 292 449 l 478 449 q 451 566 472 536 q 383 596 431 596 q 313 560 332 596 q 292 458 293 524 l 292 449 z "},"ʃ":{"ha":392,"x_min":-197,"x_max":556,"o":"m 351 1061 q 556 1010 465 1061 l 483 840 q 394 864 433 864 q 348 846 363 864 q 333 789 333 828 l 333 -22 q 249 -240 333 -165 q 22 -315 165 -315 q -197 -253 -111 -315 l -108 -96 q -60 -115 -79 -110 q -14 -121 -40 -121 q 40 -102 21 -121 q 58 -47 58 -83 l 58 785 q 133 983 58 906 q 351 1061 208 1061 z "},"ʆ":{"ha":500,"x_min":-104,"x_max":664,"o":"m 442 79 q 439 0 442 50 q 571 -57 506 -22 l 525 -162 q 417 -121 485 -144 q 311 -267 385 -219 q 117 -315 238 -315 q -47 -270 10 -315 q -104 -143 -104 -225 q -44 -4 -104 -53 q 121 44 17 44 q 167 43 151 44 l 167 785 q 242 983 167 906 q 460 1061 317 1061 q 664 1010 574 1061 l 592 840 q 503 864 542 864 q 456 846 471 864 q 442 789 442 828 l 442 79 m 94 -185 q 146 -160 129 -185 q 165 -78 163 -136 q 119 -76 151 -76 q 43 -135 43 -76 q 56 -172 43 -158 q 94 -185 69 -185 z "},"ƪ":{"ha":639,"x_min":-28,"x_max":836,"o":"m 836 -253 q 617 -315 750 -315 q 390 -240 474 -315 q 306 -22 306 -165 l 306 549 q 215 532 263 532 q 40 604 107 532 q -28 794 -28 676 q 7 931 -28 871 q 108 1026 42 992 q 268 1061 175 1061 q 438 1024 367 1061 q 544 921 508 986 q 581 771 581 856 l 581 -47 q 599 -102 581 -83 q 653 -121 618 -121 q 699 -115 679 -121 q 747 -96 718 -110 l 836 -253 m 267 715 q 306 719 288 715 l 306 814 q 256 878 306 878 q 200 799 200 878 q 217 735 200 756 q 267 715 233 715 z "},"ʅ":{"ha":711,"x_min":-21,"x_max":732,"o":"m 732 35 q 513 -28 646 -28 q 285 47 369 -28 q 201 265 201 122 l 201 497 q 187 554 201 536 q 140 572 172 572 q 51 549 101 572 l -21 718 q 183 769 69 769 q 401 692 326 769 q 476 493 476 614 l 476 240 q 495 185 476 204 q 549 167 514 167 q 594 172 575 167 q 643 192 614 178 l 732 35 z "},"ɇ":{"ha":778,"x_min":24,"x_max":757,"o":"m 417 300 l 383 171 q 450 167 413 167 q 529 183 489 167 q 618 232 569 199 l 729 82 q 424 -28 594 -28 q 332 -21 381 -28 l 310 -107 l 228 -86 l 250 0 q 81 139 138 42 q 24 369 24 236 q 66 572 24 481 q 192 716 108 663 q 393 769 275 769 q 453 765 424 769 l 472 839 l 553 818 l 535 747 q 699 615 640 708 q 757 381 757 521 q 751 300 757 353 l 417 300 m 399 603 q 307 567 336 603 q 272 442 278 532 l 367 442 l 410 603 l 399 603 m 521 451 q 513 524 519 494 q 488 572 506 553 l 454 442 l 521 442 l 521 451 m 329 300 l 274 300 q 306 210 279 240 l 329 300 z "},"ẽ":{"ha":778,"x_min":24,"x_max":757,"o":"m 757 381 q 751 293 757 346 l 301 293 q 348 192 313 218 q 450 167 383 167 q 529 183 489 167 q 618 232 569 199 l 729 82 q 424 -28 594 -28 q 125 81 226 -28 q 24 369 24 190 q 66 572 24 481 q 192 716 108 663 q 393 769 275 769 q 585 724 503 769 q 712 590 667 678 q 757 381 757 503 m 486 458 q 466 560 485 524 q 399 596 447 596 q 330 564 353 596 q 300 449 307 532 l 486 449 l 486 458 m 476 864 q 427 871 447 864 q 385 893 407 878 q 347 917 358 911 q 319 924 335 924 q 279 910 294 924 q 246 864 264 896 l 117 926 q 197 1062 146 1008 q 313 1115 247 1115 q 365 1108 343 1115 q 410 1085 386 1101 q 447 1062 433 1068 q 474 1056 460 1056 q 513 1069 497 1056 q 546 1115 528 1083 l 675 1053 q 594 917 646 969 q 476 864 543 864 z "},"ǝ":{"ha":778,"x_min":21,"x_max":754,"o":"z "},"ə":{"ha":778,"x_min":21,"x_max":754,"o":"m 378 769 q 660 661 565 769 q 754 372 754 553 q 712 170 754 261 q 586 26 669 79 q 385 -28 503 -28 q 193 18 275 -28 q 66 151 111 64 q 21 361 21 239 q 26 449 21 396 l 496 449 q 458 549 490 517 q 367 582 426 582 q 273 569 317 582 q 181 525 229 556 l 69 671 q 205 744 131 718 q 378 769 279 769 m 385 160 q 462 191 435 160 q 496 293 489 222 l 278 293 l 278 283 q 307 193 281 226 q 385 160 333 160 z "},"ɚ":{"ha":1190,"x_min":21,"x_max":1204,"o":"m 1204 472 q 1024 421 1128 421 q 867 463 925 421 q 792 581 810 506 l 790 586 l 726 549 q 754 372 754 468 q 712 170 754 261 q 586 26 669 79 q 385 -28 503 -28 q 193 18 275 -28 q 66 151 111 64 q 21 361 21 239 q 26 449 21 396 l 496 449 q 458 549 490 517 q 367 582 426 582 q 273 569 317 582 q 181 525 229 556 l 69 671 q 205 744 131 718 q 378 769 279 769 q 647 674 551 769 l 776 742 l 996 742 l 996 668 q 1013 620 996 636 q 1057 604 1029 604 q 1108 612 1086 604 q 1135 621 1131 619 l 1204 472 m 385 160 q 462 191 435 160 q 496 293 489 222 l 278 293 l 278 283 q 307 193 281 226 q 385 160 333 160 z "},"ʒ":{"ha":725,"x_min":-28,"x_max":718,"o":"m 436 299 q 645 215 572 285 q 718 15 718 144 q 671 -153 718 -78 q 534 -272 624 -228 q 321 -315 444 -315 q -28 -162 97 -315 l 114 -25 q 207 -90 164 -69 q 301 -110 250 -110 q 399 -74 361 -110 q 438 35 438 -37 q 399 124 438 97 q 289 151 361 151 l 149 151 l 149 300 l 357 542 l 35 542 l 35 742 l 667 742 l 667 558 l 436 299 z "},"ǯ":{"ha":725,"x_min":-28,"x_max":718,"o":"m 436 299 q 645 215 572 285 q 718 15 718 144 q 671 -153 718 -78 q 534 -272 624 -228 q 321 -315 444 -315 q -28 -162 97 -315 l 114 -25 q 207 -90 164 -69 q 301 -110 250 -110 q 399 -74 361 -110 q 438 35 438 -37 q 399 124 438 97 q 289 151 361 151 l 149 151 l 149 300 l 357 542 l 35 542 l 35 742 l 667 742 l 667 558 l 436 299 m 635 1046 l 433 836 l 269 836 l 68 1046 l 161 1153 l 351 1019 l 542 1153 l 635 1046 z "},"ʓ":{"ha":725,"x_min":-28,"x_max":718,"o":"m 718 22 q 658 -169 718 -87 q 479 -287 597 -250 l 517 -365 l 393 -412 l 347 -312 q 279 -315 306 -315 q 56 -254 140 -315 q -28 -82 -28 -193 q 24 53 -28 6 q 157 100 76 100 q 278 63 231 100 q 369 -62 326 26 l 381 -86 q 438 42 438 -54 q 400 138 438 110 q 289 165 363 165 l 149 165 l 149 314 l 361 542 l 35 542 l 35 742 l 667 742 l 667 558 l 436 313 q 718 22 718 282 m 150 -68 q 173 -101 150 -92 q 261 -110 196 -110 q 224 -51 240 -68 q 185 -33 207 -33 q 150 -68 150 -33 z "},"ƹ":{"ha":725,"x_min":7,"x_max":753,"o":"m 753 -162 q 403 -315 628 -315 q 191 -272 281 -315 q 54 -155 101 -229 q 7 11 7 -81 q 81 211 7 139 q 289 299 154 283 l 58 558 l 58 742 l 690 742 l 690 542 l 363 542 l 576 293 l 576 151 l 436 151 q 288 29 288 151 q 325 -74 288 -39 q 422 -110 363 -110 q 519 -91 475 -110 q 615 -28 563 -72 l 753 -162 z "},"ƺ":{"ha":739,"x_min":28,"x_max":711,"o":"m 282 -315 q 104 -231 171 -287 q 38 -93 38 -174 q 97 35 38 -12 q 281 110 156 82 q 398 147 365 129 q 431 196 431 165 q 406 236 431 224 q 324 249 382 249 l 156 249 l 156 383 l 343 556 l 28 556 l 28 742 l 660 742 l 660 572 l 449 396 l 461 396 q 645 339 579 396 q 711 186 711 282 q 638 20 711 75 q 436 -60 564 -35 q 315 -92 344 -78 q 285 -126 285 -107 q 338 -171 285 -151 l 282 -315 z "},"f":{"ha":513,"x_min":-3,"x_max":629,"o":"m 449 864 q 390 843 408 864 q 372 771 372 822 l 372 742 l 544 742 l 514 556 l 372 556 l 372 0 l 97 0 l 97 556 l -3 556 l -3 742 l 97 742 l 97 785 q 178 983 97 906 q 411 1061 258 1061 q 529 1047 469 1061 q 629 1010 589 1032 l 557 836 q 449 864 506 864 z "},"ḟ":{"ha":513,"x_min":-3,"x_max":629,"o":"m 449 864 q 390 843 408 864 q 372 771 372 822 l 372 742 l 544 742 l 514 556 l 372 556 l 372 0 l 97 0 l 97 556 l -3 556 l -3 742 l 97 742 l 97 785 q 178 983 97 906 q 411 1061 258 1061 q 529 1047 469 1061 q 629 1010 589 1032 l 557 836 q 449 864 506 864 z "},"ʩ":{"ha":1229,"x_min":-3,"x_max":1181,"o":"m 981 769 q 1127 711 1074 769 q 1181 547 1181 653 l 1181 -22 q 1097 -240 1181 -165 q 869 -315 1013 -315 q 650 -253 736 -315 l 739 -96 q 788 -115 768 -110 q 833 -121 807 -121 q 887 -102 868 -121 q 906 -47 906 -83 l 906 497 q 895 554 906 539 q 864 569 885 569 q 771 496 818 569 l 771 0 l 496 0 l 496 556 l 372 556 l 372 0 l 97 0 l 97 556 l -3 556 l -3 742 l 97 742 l 97 785 q 178 983 97 906 q 411 1061 258 1061 q 529 1047 469 1061 q 629 1010 589 1032 l 557 836 q 449 864 506 864 q 390 843 408 864 q 372 771 372 822 l 372 742 l 736 742 l 756 665 q 860 744 807 719 q 981 769 914 769 z "},"g":{"ha":792,"x_min":-7,"x_max":792,"o":"m 792 692 q 581 658 718 658 q 690 583 656 626 q 725 464 725 539 q 685 338 725 394 q 570 251 644 282 q 396 219 496 219 q 317 224 342 219 q 300 197 300 215 q 314 172 300 182 q 372 163 328 163 l 479 163 q 639 135 571 163 q 744 56 707 107 q 781 -58 781 6 q 674 -247 781 -178 q 369 -315 568 -315 q 141 -285 224 -315 q 26 -200 58 -254 q -7 -68 -7 -146 l 239 -68 q 250 -112 239 -97 q 290 -135 261 -128 q 378 -142 319 -142 q 478 -124 453 -142 q 504 -78 504 -107 q 485 -39 504 -54 q 425 -24 467 -24 l 322 -24 q 133 17 194 -24 q 72 125 72 58 q 99 208 72 168 q 167 274 125 249 q 60 365 92 314 q 28 490 28 417 q 122 696 28 622 q 376 769 217 769 q 566 797 482 765 q 732 883 650 828 l 792 692 m 385 592 q 324 567 347 592 q 300 496 300 542 q 324 420 300 446 q 385 394 347 394 q 469 500 469 394 q 449 570 469 549 q 385 592 428 592 z "},"ǵ":{"ha":792,"x_min":-7,"x_max":792,"o":"m 792 692 q 581 658 718 658 q 690 583 656 626 q 725 464 725 539 q 685 338 725 394 q 570 251 644 282 q 396 219 496 219 q 317 224 342 219 q 300 197 300 215 q 314 172 300 182 q 372 163 328 163 l 479 163 q 639 135 571 163 q 744 56 707 107 q 781 -58 781 6 q 674 -247 781 -178 q 369 -315 568 -315 q 141 -285 224 -315 q 26 -200 58 -254 q -7 -68 -7 -146 l 239 -68 q 250 -112 239 -97 q 290 -135 261 -128 q 378 -142 319 -142 q 478 -124 453 -142 q 504 -78 504 -107 q 485 -39 504 -54 q 425 -24 467 -24 l 322 -24 q 133 17 194 -24 q 72 125 72 58 q 99 208 72 168 q 167 274 125 249 q 60 365 92 314 q 28 490 28 417 q 122 696 28 622 q 376 769 217 769 q 566 797 482 765 q 732 883 650 828 l 792 692 m 385 592 q 324 567 347 592 q 300 496 300 542 q 324 420 300 446 q 385 394 347 394 q 469 500 469 394 q 449 570 469 549 q 385 592 428 592 m 593 989 l 244 851 l 171 989 l 490 1189 l 593 989 z "},"ɣ":{"ha":742,"x_min":-21,"x_max":763,"o":"m 504 129 q 582 -10 558 47 q 606 -128 606 -67 q 550 -265 606 -215 q 375 -315 494 -315 q 201 -265 257 -315 q 144 -128 144 -215 q 167 -15 144 -71 q 246 129 189 42 l -21 742 l 271 742 l 375 303 l 479 742 l 763 742 l 504 129 m 413 -115 q 403 -72 413 -94 q 375 -11 394 -50 q 338 -117 338 -82 q 347 -145 338 -135 q 375 -156 357 -156 q 413 -115 413 -156 z "},"ğ":{"ha":792,"x_min":-7,"x_max":792,"o":"m 792 692 q 581 658 718 658 q 690 583 656 626 q 725 464 725 539 q 685 338 725 394 q 570 251 644 282 q 396 219 496 219 q 317 224 342 219 q 300 197 300 215 q 314 172 300 182 q 372 163 328 163 l 479 163 q 639 135 571 163 q 744 56 707 107 q 781 -58 781 6 q 674 -247 781 -178 q 369 -315 568 -315 q 141 -285 224 -315 q 26 -200 58 -254 q -7 -68 -7 -146 l 239 -68 q 250 -112 239 -97 q 290 -135 261 -128 q 378 -142 319 -142 q 478 -124 453 -142 q 504 -78 504 -107 q 485 -39 504 -54 q 425 -24 467 -24 l 322 -24 q 133 17 194 -24 q 72 125 72 58 q 99 208 72 168 q 167 274 125 249 q 60 365 92 314 q 28 490 28 417 q 122 696 28 622 q 376 769 217 769 q 566 797 482 765 q 732 883 650 828 l 792 692 m 385 592 q 324 567 347 592 q 300 496 300 542 q 324 420 300 446 q 385 394 347 394 q 469 500 469 394 q 449 570 469 549 q 385 592 428 592 m 396 869 q 213 947 278 869 q 139 1142 149 1025 l 282 1165 q 323 1085 294 1114 q 396 1056 351 1056 q 469 1085 440 1056 q 510 1165 497 1114 l 653 1142 q 578 947 643 1025 q 396 869 514 869 z "},"ǧ":{"ha":792,"x_min":-7,"x_max":792,"o":"m 792 692 q 581 658 718 658 q 690 583 656 626 q 725 464 725 539 q 685 338 725 394 q 570 251 644 282 q 396 219 496 219 q 317 224 342 219 q 300 197 300 215 q 314 172 300 182 q 372 163 328 163 l 479 163 q 639 135 571 163 q 744 56 707 107 q 781 -58 781 6 q 674 -247 781 -178 q 369 -315 568 -315 q 141 -285 224 -315 q 26 -200 58 -254 q -7 -68 -7 -146 l 239 -68 q 250 -112 239 -97 q 290 -135 261 -128 q 378 -142 319 -142 q 478 -124 453 -142 q 504 -78 504 -107 q 485 -39 504 -54 q 425 -24 467 -24 l 322 -24 q 133 17 194 -24 q 72 125 72 58 q 99 208 72 168 q 167 274 125 249 q 60 365 92 314 q 28 490 28 417 q 122 696 28 622 q 376 769 217 769 q 566 797 482 765 q 732 883 650 828 l 792 692 m 385 592 q 324 567 347 592 q 300 496 300 542 q 324 420 300 446 q 385 394 347 394 q 469 500 469 394 q 449 570 469 549 q 385 592 428 592 m 679 1046 l 478 836 l 314 836 l 113 1046 l 206 1153 l 396 1019 l 586 1153 l 679 1046 z "},"ĝ":{"ha":792,"x_min":-7,"x_max":792,"o":"m 792 692 q 581 658 718 658 q 690 583 656 626 q 725 464 725 539 q 685 338 725 394 q 570 251 644 282 q 396 219 496 219 q 317 224 342 219 q 300 197 300 215 q 314 172 300 182 q 372 163 328 163 l 479 163 q 639 135 571 163 q 744 56 707 107 q 781 -58 781 6 q 674 -247 781 -178 q 369 -315 568 -315 q 141 -285 224 -315 q 26 -200 58 -254 q -7 -68 -7 -146 l 239 -68 q 250 -112 239 -97 q 290 -135 261 -128 q 378 -142 319 -142 q 478 -124 453 -142 q 504 -78 504 -107 q 485 -39 504 -54 q 425 -24 467 -24 l 322 -24 q 133 17 194 -24 q 72 125 72 58 q 99 208 72 168 q 167 274 125 249 q 60 365 92 314 q 28 490 28 417 q 122 696 28 622 q 376 769 217 769 q 566 797 482 765 q 732 883 650 828 l 792 692 m 385 592 q 324 567 347 592 q 300 496 300 542 q 324 420 300 446 q 385 394 347 394 q 469 500 469 394 q 449 570 469 549 q 385 592 428 592 m 113 957 l 314 1167 l 478 1167 l 679 957 l 586 850 l 396 983 l 206 850 l 113 957 z "},"ģ":{"ha":792,"x_min":-7,"x_max":792,"o":"m 792 692 q 581 658 718 658 q 690 583 656 626 q 725 464 725 539 q 685 338 725 394 q 570 251 644 282 q 396 219 496 219 q 317 224 342 219 q 300 197 300 215 q 314 172 300 182 q 372 163 328 163 l 479 163 q 639 135 571 163 q 744 56 707 107 q 781 -58 781 6 q 674 -247 781 -178 q 369 -315 568 -315 q 141 -285 224 -315 q 26 -200 58 -254 q -7 -68 -7 -146 l 239 -68 q 250 -112 239 -97 q 290 -135 261 -128 q 378 -142 319 -142 q 478 -124 453 -142 q 504 -78 504 -107 q 485 -39 504 -54 q 425 -24 467 -24 l 322 -24 q 133 17 194 -24 q 72 125 72 58 q 99 208 72 168 q 167 274 125 249 q 60 365 92 314 q 28 490 28 417 q 122 696 28 622 q 376 769 217 769 q 566 797 482 765 q 732 883 650 828 l 792 692 m 385 592 q 324 567 347 592 q 300 496 300 542 q 324 420 300 446 q 385 394 347 394 q 469 500 469 394 q 449 570 469 549 q 385 592 428 592 m 388 796 q 296 832 332 796 q 260 922 260 868 q 268 976 260 951 q 297 1044 276 1001 l 367 1185 l 497 1185 l 463 1026 q 515 922 515 986 q 479 833 515 869 q 388 796 443 796 z "},"ġ":{"ha":792,"x_min":-7,"x_max":792,"o":"m 792 692 q 581 658 718 658 q 690 583 656 626 q 725 464 725 539 q 685 338 725 394 q 570 251 644 282 q 396 219 496 219 q 317 224 342 219 q 300 197 300 215 q 314 172 300 182 q 372 163 328 163 l 479 163 q 639 135 571 163 q 744 56 707 107 q 781 -58 781 6 q 674 -247 781 -178 q 369 -315 568 -315 q 141 -285 224 -315 q 26 -200 58 -254 q -7 -68 -7 -146 l 239 -68 q 250 -112 239 -97 q 290 -135 261 -128 q 378 -142 319 -142 q 478 -124 453 -142 q 504 -78 504 -107 q 485 -39 504 -54 q 425 -24 467 -24 l 322 -24 q 133 17 194 -24 q 72 125 72 58 q 99 208 72 168 q 167 274 125 249 q 60 365 92 314 q 28 490 28 417 q 122 696 28 622 q 376 769 217 769 q 566 797 482 765 q 732 883 650 828 l 792 692 m 385 592 q 324 567 347 592 q 300 496 300 542 q 324 420 300 446 q 385 394 347 394 q 469 500 469 394 q 449 570 469 549 q 385 592 428 592 m 396 1151 q 506 1109 463 1151 q 550 1004 550 1067 q 506 899 550 942 q 396 857 463 857 q 285 899 329 857 q 242 1004 242 942 q 285 1109 242 1067 q 396 1151 329 1151 z "},"ɠ":{"ha":825,"x_min":21,"x_max":989,"o":"m 785 1061 q 989 1010 899 1061 l 917 840 q 828 864 867 864 q 781 846 796 864 q 767 789 767 828 l 767 33 q 667 -231 767 -146 q 382 -315 568 -315 q 90 -242 207 -315 l 171 -76 q 357 -121 260 -121 q 459 -92 426 -121 q 492 -6 492 -64 l 492 81 q 303 0 417 0 q 92 105 163 0 q 21 389 21 210 q 59 584 21 497 q 169 720 97 671 q 338 769 242 769 q 492 710 422 769 l 492 785 q 567 983 492 906 q 785 1061 642 1061 m 399 197 q 492 263 454 197 l 492 532 q 453 563 471 553 q 411 574 435 574 q 333 528 363 574 q 303 386 303 483 q 328 235 303 274 q 399 197 353 197 z "},"ƾ":{"ha":711,"x_min":-14,"x_max":688,"o":"m 504 601 q 642 499 597 568 q 688 317 688 431 q 642 133 688 211 q 514 14 596 56 q 325 -28 432 -28 q -14 106 126 -28 l 118 240 q 197 186 160 203 q 279 169 235 169 q 372 207 338 169 q 407 317 407 244 q 368 453 407 401 q 243 525 329 504 l 179 538 l 179 722 l 88 722 l 88 869 l 179 869 l 179 1033 l 454 1061 l 454 869 l 579 869 l 579 722 l 454 722 l 454 614 l 504 601 z "},"ʔ":{"ha":694,"x_min":-28,"x_max":674,"o":"m 179 496 l 224 510 q 352 587 311 538 q 393 717 393 636 q 358 826 393 789 q 265 864 324 864 q 183 847 221 864 q 104 793 146 831 l -28 928 q 311 1061 113 1061 q 500 1020 418 1061 q 628 902 582 979 q 674 721 674 825 q 627 542 674 608 q 485 433 581 476 l 454 419 l 454 0 l 179 0 l 179 496 z "},"ʖ":{"ha":711,"x_min":-14,"x_max":688,"o":"m 454 1061 l 454 614 l 504 601 q 642 499 597 568 q 688 317 688 431 q 642 133 688 211 q 514 14 596 56 q 325 -28 432 -28 q -14 106 126 -28 l 118 240 q 197 186 160 203 q 279 169 235 169 q 372 207 338 169 q 407 317 407 244 q 368 453 407 401 q 243 525 329 504 l 179 538 l 179 1033 l 454 1061 z "},"ʕ":{"ha":694,"x_min":21,"x_max":722,"o":"m 240 0 l 240 419 l 210 433 q 67 542 114 476 q 21 722 21 608 q 69 902 21 825 q 201 1020 117 979 q 390 1061 285 1061 q 572 1028 492 1061 q 722 928 651 994 l 590 793 q 514 847 551 829 q 432 864 476 864 q 338 825 374 864 q 301 713 301 786 q 342 586 301 635 q 471 510 383 538 l 515 496 l 515 0 l 240 0 z "},"ɂ":{"ha":661,"x_min":-14,"x_max":633,"o":"m 147 286 l 203 303 q 314 360 276 325 q 351 457 351 396 q 323 542 351 511 q 249 572 294 572 q 179 558 210 572 q 113 513 149 543 l -14 644 q 283 769 111 769 q 467 731 388 769 q 590 622 546 692 q 633 460 633 551 q 592 311 633 367 q 464 224 551 256 l 422 208 l 422 0 l 147 0 l 147 286 z "},"ʡ":{"ha":694,"x_min":-28,"x_max":674,"o":"m 454 419 l 454 314 l 579 314 l 579 167 l 454 167 l 454 0 l 179 0 l 179 167 l 88 167 l 88 314 l 179 314 l 179 496 l 224 510 q 352 587 311 538 q 393 717 393 636 q 358 826 393 789 q 265 864 324 864 q 183 847 221 864 q 104 793 146 831 l -28 928 q 311 1061 113 1061 q 500 1020 418 1061 q 628 902 582 979 q 674 721 674 825 q 627 542 674 608 q 485 433 581 476 l 454 419 z "},"ʢ":{"ha":694,"x_min":21,"x_max":722,"o":"m 515 314 l 607 314 l 607 167 l 515 167 l 515 0 l 240 0 l 240 167 l 115 167 l 115 314 l 240 314 l 240 419 l 210 433 q 67 542 114 476 q 21 722 21 608 q 69 902 21 825 q 201 1020 117 979 q 390 1061 285 1061 q 572 1028 492 1061 q 722 928 651 994 l 590 793 q 514 847 551 829 q 432 864 476 864 q 338 825 374 864 q 301 713 301 786 q 342 586 301 635 q 471 510 383 538 l 515 496 l 515 314 z "},"ɡ":{"ha":822,"x_min":21,"x_max":767,"o":"m 767 742 l 767 44 q 660 -225 767 -135 q 365 -315 554 -315 q 65 -242 190 -315 l 146 -76 q 235 -108 185 -96 q 338 -121 285 -121 q 453 -90 414 -121 q 492 6 492 -60 l 492 79 q 310 0 421 0 q 94 105 167 0 q 21 389 21 210 q 60 583 21 496 q 168 719 99 669 q 324 769 238 769 q 514 690 436 769 l 526 742 l 767 742 m 399 197 q 492 263 454 197 l 492 531 q 449 563 469 553 q 403 574 428 574 q 303 386 303 574 q 328 235 303 274 q 399 197 353 197 z "},"ǥ":{"ha":792,"x_min":-7,"x_max":847,"o":"m 847 -115 l 774 -115 q 645 -262 749 -210 q 369 -315 542 -315 q 141 -285 224 -315 q 26 -200 58 -254 q -7 -68 -7 -146 l 239 -68 q 249 -122 239 -104 q 289 -148 260 -140 q 378 -156 318 -156 q 479 -146 442 -156 q 532 -115 517 -136 l 375 -115 l 375 -32 l 535 -32 q 425 4 511 4 l 322 4 q 133 42 194 4 q 72 138 72 79 q 98 214 72 179 q 167 274 124 249 q 60 365 92 314 q 28 490 28 417 q 122 696 28 622 q 376 769 217 769 q 566 797 482 765 q 732 883 650 828 l 792 692 q 581 658 718 658 q 690 583 656 626 q 725 464 725 539 q 685 338 725 394 q 570 251 644 282 q 396 219 496 219 q 317 224 342 219 q 300 197 300 215 q 313 176 300 183 q 372 169 326 169 l 479 169 q 688 115 608 169 q 779 -32 768 60 l 847 -32 l 847 -115 m 385 592 q 324 567 347 592 q 300 496 300 542 q 324 420 300 446 q 385 394 347 394 q 469 500 469 394 q 449 570 469 549 q 385 592 428 592 z "},"ȝ":{"ha":665,"x_min":-7,"x_max":644,"o":"m 306 769 q 524 712 439 769 q 610 554 610 654 q 439 381 610 421 q 644 213 644 364 q 497 -6 644 90 q 76 -153 350 -101 l 53 22 q 291 119 221 74 q 363 224 361 164 q 344 265 363 250 q 289 281 325 281 l 163 281 l 178 447 l 243 447 q 313 465 293 447 q 333 521 333 483 q 264 586 333 586 q 190 576 224 586 q 118 544 156 565 l -7 682 q 306 769 122 769 z "},"h":{"ha":792,"x_min":58,"x_max":743,"o":"m 543 769 q 690 711 636 769 q 743 547 743 653 l 743 0 l 468 0 l 468 497 q 458 554 468 539 q 426 569 447 569 q 333 496 381 569 l 333 0 l 58 0 l 58 1033 l 333 1061 l 333 675 q 431 747 381 725 q 543 769 481 769 z "},"ħ":{"ha":806,"x_min":0,"x_max":757,"o":"m 557 769 q 703 711 650 769 q 757 547 757 653 l 757 0 l 482 0 l 482 497 q 472 554 482 539 q 440 569 461 569 q 347 496 394 569 l 347 0 l 72 0 l 72 819 l 0 819 l 0 967 l 72 967 l 72 1033 l 347 1061 l 347 967 l 517 967 l 517 819 l 347 819 l 347 675 q 444 747 394 725 q 557 769 494 769 z "},"ȟ":{"ha":792,"x_min":58,"x_max":743,"o":"m 543 769 q 690 711 636 769 q 743 547 743 653 l 743 0 l 468 0 l 468 497 q 458 554 468 539 q 426 569 447 569 q 333 496 381 569 l 333 0 l 58 0 l 58 1033 l 333 1061 l 333 675 q 431 747 381 725 q 543 769 481 769 m 681 1300 l 479 1104 l 315 1104 l 114 1300 l 207 1407 l 397 1288 l 588 1407 l 681 1300 z "},"ĥ":{"ha":792,"x_min":58,"x_max":743,"o":"m 543 769 q 690 711 636 769 q 743 547 743 653 l 743 0 l 468 0 l 468 497 q 458 554 468 539 q 426 569 447 569 q 333 496 381 569 l 333 0 l 58 0 l 58 1033 l 333 1061 l 333 675 q 431 747 381 725 q 543 769 481 769 m 114 1218 l 315 1414 l 479 1414 l 681 1218 l 588 1111 l 397 1231 l 207 1111 l 114 1218 z "},"ḥ":{"ha":792,"x_min":58,"x_max":743,"o":"m 543 769 q 690 711 636 769 q 743 547 743 653 l 743 0 l 468 0 l 468 497 q 458 554 468 539 q 426 569 447 569 q 333 496 381 569 l 333 0 l 58 0 l 58 1033 l 333 1061 l 333 675 q 431 747 381 725 q 543 769 481 769 m 401 -367 q 291 -324 335 -367 q 247 -219 247 -282 q 291 -115 247 -157 q 401 -72 335 -72 q 512 -115 468 -72 q 556 -219 556 -157 q 512 -324 556 -282 q 401 -367 468 -367 z "},"ɧ":{"ha":792,"x_min":58,"x_max":743,"o":"m 543 769 q 690 711 636 769 q 743 547 743 653 l 743 -22 q 659 -240 743 -165 q 432 -315 575 -315 q 213 -253 299 -315 l 301 -96 q 350 -115 331 -110 q 396 -121 369 -121 q 449 -102 431 -121 q 468 -47 468 -83 l 468 497 q 458 554 468 539 q 426 569 447 569 q 333 496 381 569 l 333 0 l 58 0 l 58 785 q 139 983 58 906 q 372 1061 219 1061 q 490 1047 431 1061 q 590 1010 550 1032 l 518 839 q 410 864 464 864 q 351 843 369 864 q 333 771 333 822 l 333 675 q 431 747 381 725 q 543 769 481 769 z "},"ɦ":{"ha":792,"x_min":58,"x_max":743,"o":"m 543 769 q 690 711 636 769 q 743 547 743 653 l 743 0 l 468 0 l 468 497 q 458 554 468 539 q 426 569 447 569 q 333 496 381 569 l 333 0 l 58 0 l 58 785 q 139 983 58 906 q 372 1061 219 1061 q 490 1047 431 1061 q 590 1010 550 1032 l 518 839 q 410 864 464 864 q 351 843 369 864 q 333 771 333 822 l 333 675 q 431 747 381 725 q 543 769 481 769 z "},"ɥ":{"ha":792,"x_min":49,"x_max":733,"o":"m 733 742 l 733 -315 l 458 -287 l 458 67 q 361 -6 411 17 q 249 -28 311 -28 q 102 31 156 -28 q 49 194 49 89 l 49 742 l 324 742 l 324 244 q 334 188 324 203 q 365 172 344 172 q 458 246 411 172 l 458 742 l 733 742 z "},"ʮ":{"ha":982,"x_min":-17,"x_max":924,"o":"m 924 742 l 924 -315 l 649 -287 l 649 67 q 551 -6 601 17 q 439 -28 501 -28 q 292 31 346 -28 q 239 194 239 89 l 239 503 q 220 558 239 539 q 167 576 201 576 q 121 571 140 576 q 72 551 101 565 l -17 708 q 203 771 69 771 q 430 696 346 771 q 514 478 514 621 l 514 244 q 524 188 514 203 q 556 172 535 172 q 649 246 601 172 l 649 742 l 924 742 z "},"ʯ":{"ha":982,"x_min":-17,"x_max":1179,"o":"m 1179 -253 q 960 -315 1093 -315 q 733 -240 817 -315 q 649 -22 649 -165 l 649 67 q 551 -6 601 17 q 439 -28 501 -28 q 292 31 346 -28 q 239 194 239 89 l 239 503 q 220 558 239 539 q 167 576 201 576 q 121 571 140 576 q 72 551 101 565 l -17 708 q 203 771 69 771 q 430 696 346 771 q 514 478 514 621 l 514 244 q 524 188 514 203 q 556 172 535 172 q 649 246 601 172 l 649 742 l 924 742 l 924 -47 q 942 -102 924 -83 q 996 -121 961 -121 q 1042 -115 1022 -121 q 1090 -96 1061 -110 l 1179 -253 z "},"ƕ":{"ha":1196,"x_min":58,"x_max":1161,"o":"m 1118 742 q 1149 544 1138 640 q 1161 339 1161 447 q 1107 131 1161 214 q 966 10 1053 49 q 778 -28 879 -28 q 556 44 643 -28 q 468 265 468 117 l 468 497 q 458 554 468 539 q 426 569 447 569 q 333 496 381 569 l 333 0 l 58 0 l 58 1033 l 333 1061 l 333 675 q 431 747 381 725 q 543 769 481 769 q 690 711 636 769 q 743 547 743 653 l 743 264 q 758 190 743 211 q 800 169 772 169 q 863 215 839 169 q 886 360 886 261 q 849 742 886 517 l 1118 742 z "},"i":{"ha":392,"x_min":42,"x_max":350,"o":"m 196 1151 q 306 1109 263 1151 q 350 1004 350 1067 q 306 899 350 942 q 196 857 263 857 q 85 899 129 857 q 42 1004 42 942 q 85 1109 42 1067 q 196 1151 129 1151 m 333 0 l 58 0 l 58 742 l 333 742 l 333 0 z "},"ı":{"ha":392,"x_min":58,"x_max":333,"o":"m 333 0 l 58 0 l 58 742 l 333 742 l 333 0 z "},"í":{"ha":392,"x_min":-29,"x_max":393,"o":"m 333 0 l 58 0 l 58 742 l 333 742 l 333 0 m 393 989 l 44 851 l -29 989 l 290 1189 l 393 989 z "},"ĭ":{"ha":392,"x_min":-61,"x_max":453,"o":"m 333 0 l 58 0 l 58 742 l 333 742 l 333 0 m 196 869 q 13 947 78 869 q -61 1142 -51 1025 l 82 1165 q 123 1085 94 1114 q 196 1056 151 1056 q 269 1085 240 1056 q 310 1165 297 1114 l 453 1142 q 378 947 443 1025 q 196 869 314 869 z "},"ǐ":{"ha":392,"x_min":-87,"x_max":479,"o":"m 333 0 l 58 0 l 58 742 l 333 742 l 333 0 m 479 1046 l 278 836 l 114 836 l -87 1046 l 6 1153 l 196 1019 l 386 1153 l 479 1046 z "},"î":{"ha":392,"x_min":-87,"x_max":479,"o":"m 333 0 l 58 0 l 58 742 l 333 742 l 333 0 m -87 957 l 114 1167 l 278 1167 l 479 957 l 386 850 l 196 983 l 6 850 l -87 957 z "},"ȉ":{"ha":392,"x_min":-144,"x_max":424,"o":"m 333 0 l 58 0 l 58 742 l 333 742 l 333 0 m 171 925 l 38 861 l -144 1133 l 26 1218 l 171 925 m 424 921 l 288 867 l 117 1140 l 290 1218 l 424 921 z "},"ï":{"ha":392,"x_min":-107,"x_max":497,"o":"m 333 0 l 58 0 l 58 742 l 333 742 l 333 0 m 25 1136 q 119 1099 81 1136 q 157 1008 157 1061 q 119 917 157 954 q 25 879 81 879 q -68 917 -29 879 q -107 1008 -107 954 q -68 1099 -107 1061 q 25 1136 -29 1136 m 365 1136 q 459 1099 421 1136 q 497 1008 497 1061 q 459 917 497 954 q 365 879 421 879 q 272 917 311 879 q 233 1008 233 954 q 272 1099 233 1061 q 365 1136 311 1136 z "},"ḯ":{"ha":392,"x_min":-121,"x_max":511,"o":"m 333 0 l 58 0 l 58 742 l 333 742 l 333 0 m 429 1225 l 192 1018 l 90 1108 l 285 1367 l 429 1225 m 11 1072 q 104 1035 65 1072 q 143 944 143 997 q 104 853 143 890 q 11 815 65 815 q -83 853 -44 815 q -121 944 -121 890 q -83 1035 -121 997 q 11 1072 -44 1072 m 379 1072 q 472 1035 433 1072 q 511 944 511 997 q 472 853 511 890 q 379 815 433 815 q 285 853 324 815 q 247 944 247 890 q 285 1035 247 997 q 379 1072 324 1072 z "},"ị":{"ha":392,"x_min":42,"x_max":350,"o":"m 196 1151 q 306 1109 263 1151 q 350 1004 350 1067 q 306 899 350 942 q 196 857 263 857 q 85 899 129 857 q 42 1004 42 942 q 85 1109 42 1067 q 196 1151 129 1151 m 333 0 l 58 0 l 58 742 l 333 742 l 333 0 m 196 -367 q 85 -324 129 -367 q 42 -219 42 -282 q 85 -115 42 -157 q 196 -72 129 -72 q 306 -115 263 -72 q 350 -219 350 -157 q 306 -324 350 -282 q 196 -367 263 -367 z "},"ᵻ":{"ha":392,"x_min":-39,"x_max":433,"o":"m 433 293 l 333 293 l 333 0 l 58 0 l 58 293 l -39 293 l -39 501 l 58 501 l 58 742 l 333 742 l 333 501 l 433 501 l 433 293 z "},"ì":{"ha":392,"x_min":-1,"x_max":421,"o":"m 333 0 l 58 0 l 58 742 l 333 742 l 333 0 m 421 989 l 347 851 l -1 989 l 101 1189 l 421 989 z "},"ỉ":{"ha":392,"x_min":40,"x_max":390,"o":"m 333 0 l 58 0 l 58 742 l 333 742 l 333 0 m 119 978 q 195 990 172 979 q 218 1026 218 1001 q 204 1055 218 1044 q 167 1065 190 1065 q 124 1061 143 1065 q 81 1047 106 1057 l 40 1150 q 204 1189 106 1189 q 342 1147 293 1189 q 390 1039 390 1106 q 360 949 390 983 q 271 903 329 914 l 271 835 l 119 835 l 119 978 z "},"ȋ":{"ha":392,"x_min":-61,"x_max":453,"o":"m 333 0 l 58 0 l 58 742 l 333 742 l 333 0 m 196 1121 q 378 1043 314 1121 q 453 849 443 965 l 310 825 q 269 906 297 876 q 196 935 240 935 q 123 906 151 935 q 82 825 94 876 l -61 849 q 13 1043 -51 965 q 196 1121 78 1121 z "},"ĳ":{"ha":783,"x_min":42,"x_max":742,"o":"m 196 1151 q 306 1109 263 1151 q 350 1004 350 1067 q 306 899 350 942 q 196 857 263 857 q 85 899 129 857 q 42 1004 42 942 q 85 1109 42 1067 q 196 1151 129 1151 m 333 0 l 58 0 l 58 742 l 333 742 l 333 0 z "},"ī":{"ha":392,"x_min":-31,"x_max":421,"o":"m 333 0 l 58 0 l 58 742 l 333 742 l 333 0 m -31 900 l -31 1086 l 421 1086 l 421 900 l -31 900 z "},"į":{"ha":392,"x_min":-68,"x_max":350,"o":"m 196 857 q 85 899 129 857 q 42 1004 42 942 q 85 1109 42 1067 q 196 1151 129 1151 q 306 1109 263 1151 q 350 1004 350 1067 q 306 899 350 942 q 196 857 263 857 m 58 742 l 333 742 l 333 0 l 278 0 q 153 -65 189 -29 q 118 -132 118 -100 q 189 -193 118 -193 q 274 -182 225 -193 l 257 -342 q 154 -353 208 -353 q -6 -306 57 -353 q -68 -178 -68 -258 q 58 17 -68 -57 l 58 742 z "},"ɩ":{"ha":421,"x_min":49,"x_max":435,"o":"m 282 -28 q 109 35 169 -28 q 49 214 49 99 l 49 742 l 324 742 l 324 225 q 357 188 324 188 q 386 192 369 188 l 435 -3 q 282 -28 369 -28 z "},"ɨ":{"ha":472,"x_min":0,"x_max":472,"o":"m 235 857 q 124 899 168 857 q 81 1004 81 942 q 124 1109 81 1067 q 235 1151 168 1151 q 345 1109 301 1151 q 389 1004 389 1067 q 345 899 389 942 q 235 857 301 857 m 472 293 l 372 293 l 372 0 l 97 0 l 97 293 l 0 293 l 0 501 l 97 501 l 97 742 l 372 742 l 372 501 l 472 501 l 472 293 z "},"ĩ":{"ha":392,"x_min":-83,"x_max":475,"o":"m 333 0 l 58 0 l 58 742 l 333 742 l 333 0 m 276 864 q 227 871 247 864 q 185 893 207 878 q 147 917 158 911 q 119 924 135 924 q 79 910 94 924 q 46 864 64 896 l -83 926 q -3 1062 -54 1008 q 113 1115 47 1115 q 165 1108 143 1115 q 210 1085 186 1101 q 247 1062 233 1068 q 274 1056 260 1056 q 313 1069 297 1056 q 346 1115 328 1083 l 475 1053 q 394 917 446 969 q 276 864 343 864 z "},"j":{"ha":392,"x_min":-97,"x_max":350,"o":"m 333 107 q 244 -169 333 -74 q -3 -315 156 -264 l -97 -115 q -11 -67 -43 -90 q 40 -6 21 -43 q 58 90 58 32 l 58 742 l 333 742 l 333 107 m 196 1151 q 306 1109 263 1151 q 350 1004 350 1067 q 306 899 350 942 q 196 857 263 857 q 85 899 129 857 q 42 1004 42 942 q 85 1109 42 1067 q 196 1151 129 1151 z "},"ȷ":{"ha":392,"x_min":-97,"x_max":333,"o":"m 333 107 q 244 -169 333 -74 q -3 -315 156 -264 l -97 -115 q -11 -67 -43 -90 q 40 -6 21 -43 q 58 90 58 32 l 58 742 l 333 742 l 333 107 z "},"ǰ":{"ha":392,"x_min":-97,"x_max":479,"o":"m 333 107 q 244 -169 333 -74 q -3 -315 156 -264 l -97 -115 q -11 -67 -43 -90 q 40 -6 21 -43 q 58 90 58 32 l 58 742 l 333 742 l 333 107 m 479 1046 l 278 836 l 114 836 l -87 1046 l 6 1153 l 196 1019 l 386 1153 l 479 1046 z "},"ĵ":{"ha":392,"x_min":-97,"x_max":479,"o":"m 333 107 q 244 -169 333 -74 q -3 -315 156 -264 l -97 -115 q -11 -67 -43 -90 q 40 -6 21 -43 q 58 90 58 32 l 58 742 l 333 742 l 333 107 m -87 957 l 114 1167 l 278 1167 l 479 957 l 386 850 l 196 983 l 6 850 l -87 957 z "},"ʝ":{"ha":501,"x_min":-104,"x_max":571,"o":"m 525 -162 q 417 -121 485 -144 q 311 -267 385 -219 q 117 -315 238 -315 q -47 -270 10 -315 q -104 -143 -104 -225 q -44 -4 -104 -53 q 121 44 17 44 q 167 43 151 44 l 167 742 l 442 742 l 442 79 q 439 0 442 50 q 571 -57 506 -22 l 525 -162 m 94 -185 q 146 -160 129 -185 q 165 -78 163 -136 q 119 -76 151 -76 q 43 -135 43 -76 q 56 -172 43 -158 q 94 -185 69 -185 m 304 1151 q 415 1109 371 1151 q 458 1004 458 1067 q 415 899 458 942 q 304 857 371 857 q 194 899 238 857 q 150 1004 150 942 q 194 1109 150 1067 q 304 1151 238 1151 z "},"ɟ":{"ha":472,"x_min":-57,"x_max":472,"o":"m 472 238 l 374 238 l 374 107 q 285 -169 374 -74 q 38 -315 196 -264 l -57 -115 q 29 -67 -3 -90 q 80 -6 61 -43 q 99 90 99 32 l 99 238 l 0 238 l 0 446 l 99 446 l 99 742 l 374 742 l 374 446 l 472 446 l 472 238 z "},"ʄ":{"ha":475,"x_min":-47,"x_max":601,"o":"m 469 188 l 469 0 l 369 0 q 260 -199 344 -126 q 43 -315 176 -271 l -47 -133 q 51 -77 15 -108 q 99 0 88 -46 l -3 0 l -3 188 l 104 188 l 104 785 q 179 983 104 906 q 397 1061 254 1061 q 601 1010 511 1061 l 529 840 q 440 864 479 864 q 394 846 408 864 q 379 789 379 828 l 379 188 l 469 188 z "}}}
